AnekBangla-CondensedThin.ufo
<glyph name="exclam" format="2">
	<advance width="307"/>
	<unicode hex="0021"/>
	<outline>
		<contour>
			<point x="168" y="357" type="line"/>
			<point x="174" y="1278" type="line"/>
			<point x="133" y="1278" type="line"/>
			<point x="139" y="357" type="line"/>
		</contour>
		<contour>
			<point x="153" y="-9" type="curve" smooth="yes"/>
			<point x="175" y="-9"/>
			<point x="183" y="9"/>
			<point x="183" y="50" type="curve" smooth="yes"/>
			<point x="183" y="66" type="line" smooth="yes"/>
			<point x="183" y="106"/>
			<point x="175" y="125"/>
			<point x="153" y="125" type="curve" smooth="yes"/>
			<point x="131" y="125"/>
			<point x="124" y="106"/>
			<point x="124" y="66" type="curve" smooth="yes"/>
			<point x="124" y="50" type="line" smooth="yes"/>
			<point x="124" y="9"/>
			<point x="131" y="-9"/>
		</contour>
	</outline>
</glyph>
<glyph name="numbersign" format="2">
	<advance width="774"/>
	<unicode hex="0023"/>
	<outline>
		<contour>
			<point x="175" y="0" type="line"/>
			<point x="210" y="0" type="line"/>
			<point x="302" y="1278" type="line"/>
			<point x="267" y="1278" type="line"/>
		</contour>
		<contour>
			<point x="52" y="398" type="line"/>
			<point x="685" y="398" type="line"/>
			<point x="685" y="429" type="line"/>
			<point x="52" y="429" type="line"/>
		</contour>
		<contour>
			<point x="472" y="0" type="line"/>
			<point x="507" y="0" type="line"/>
			<point x="599" y="1278" type="line"/>
			<point x="564" y="1278" type="line"/>
		</contour>
		<contour>
			<point x="89" y="860" type="line"/>
			<point x="722" y="860" type="line"/>
			<point x="722" y="892" type="line"/>
			<point x="89" y="892" type="line"/>
		</contour>
	</outline>
</glyph>
<glyph name="dollar" format="2">
	<advance width="525"/>
	<unicode hex="0024"/>
	<outline>
		<contour>
			<point x="276" y="1278" type="line"/>
			<point x="276" y="1454" type="line"/>
			<point x="241" y="1454" type="line"/>
			<point x="241" y="1278" type="line"/>
		</contour>
		<contour>
			<point x="276" y="-185" type="line"/>
			<point x="276" y="14" type="line"/>
			<point x="241" y="14" type="line"/>
			<point x="241" y="-185" type="line"/>
		</contour>
		<component base="S"/>
	</outline>
</glyph>
<glyph name="percent" format="2">
  <advance width="966"/>
  <unicode hex="0025"/>
  <outline>
    <contour>
      <point x="231" y="0" type="line"/>
      <point x="266" y="0" type="line"/>
      <point x="735" y="1278" type="line"/>
      <point x="700" y="1278" type="line"/>
    </contour>
    <contour>
      <point x="719" y="-15" type="curve" smooth="yes"/>
      <point x="822" y="-15"/>
      <point x="873" y="55"/>
      <point x="873" y="178" type="curve"/>
      <point x="873" y="411" type="line"/>
      <point x="873" y="535"/>
      <point x="822" y="605"/>
      <point x="719" y="605" type="curve" smooth="yes"/>
      <point x="616" y="605"/>
      <point x="564" y="535"/>
      <point x="564" y="411" type="curve"/>
      <point x="564" y="178" type="line"/>
      <point x="564" y="55"/>
      <point x="616" y="-15"/>
    </contour>
    <contour>
      <point x="719" y="17" type="curve" smooth="yes"/>
      <point x="638" y="17"/>
      <point x="599" y="70"/>
      <point x="599" y="177" type="curve" smooth="yes"/>
      <point x="599" y="413" type="line" smooth="yes"/>
      <point x="599" y="520"/>
      <point x="638" y="573"/>
      <point x="719" y="573" type="curve" smooth="yes"/>
      <point x="800" y="573"/>
      <point x="838" y="520"/>
      <point x="838" y="413" type="curve" smooth="yes"/>
      <point x="838" y="177" type="line" smooth="yes"/>
      <point x="838" y="70"/>
      <point x="800" y="17"/>
    </contour>
    <contour>
      <point x="248" y="673" type="curve" smooth="yes"/>
      <point x="351" y="673"/>
      <point x="402" y="743"/>
      <point x="402" y="866" type="curve"/>
      <point x="402" y="1099" type="line"/>
      <point x="402" y="1222"/>
      <point x="351" y="1292"/>
      <point x="248" y="1292" type="curve" smooth="yes"/>
      <point x="145" y="1292"/>
      <point x="93" y="1222"/>
      <point x="93" y="1099" type="curve"/>
      <point x="93" y="866" type="line"/>
      <point x="93" y="743"/>
      <point x="145" y="673"/>
    </contour>
    <contour>
      <point x="248" y="704" type="curve" smooth="yes"/>
      <point x="167" y="704"/>
      <point x="128" y="757"/>
      <point x="128" y="864" type="curve" smooth="yes"/>
      <point x="128" y="1101" type="line" smooth="yes"/>
      <point x="128" y="1207"/>
      <point x="167" y="1261"/>
      <point x="248" y="1261" type="curve" smooth="yes"/>
      <point x="329" y="1261"/>
      <point x="367" y="1207"/>
      <point x="367" y="1101" type="curve" smooth="yes"/>
      <point x="367" y="864" type="line" smooth="yes"/>
      <point x="367" y="757"/>
      <point x="329" y="704"/>
    </contour>
  </outline>
</glyph>
<glyph name="quotesingle" format="2">
	<advance width="204"/>
	<unicode hex="0027"/>
	<outline>
		<contour>
			<point x="117" y="920" type="line"/>
			<point x="122" y="1334" type="line"/>
			<point x="82" y="1334" type="line"/>
			<point x="87" y="920" type="line"/>
		</contour>
	</outline>
</glyph>
<glyph name="parenleft" format="2">
  <advance width="340"/>
  <unicode hex="0028"/>
  <outline>
    <contour>
      <point x="159" y="716" type="line" smooth="yes"/>
      <point x="159" y="1001"/>
      <point x="178" y="1163"/>
      <point x="300" y="1352" type="curve"/>
      <point x="256" y="1352" type="line"/>
      <point x="143" y="1174"/>
      <point x="121" y="1016"/>
      <point x="121" y="721" type="curve" smooth="yes"/>
      <point x="121" y="390" type="line" smooth="yes"/>
      <point x="121" y="96"/>
      <point x="143" y="-63"/>
      <point x="256" y="-241" type="curve"/>
      <point x="300" y="-241" type="line"/>
      <point x="178" y="-52"/>
      <point x="159" y="110"/>
      <point x="159" y="396" type="curve" smooth="yes"/>
    </contour>
  </outline>
</glyph>
<glyph name="plus" format="2">
  <advance width="608"/>
  <unicode hex="002B"/>
  <outline>
    <contour>
      <point x="322" y="318" type="line"/>
      <point x="322" y="955" type="line"/>
      <point x="287" y="955" type="line"/>
      <point x="287" y="318" type="line"/>
    </contour>
    <contour>
      <point x="61" y="620" type="line"/>
      <point x="547" y="620" type="line"/>
      <point x="547" y="653" type="line"/>
      <point x="61" y="653" type="line"/>
    </contour>
  </outline>
</glyph>
<glyph name="hyphen" format="2">
  <advance width="579"/>
  <unicode hex="002D"/>
  <outline>
    <contour>
      <point x="111" y="521" type="line"/>
      <point x="468" y="521" type="line"/>
      <point x="468" y="554" type="line"/>
      <point x="111" y="554" type="line"/>
    </contour>
  </outline>
</glyph>
<glyph name="nine" format="2">
	<advance width="588"/>
	<unicode hex="0039"/>
	<outline>
		<contour>
			<point x="286" y="1293" type="curve" smooth="yes"/>
			<point x="150" y="1293"/>
			<point x="85" y="1203"/>
			<point x="85" y="1024" type="curve"/>
			<point x="85" y="756" type="line"/>
			<point x="85" y="583"/>
			<point x="148" y="481"/>
			<point x="275" y="481" type="curve" smooth="yes"/>
			<point x="402" y="481"/>
			<point x="462" y="573"/>
			<point x="464" y="725" type="curve"/>
			<point x="479" y="725" type="line"/>
			<point x="457" y="747" type="line"/>
			<point x="442" y="589"/>
			<point x="389" y="515"/>
			<point x="280" y="515" type="curve" smooth="yes"/>
			<point x="171" y="515"/>
			<point x="123" y="607"/>
			<point x="123" y="764" type="curve"/>
			<point x="123" y="1028" type="line"/>
			<point x="123" y="1180"/>
			<point x="174" y="1259"/>
			<point x="286" y="1259" type="curve" smooth="yes"/>
			<point x="396" y="1259"/>
			<point x="448" y="1180"/>
			<point x="448" y="1028" type="curve"/>
			<point x="448" y="269" type="line"/>
			<point x="448" y="101"/>
			<point x="396" y="15"/>
			<point x="265" y="15" type="curve" smooth="yes"/>
			<point x="207" y="15"/>
			<point x="150" y="38"/>
			<point x="102" y="74" type="curve"/>
			<point x="107" y="32" type="line"/>
			<point x="140" y="6"/>
			<point x="196" y="-20"/>
			<point x="265" y="-20" type="curve" smooth="yes"/>
			<point x="421" y="-20"/>
			<point x="486" y="79"/>
			<point x="486" y="269" type="curve" smooth="yes"/>
			<point x="486" y="1024" type="line" smooth="yes"/>
			<point x="486" y="1203"/>
			<point x="421" y="1293"/>
		</contour>
	</outline>
</glyph>
<glyph name="A" format="2">
  <advance width="639"/>
  <unicode hex="0041"/>
  <anchor x="320" y="0" name="bottom"/>
  <anchor x="635" y="0" name="ogonek"/>
  <anchor x="320" y="1278" name="top"/>
  <outline>
    <contour>
      <point x="58" y="0" type="line"/>
      <point x="98" y="0" type="line"/>
      <point x="307" y="1245" type="line"/>
      <point x="328" y="1245" type="line"/>
      <point x="541" y="0" type="line"/>
      <point x="581" y="0" type="line"/>
      <point x="357" y="1278" type="line"/>
      <point x="278" y="1278" type="line"/>
    </contour>
    <contour>
      <point x="161" y="452" type="line"/>
      <point x="476" y="452" type="line"/>
      <point x="476" y="485" type="line"/>
      <point x="161" y="485" type="line"/>
    </contour>
  </outline>
</glyph>
<glyph name="D" format="2">
  <advance width="665"/>
  <unicode hex="0044"/>
  <anchor x="322" y="0" name="bottom"/>
  <anchor x="333" y="639" name="center"/>
  <anchor x="322" y="1278" name="top"/>
  <outline>
    <contour>
      <point x="132" y="0" type="line"/>
      <point x="307" y="0" type="line" smooth="yes"/>
      <point x="476" y="0"/>
      <point x="565" y="106"/>
      <point x="565" y="297" type="curve" smooth="yes"/>
      <point x="565" y="980" type="line" smooth="yes"/>
      <point x="565" y="1172"/>
      <point x="476" y="1278"/>
      <point x="307" y="1278" type="curve" smooth="yes"/>
      <point x="139" y="1278" type="line"/>
      <point x="139" y="1243" type="line"/>
      <point x="305" y="1243" type="line" smooth="yes"/>
      <point x="453" y="1243"/>
      <point x="526" y="1152"/>
      <point x="526" y="978" type="curve" smooth="yes"/>
      <point x="526" y="298" type="line" smooth="yes"/>
      <point x="526" y="126"/>
      <point x="453" y="35"/>
      <point x="305" y="35" type="curve" smooth="yes"/>
      <point x="132" y="35" type="line"/>
    </contour>
    <contour>
      <point x="121" y="0" type="line"/>
      <point x="160" y="0" type="line"/>
      <point x="160" y="1278" type="line"/>
      <point x="121" y="1278" type="line"/>
    </contour>
  </outline>
</glyph>
<glyph name="F" format="2">
	<advance width="520"/>
	<unicode hex="0046"/>
	<anchor x="260" y="1278" name="top"/>
	<anchor x="260" y="0" name="bottom"/>
	<outline>
		<contour>
			<point x="121" y="0" type="line"/>
			<point x="160" y="0" type="line"/>
			<point x="160" y="1278" type="line"/>
			<point x="121" y="1278" type="line"/>
		</contour>
		<contour>
			<point x="139" y="618" type="line"/>
			<point x="462" y="618" type="line"/>
			<point x="462" y="653" type="line"/>
			<point x="139" y="653" type="line"/>
		</contour>
		<contour>
			<point x="121" y="1243" type="line"/>
			<point x="470" y="1243" type="line"/>
			<point x="470" y="1278" type="line"/>
			<point x="121" y="1278" type="line"/>
		</contour>
	</outline>
</glyph>
<glyph name="N" format="2">
	<advance width="696"/>
	<unicode hex="004E"/>
	<anchor x="348" y="1278" name="top"/>
	<anchor x="348" y="0" name="bottom"/>
	<outline>
		<contour>
			<point x="194" y="1278" type="line"/>
			<point x="121" y="1278" type="line"/>
			<point x="121" y="0" type="line"/>
			<point x="160" y="0" type="line"/>
			<point x="160" y="643" type="line"/>
			<point x="156" y="1245" type="line"/>
			<point x="167" y="1245" type="line"/>
			<point x="501" y="0" type="line"/>
			<point x="575" y="0" type="line"/>
			<point x="575" y="1278" type="line"/>
			<point x="536" y="1278" type="line"/>
			<point x="536" y="635" type="line"/>
			<point x="540" y="33" type="line"/>
			<point x="529" y="33" type="line"/>
		</contour>
	</outline>
</glyph>
<glyph name="O" format="2">
	<advance width="664"/>
	<unicode hex="004F"/>
	<anchor x="332" y="639" name="center"/>
	<anchor x="481" y="10" name="ogonek"/>
	<anchor x="332" y="1278" name="top"/>
	<anchor x="568" y="1278" name="topright"/>
	<anchor x="20" y="1278" name="topleft"/>
	<anchor x="332" y="0" name="bottom"/>
	<outline>
		<contour>
			<point x="332" y="-15" type="curve" smooth="yes"/>
			<point x="485" y="-15"/>
			<point x="564" y="89"/>
			<point x="564" y="291" type="curve"/>
			<point x="564" y="985" type="line"/>
			<point x="564" y="1187"/>
			<point x="485" y="1293"/>
			<point x="332" y="1293" type="curve" smooth="yes"/>
			<point x="178" y="1293"/>
			<point x="100" y="1187"/>
			<point x="100" y="985" type="curve"/>
			<point x="100" y="291" type="line"/>
			<point x="100" y="89"/>
			<point x="178" y="-15"/>
		</contour>
		<contour>
			<point x="332" y="21" type="curve" smooth="yes"/>
			<point x="201" y="21"/>
			<point x="139" y="116"/>
			<point x="139" y="290" type="curve" smooth="yes"/>
			<point x="139" y="987" type="line" smooth="yes"/>
			<point x="139" y="1162"/>
			<point x="201" y="1257"/>
			<point x="332" y="1257" type="curve" smooth="yes"/>
			<point x="463" y="1257"/>
			<point x="525" y="1162"/>
			<point x="525" y="987" type="curve" smooth="yes"/>
			<point x="525" y="290" type="line" smooth="yes"/>
			<point x="525" y="116"/>
			<point x="463" y="21"/>
		</contour>
	</outline>
</glyph>
<glyph name="S" format="2">
	<advance width="525"/>
	<unicode hex="0053"/>
	<anchor x="248" y="1278" name="top"/>
	<anchor x="248" y="0" name="bottom"/>
	<outline>
		<contour>
			<point x="243" y="-15" type="curve" smooth="yes"/>
			<point x="390" y="-15"/>
			<point x="449" y="86"/>
			<point x="449" y="257" type="curve" smooth="yes"/>
			<point x="449" y="347" type="line" smooth="yes"/>
			<point x="449" y="516"/>
			<point x="406" y="586"/>
			<point x="280" y="674" type="curve" smooth="yes"/>
			<point x="157" y="763"/>
			<point x="108" y="816"/>
			<point x="108" y="973" type="curve" smooth="yes"/>
			<point x="108" y="1025" type="line" smooth="yes"/>
			<point x="108" y="1175"/>
			<point x="152" y="1257"/>
			<point x="269" y="1257" type="curve" smooth="yes"/>
			<point x="339" y="1257"/>
			<point x="390" y="1229"/>
			<point x="438" y="1187" type="curve"/>
			<point x="432" y="1229" type="line"/>
			<point x="395" y="1265"/>
			<point x="341" y="1293"/>
			<point x="271" y="1293" type="curve" smooth="yes"/>
			<point x="128" y="1293"/>
			<point x="69" y="1196"/>
			<point x="69" y="1025" type="curve" smooth="yes"/>
			<point x="69" y="973" type="line" smooth="yes"/>
			<point x="69" y="805"/>
			<point x="122" y="739"/>
			<point x="254" y="645" type="curve" smooth="yes"/>
			<point x="367" y="566"/>
			<point x="410" y="503"/>
			<point x="410" y="345" type="curve" smooth="yes"/>
			<point x="410" y="257" type="line" smooth="yes"/>
			<point x="410" y="107"/>
			<point x="364" y="21"/>
			<point x="245" y="21" type="curve" smooth="yes"/>
			<point x="188" y="21"/>
			<point x="125" y="44"/>
			<point x="68" y="91" type="curve"/>
			<point x="74" y="47" type="line"/>
			<point x="112" y="13"/>
			<point x="174" y="-15"/>
		</contour>
	</outline>
</glyph>
<glyph name="U" format="2">
	<advance width="686"/>
	<unicode hex="0055"/>
	<anchor x="491" y="10" name="ogonek"/>
	<anchor x="343" y="1278" name="top"/>
	<anchor x="665" y="1278" name="topright"/>
	<anchor x="343" y="0" name="bottom"/>
	<outline>
		<contour>
			<point x="343" y="-15" type="curve" smooth="yes"/>
			<point x="497" y="-15"/>
			<point x="572" y="86"/>
			<point x="572" y="281" type="curve"/>
			<point x="572" y="1278" type="line"/>
			<point x="533" y="1278" type="line"/>
			<point x="533" y="281" type="line" smooth="yes"/>
			<point x="533" y="113"/>
			<point x="474" y="21"/>
			<point x="343" y="21" type="curve" smooth="yes"/>
			<point x="212" y="21"/>
			<point x="153" y="113"/>
			<point x="153" y="281" type="curve" smooth="yes"/>
			<point x="153" y="1278" type="line"/>
			<point x="114" y="1278" type="line"/>
			<point x="114" y="281" type="line"/>
			<point x="114" y="86"/>
			<point x="189" y="-15"/>
		</contour>
	</outline>
</glyph>
<glyph name="W" format="2">
  <advance width="917"/>
  <unicode hex="0057"/>
  <anchor x="459" y="0" name="bottom"/>
  <anchor x="459" y="1278" name="top"/>
  <outline>
    <contour>
      <point x="227" y="0" type="line"/>
      <point x="298" y="0" type="line"/>
      <point x="415" y="906" type="line"/>
      <point x="453" y="1210" type="line"/>
      <point x="464" y="1210" type="line"/>
      <point x="503" y="906" type="line"/>
      <point x="619" y="0" type="line"/>
      <point x="690" y="0" type="line"/>
      <point x="849" y="1278" type="line"/>
      <point x="810" y="1278" type="line"/>
      <point x="664" y="63" type="line"/>
      <point x="660" y="33" type="line"/>
      <point x="649" y="33" type="line"/>
      <point x="645" y="63" type="line"/>
      <point x="493" y="1241" type="line"/>
      <point x="424" y="1241" type="line"/>
      <point x="272" y="63" type="line"/>
      <point x="268" y="33" type="line"/>
      <point x="257" y="33" type="line"/>
      <point x="253" y="63" type="line"/>
      <point x="107" y="1278" type="line"/>
      <point x="68" y="1278" type="line"/>
    </contour>
  </outline>
</glyph>
<glyph name="X" format="2">
	<advance width="597"/>
	<unicode hex="0058"/>
	<anchor x="299" y="1278" name="top"/>
	<anchor x="299" y="0" name="bottom"/>
	<outline>
		<contour>
			<point x="56" y="0" type="line"/>
			<point x="95" y="0" type="line"/>
			<point x="295" y="640" type="line"/>
			<point x="302" y="640" type="line"/>
			<point x="502" y="0" type="line"/>
			<point x="541" y="0" type="line"/>
			<point x="326" y="676" type="line"/>
			<point x="326" y="654" type="line"/>
			<point x="537" y="1278" type="line"/>
			<point x="498" y="1278" type="line"/>
			<point x="302" y="687" type="line"/>
			<point x="295" y="687" type="line"/>
			<point x="99" y="1278" type="line"/>
			<point x="60" y="1278" type="line"/>
			<point x="271" y="654" type="line"/>
			<point x="271" y="676" type="line"/>
		</contour>
	</outline>
</glyph>
<glyph name="Y" format="2">
	<advance width="573"/>
	<unicode hex="0059"/>
	<anchor x="287" y="1278" name="top"/>
	<anchor x="287" y="0" name="bottom"/>
	<anchor x="20" y="1278" name="topleft"/>
	<outline>
		<contour>
			<point x="269" y="445" type="line"/>
			<point x="304" y="445" type="line"/>
			<point x="531" y="1278" type="line"/>
			<point x="492" y="1278" type="line"/>
			<point x="352" y="749" type="line"/>
			<point x="290" y="516" type="line"/>
			<point x="284" y="516" type="line"/>
			<point x="222" y="750" type="line"/>
			<point x="81" y="1278" type="line"/>
			<point x="42" y="1278" type="line"/>
		</contour>
		<contour>
			<point x="268" y="0" type="line"/>
			<point x="305" y="0" type="line"/>
			<point x="305" y="513" type="line"/>
			<point x="268" y="513" type="line"/>
		</contour>
	</outline>
</glyph>
<glyph name="backslash" format="2">
  <advance width="454"/>
  <unicode hex="005C"/>
  <outline>
    <contour>
      <point x="404" y="-241" type="line"/>
      <point x="86" y="1352" type="line"/>
      <point x="50" y="1352" type="line"/>
      <point x="368" y="-241" type="line"/>
    </contour>
  </outline>
</glyph>
<glyph name="bracketright" format="2">
	<advance width="384"/>
	<unicode hex="005D"/>
	<outline>
		<contour>
			<point x="261" y="-241" type="line"/>
			<point x="261" y="1352" type="line"/>
			<point x="32" y="1352" type="line"/>
			<point x="32" y="1321" type="line"/>
			<point x="224" y="1321" type="line"/>
			<point x="224" y="-210" type="line"/>
			<point x="32" y="-210" type="line"/>
			<point x="32" y="-241" type="line"/>
		</contour>
	</outline>
</glyph>
<glyph name="underscore" format="2">
	<advance width="572"/>
	<unicode hex="005F"/>
	<outline>
		<contour>
			<point x="52" y="-131" type="line"/>
			<point x="520" y="-131" type="line"/>
			<point x="520" y="-101" type="line"/>
			<point x="52" y="-101" type="line"/>
		</contour>
	</outline>
</glyph>
<glyph name="a" format="2">
  <advance width="553"/>
  <unicode hex="0061"/>
  <anchor x="263" y="0" name="bottom"/>
  <anchor x="498" y="0" name="ogonek"/>
  <anchor x="263" y="990" name="top"/>
  <outline>
    <contour>
      <point x="414" y="0" type="line"/>
      <point x="451" y="0" type="line"/>
      <point x="451" y="756" type="line" smooth="yes"/>
      <point x="451" y="918"/>
      <point x="392" y="1003"/>
      <point x="263" y="1003" type="curve" smooth="yes"/>
      <point x="189" y="1003"/>
      <point x="124" y="969"/>
      <point x="78" y="930" type="curve"/>
      <point x="73" y="887" type="line"/>
      <point x="130" y="935"/>
      <point x="196" y="968"/>
      <point x="263" y="968" type="curve" smooth="yes"/>
      <point x="367" y="968"/>
      <point x="414" y="897"/>
      <point x="414" y="754" type="curve" smooth="yes"/>
      <point x="414" y="595" type="line"/>
      <point x="414" y="172" type="line"/>
      <point x="418" y="172" type="line"/>
    </contour>
    <contour>
      <point x="243" y="-13" type="curve" smooth="yes"/>
      <point x="351" y="-13"/>
      <point x="405" y="70"/>
      <point x="423" y="179" type="curve"/>
      <point x="436" y="179" type="line"/>
      <point x="416" y="225" type="line"/>
      <point x="396" y="105"/>
      <point x="346" y="20"/>
      <point x="248" y="20" type="curve" smooth="yes"/>
      <point x="142" y="20"/>
      <point x="101" y="96"/>
      <point x="101" y="231" type="curve" smooth="yes"/>
      <point x="101" y="305" type="line" smooth="yes"/>
      <point x="101" y="418"/>
      <point x="138" y="475"/>
      <point x="255" y="515" type="curve" smooth="yes"/>
      <point x="433" y="576" type="line"/>
      <point x="430" y="611" type="line"/>
      <point x="246" y="546" type="line" smooth="yes"/>
      <point x="104" y="496"/>
      <point x="64" y="427"/>
      <point x="64" y="305" type="curve" smooth="yes"/>
      <point x="64" y="229" type="line" smooth="yes"/>
      <point x="64" y="72"/>
      <point x="119" y="-13"/>
    </contour>
  </outline>
</glyph>
<glyph name="c" format="2">
  <advance width="468"/>
  <unicode hex="0063"/>
  <anchor x="266" y="0" name="bottom"/>
  <anchor x="266" y="990" name="top"/>
  <outline>
    <contour>
      <point x="280" y="-13" type="curve" smooth="yes"/>
      <point x="342" y="-13"/>
      <point x="391" y="13"/>
      <point x="423" y="47" type="curve"/>
      <point x="428" y="90" type="line"/>
      <point x="386" y="49"/>
      <point x="341" y="22"/>
      <point x="282" y="22" type="curve" smooth="yes"/>
      <point x="170" y="22"/>
      <point x="126" y="103"/>
      <point x="126" y="247" type="curve" smooth="yes"/>
      <point x="126" y="743" type="line" smooth="yes"/>
      <point x="126" y="887"/>
      <point x="170" y="968"/>
      <point x="281" y="968" type="curve" smooth="yes"/>
      <point x="341" y="968"/>
      <point x="386" y="941"/>
      <point x="426" y="901" type="curve"/>
      <point x="421" y="943" type="line"/>
      <point x="389" y="977"/>
      <point x="340" y="1003"/>
      <point x="281" y="1003" type="curve" smooth="yes"/>
      <point x="146" y="1003"/>
      <point x="89" y="907"/>
      <point x="89" y="743" type="curve" smooth="yes"/>
      <point x="89" y="245" type="line" smooth="yes"/>
      <point x="89" y="80"/>
      <point x="146" y="-13"/>
    </contour>
  </outline>
</glyph>
<glyph name="i" format="2">
	<advance width="269"/>
	<unicode hex="0069"/>
	<anchor x="200" y="0" name="ogonek"/>
	<anchor x="135" y="0" name="bottom"/>
	<outline>
		<contour>
			<point x="116" y="0" type="line"/>
			<point x="153" y="0" type="line"/>
			<point x="153" y="990" type="line"/>
			<point x="116" y="990" type="line"/>
		</contour>
		<contour>
			<point x="135" y="1171" type="curve" smooth="yes"/>
			<point x="156" y="1171"/>
			<point x="163" y="1190"/>
			<point x="163" y="1230" type="curve" smooth="yes"/>
			<point x="163" y="1244" type="line" smooth="yes"/>
			<point x="163" y="1284"/>
			<point x="156" y="1302"/>
			<point x="135" y="1302" type="curve" smooth="yes"/>
			<point x="114" y="1302"/>
			<point x="106" y="1284"/>
			<point x="106" y="1244" type="curve" smooth="yes"/>
			<point x="106" y="1230" type="line" smooth="yes"/>
			<point x="106" y="1190"/>
			<point x="114" y="1171"/>
		</contour>
	</outline>
</glyph>
<glyph name="j" format="2">
  <advance width="275"/>
  <unicode hex="006A"/>
  <outline>
    <contour>
      <point x="122" y="234" type="line"/>
      <point x="159" y="233" type="line"/>
      <point x="159" y="990" type="line"/>
      <point x="122" y="990" type="line"/>
    </contour>
    <contour>
      <point x="141" y="1171" type="curve" smooth="yes"/>
      <point x="162" y="1171"/>
      <point x="169" y="1190"/>
      <point x="169" y="1230" type="curve" smooth="yes"/>
      <point x="169" y="1244" type="line" smooth="yes"/>
      <point x="169" y="1284"/>
      <point x="162" y="1302"/>
      <point x="141" y="1302" type="curve" smooth="yes"/>
      <point x="120" y="1302"/>
      <point x="112" y="1284"/>
      <point x="112" y="1244" type="curve" smooth="yes"/>
      <point x="112" y="1230" type="line" smooth="yes"/>
      <point x="112" y="1190"/>
      <point x="120" y="1171"/>
    </contour>
    <component base="jbottom"/>
  </outline>
</glyph>
<glyph name="m" format="2">
	<advance width="945"/>
	<unicode hex="006D"/>
	<anchor x="473" y="990" name="top"/>
	<anchor x="473" y="0" name="bottom"/>
	<outline>
		<contour>
			<point x="806" y="747" type="curve" smooth="yes"/>
			<point x="806" y="0" type="line"/>
			<point x="843" y="0" type="line"/>
			<point x="843" y="755" type="line" smooth="yes"/>
			<point x="843" y="914"/>
			<point x="789" y="1003"/>
			<point x="667" y="1003" type="curve" smooth="yes"/>
			<point x="551" y="1003"/>
			<point x="497" y="918"/>
			<point x="479" y="813" type="curve"/>
			<point x="472" y="813" type="line"/>
			<point x="488" y="765" type="line"/>
			<point x="508" y="884"/>
			<point x="557" y="970"/>
			<point x="662" y="970" type="curve" smooth="yes"/>
			<point x="764" y="970"/>
			<point x="806" y="890"/>
		</contour>
		<contour>
			<point x="110" y="0" type="line"/>
			<point x="147" y="0" type="line"/>
			<point x="147" y="818" type="line"/>
			<point x="144" y="818" type="line"/>
			<point x="148" y="990" type="line"/>
			<point x="110" y="990" type="line"/>
		</contour>
		<contour>
			<point x="458" y="747" type="curve" smooth="yes"/>
			<point x="458" y="0" type="line"/>
			<point x="495" y="0" type="line"/>
			<point x="495" y="755" type="line" smooth="yes"/>
			<point x="495" y="783"/>
			<point x="493" y="803"/>
			<point x="489" y="824" type="curve"/>
			<point x="475" y="940"/>
			<point x="419" y="1003"/>
			<point x="320" y="1003" type="curve" smooth="yes"/>
			<point x="208" y="1003"/>
			<point x="156" y="916"/>
			<point x="138" y="807" type="curve"/>
			<point x="123" y="807" type="line"/>
			<point x="145" y="761" type="line"/>
			<point x="165" y="882"/>
			<point x="214" y="970"/>
			<point x="314" y="970" type="curve" smooth="yes"/>
			<point x="418" y="970"/>
			<point x="458" y="890"/>
		</contour>
	</outline>
</glyph>
<glyph name="o" format="2">
	<advance width="598"/>
	<unicode hex="006F"/>
	<anchor x="299" y="495" name="center"/>
	<anchor x="427" y="0" name="ogonek"/>
	<anchor x="299" y="990" name="top"/>
	<anchor x="515" y="990" name="topright"/>
	<anchor x="299" y="0" name="bottom"/>
	<outline>
		<contour>
			<point x="299" y="-13" type="curve" smooth="yes"/>
			<point x="439" y="-13"/>
			<point x="509" y="79"/>
			<point x="509" y="254" type="curve"/>
			<point x="509" y="736" type="line"/>
			<point x="509" y="911"/>
			<point x="439" y="1003"/>
			<point x="299" y="1003" type="curve" smooth="yes"/>
			<point x="159" y="1003"/>
			<point x="89" y="911"/>
			<point x="89" y="736" type="curve"/>
			<point x="89" y="254" type="line"/>
			<point x="89" y="79"/>
			<point x="159" y="-13"/>
		</contour>
		<contour>
			<point x="299" y="20" type="curve" smooth="yes"/>
			<point x="181" y="20"/>
			<point x="126" y="101"/>
			<point x="126" y="254" type="curve" smooth="yes"/>
			<point x="126" y="736" type="line" smooth="yes"/>
			<point x="126" y="889"/>
			<point x="181" y="970"/>
			<point x="299" y="970" type="curve" smooth="yes"/>
			<point x="417" y="970"/>
			<point x="472" y="889"/>
			<point x="472" y="736" type="curve" smooth="yes"/>
			<point x="472" y="254" type="line" smooth="yes"/>
			<point x="472" y="101"/>
			<point x="417" y="20"/>
		</contour>
	</outline>
</glyph>
<glyph name="t" format="2">
  <advance width="439"/>
  <unicode hex="0074"/>
  <anchor x="276" y="0" name="bottom"/>
  <anchor x="220" y="495" name="center"/>
  <anchor x="159" y="1233" name="top"/>
  <anchor x="335" y="1402" name="topright"/>
  <outline>
    <contour>
      <point x="299" y="-11" type="curve" smooth="yes"/>
      <point x="340" y="-11"/>
      <point x="385" y="1"/>
      <point x="412" y="18" type="curve"/>
      <point x="417" y="57" type="line"/>
      <point x="383" y="37"/>
      <point x="344" y="24"/>
      <point x="301" y="24" type="curve" smooth="yes"/>
      <point x="212" y="24"/>
      <point x="176" y="69"/>
      <point x="176" y="169" type="curve" smooth="yes"/>
      <point x="176" y="951" type="line"/>
      <point x="139" y="951" type="line"/>
      <point x="139" y="163" type="line" smooth="yes"/>
      <point x="139" y="49"/>
      <point x="190" y="-11"/>
    </contour>
    <contour>
      <point x="20" y="940" type="line"/>
      <point x="385" y="940" type="line"/>
      <point x="390" y="972" type="line"/>
      <point x="20" y="972" type="line"/>
    </contour>
    <contour>
      <point x="139" y="960" type="line"/>
      <point x="174" y="960" type="line"/>
      <point x="177" y="1252" type="line"/>
      <point x="139" y="1237" type="line"/>
    </contour>
  </outline>
</glyph>
<glyph name="v" format="2">
	<advance width="567"/>
	<unicode hex="0076"/>
	<anchor x="284" y="990" name="top"/>
	<anchor x="284" y="0" name="bottom"/>
	<outline>
		<contour>
			<point x="290" y="33" type="line"/>
			<point x="277" y="33" type="line"/>
			<point x="93" y="990" type="line"/>
			<point x="54" y="990" type="line"/>
			<point x="249" y="0" type="line"/>
			<point x="318" y="0" type="line"/>
			<point x="513" y="990" type="line"/>
			<point x="474" y="990" type="line"/>
		</contour>
	</outline>
</glyph>
<glyph name="z" format="2">
	<advance width="489"/>
	<unicode hex="007A"/>
	<anchor x="245" y="495" name="center"/>
	<anchor x="243" y="0" name="bottom"/>
	<anchor x="243" y="990" name="top"/>
	<outline>
		<contour>
			<point x="421" y="33" type="line"/>
			<point x="104" y="33" type="line"/>
			<point x="421" y="959" type="line"/>
			<point x="421" y="990" type="line"/>
			<point x="66" y="990" type="line"/>
			<point x="66" y="957" type="line"/>
			<point x="383" y="957" type="line"/>
			<point x="66" y="31" type="line"/>
			<point x="66" y="0" type="line"/>
			<point x="421" y="0" type="line"/>
		</contour>
	</outline>
</glyph>
<glyph name="bar" format="2">
	<advance width="319"/>
	<unicode hex="007C"/>
	<outline>
		<contour>
			<point x="177" y="-436" type="line"/>
			<point x="177" y="1426" type="line"/>
			<point x="142" y="1426" type="line"/>
			<point x="142" y="-436" type="line"/>
		</contour>
	</outline>
</glyph>
<glyph name="cent" format="2">
	<advance width="468"/>
	<unicode hex="00A2"/>
	<outline>
		<contour>
			<point x="287" y="983" type="line"/>
			<point x="287" y="1165" type="line"/>
			<point x="252" y="1165" type="line"/>
			<point x="252" y="983" type="line"/>
		</contour>
		<contour>
			<point x="287" y="-185" type="line"/>
			<point x="287" y="6" type="line"/>
			<point x="252" y="6" type="line"/>
			<point x="252" y="-185" type="line"/>
		</contour>
		<component base="c"/>
	</outline>
</glyph>
<glyph name="copyright" format="2">
  <advance width="1044"/>
  <unicode hex="00A9"/>
  <outline>
    <contour>
      <point x="522" y="-15" type="curve" smooth="yes"/>
      <point x="787" y="-15"/>
      <point x="944" y="143"/>
      <point x="944" y="411" type="curve"/>
      <point x="944" y="865" type="line"/>
      <point x="944" y="1134"/>
      <point x="787" y="1293"/>
      <point x="522" y="1293" type="curve" smooth="yes"/>
      <point x="257" y="1293"/>
      <point x="100" y="1134"/>
      <point x="100" y="865" type="curve"/>
      <point x="100" y="411" type="line"/>
      <point x="100" y="143"/>
      <point x="257" y="-15"/>
    </contour>
    <contour>
      <point x="540" y="310" type="curve" smooth="yes"/>
      <point x="592" y="310"/>
      <point x="633" y="332"/>
      <point x="659" y="360" type="curve"/>
      <point x="663" y="400" type="line"/>
      <point x="628" y="366"/>
      <point x="591" y="343"/>
      <point x="542" y="343" type="curve" smooth="yes"/>
      <point x="453" y="343"/>
      <point x="419" y="408"/>
      <point x="419" y="524" type="curve" smooth="yes"/>
      <point x="419" y="755" type="line" smooth="yes"/>
      <point x="419" y="871"/>
      <point x="453" y="936"/>
      <point x="541" y="936" type="curve" smooth="yes"/>
      <point x="591" y="936"/>
      <point x="628" y="913"/>
      <point x="662" y="880" type="curve"/>
      <point x="657" y="919" type="line"/>
      <point x="631" y="947"/>
      <point x="590" y="969"/>
      <point x="541" y="969" type="curve" smooth="yes"/>
      <point x="430" y="969"/>
      <point x="384" y="891"/>
      <point x="384" y="755" type="curve" smooth="yes"/>
      <point x="384" y="522" type="line" smooth="yes"/>
      <point x="384" y="386"/>
      <point x="430" y="310"/>
    </contour>
    <contour>
      <point x="522" y="18" type="curve" smooth="yes"/>
      <point x="279" y="18"/>
      <point x="135" y="164"/>
      <point x="135" y="410" type="curve" smooth="yes"/>
      <point x="135" y="867" type="line" smooth="yes"/>
      <point x="135" y="1114"/>
      <point x="279" y="1260"/>
      <point x="522" y="1260" type="curve" smooth="yes"/>
      <point x="765" y="1260"/>
      <point x="909" y="1114"/>
      <point x="909" y="867" type="curve" smooth="yes"/>
      <point x="909" y="410" type="line" smooth="yes"/>
      <point x="909" y="164"/>
      <point x="765" y="18"/>
    </contour>
  </outline>
</glyph>
<glyph name="threesuperior" format="2">
	<advance width="307"/>
	<unicode hex="00B3"/>
	<outline>
		<contour>
			<point x="129" y="689" type="curve" smooth="yes"/>
			<point x="245" y="689"/>
			<point x="260" y="773"/>
			<point x="260" y="845" type="curve" smooth="yes"/>
			<point x="260" y="921" type="line" smooth="yes"/>
			<point x="260" y="999"/>
			<point x="231" y="1052"/>
			<point x="169" y="1056" type="curve"/>
			<point x="168" y="1054" type="line"/>
			<point x="169" y="1055" type="line"/>
			<point x="234" y="1063"/>
			<point x="256" y="1115"/>
			<point x="256" y="1187" type="curve" smooth="yes"/>
			<point x="256" y="1245" type="line" smooth="yes"/>
			<point x="256" y="1335"/>
			<point x="223" y="1391"/>
			<point x="131" y="1391" type="curve" smooth="yes"/>
			<point x="88" y="1391"/>
			<point x="55" y="1374"/>
			<point x="33" y="1355" type="curve"/>
			<point x="29" y="1320" type="line"/>
			<point x="57" y="1342"/>
			<point x="90" y="1361"/>
			<point x="129" y="1361" type="curve" smooth="yes"/>
			<point x="197" y="1361"/>
			<point x="222" y="1315"/>
			<point x="222" y="1242" type="curve" smooth="yes"/>
			<point x="222" y="1186" type="line" smooth="yes"/>
			<point x="222" y="1089"/>
			<point x="181" y="1070"/>
			<point x="130" y="1069" type="curve" smooth="yes"/>
			<point x="67" y="1068" type="line"/>
			<point x="67" y="1040" type="line"/>
			<point x="139" y="1039" type="line" smooth="yes"/>
			<point x="204" y="1038"/>
			<point x="225" y="991"/>
			<point x="225" y="922" type="curve" smooth="yes"/>
			<point x="225" y="847" type="line" smooth="yes"/>
			<point x="225" y="779"/>
			<point x="210" y="719"/>
			<point x="131" y="719" type="curve" smooth="yes"/>
			<point x="89" y="719"/>
			<point x="50" y="739"/>
			<point x="24" y="761" type="curve"/>
			<point x="28" y="725" type="line"/>
			<point x="49" y="708"/>
			<point x="78" y="689"/>
		</contour>
	</outline>
</glyph>
<glyph name="micro" format="2">
	<advance width="631"/>
	<unicode hex="00B5"/>
	<outline>
		<contour>
			<point x="521" y="990" type="line"/>
			<point x="484" y="990" type="line"/>
			<point x="484" y="168" type="line"/>
			<point x="487" y="168" type="line"/>
			<point x="483" y="0" type="line"/>
			<point x="521" y="0" type="line"/>
		</contour>
		<contour>
			<point x="148" y="237" type="curve" smooth="yes"/>
			<point x="148" y="990" type="line"/>
			<point x="110" y="990" type="line"/>
			<point x="110" y="-350" type="line"/>
			<point x="147" y="-350" type="line"/>
			<point x="147" y="-147" type="line"/>
			<point x="141" y="127" type="line"/>
			<point x="140" y="126" type="line"/>
			<point x="157" y="43"/>
			<point x="216" y="-13"/>
			<point x="306" y="-13" type="curve" smooth="yes"/>
			<point x="410" y="-13"/>
			<point x="472" y="61"/>
			<point x="493" y="185" type="curve"/>
			<point x="506" y="185" type="line"/>
			<point x="486" y="230" type="line"/>
			<point x="461" y="93"/>
			<point x="404" y="20"/>
			<point x="312" y="20" type="curve" smooth="yes"/>
			<point x="202" y="20"/>
			<point x="148" y="110"/>
		</contour>
	</outline>
</glyph>
<glyph name="ordmasculine" format="2">
	<advance width="435"/>
	<unicode hex="00BA"/>
	<outline>
		<contour>
			<point x="217" y="630" type="curve" smooth="yes"/>
			<point x="312" y="630"/>
			<point x="359" y="693"/>
			<point x="359" y="811" type="curve"/>
			<point x="359" y="1112" type="line"/>
			<point x="359" y="1230"/>
			<point x="312" y="1292"/>
			<point x="217" y="1292" type="curve" smooth="yes"/>
			<point x="123" y="1292"/>
			<point x="76" y="1230"/>
			<point x="76" y="1112" type="curve"/>
			<point x="76" y="811" type="line"/>
			<point x="76" y="692"/>
			<point x="123" y="630"/>
		</contour>
		<contour>
			<point x="217" y="662" type="curve" smooth="yes"/>
			<point x="145" y="662"/>
			<point x="112" y="714"/>
			<point x="112" y="809" type="curve" smooth="yes"/>
			<point x="112" y="1113" type="line" smooth="yes"/>
			<point x="112" y="1209"/>
			<point x="145" y="1260"/>
			<point x="217" y="1260" type="curve" smooth="yes"/>
			<point x="289" y="1260"/>
			<point x="322" y="1210"/>
			<point x="322" y="1113" type="curve" smooth="yes"/>
			<point x="322" y="809" type="line" smooth="yes"/>
			<point x="322" y="713"/>
			<point x="289" y="662"/>
		</contour>
	</outline>
</glyph>
<glyph name="guillemetright" format="2">
	<advance width="640"/>
	<unicode hex="00BB"/>
	<outline>
		<contour>
			<point x="247" y="494" type="line"/>
			<point x="79" y="111" type="line"/>
			<point x="114" y="111" type="line"/>
			<point x="279" y="480" type="line"/>
			<point x="279" y="508" type="line"/>
			<point x="114" y="877" type="line"/>
			<point x="79" y="877" type="line"/>
		</contour>
		<contour>
			<point x="521" y="494" type="line"/>
			<point x="353" y="111" type="line"/>
			<point x="388" y="111" type="line"/>
			<point x="553" y="480" type="line"/>
			<point x="553" y="508" type="line"/>
			<point x="388" y="877" type="line"/>
			<point x="353" y="877" type="line"/>
		</contour>
	</outline>
</glyph>
<glyph name="AE" format="2">
  <advance width="889"/>
  <unicode hex="00C6"/>
  <anchor x="445" y="0" name="bottom"/>
  <anchor x="445" y="1278" name="top"/>
  <outline>
    <contour>
      <point x="58" y="0" type="line"/>
      <point x="98" y="0" type="line"/>
      <point x="415" y="1245" type="line"/>
      <point x="470" y="1245" type="line"/>
      <point x="470" y="1278" type="line"/>
      <point x="386" y="1278" type="line"/>
    </contour>
    <contour>
      <point x="198" y="452" type="line"/>
      <point x="484" y="452" type="line"/>
      <point x="484" y="485" type="line"/>
      <point x="198" y="485" type="line"/>
    </contour>
    <contour>
      <point x="472" y="0" type="line"/>
      <point x="823" y="0" type="line"/>
      <point x="823" y="35" type="line"/>
      <point x="472" y="35" type="line"/>
    </contour>
    <contour>
      <point x="468" y="0" type="line"/>
      <point x="507" y="0" type="line"/>
      <point x="507" y="1278" type="line"/>
      <point x="468" y="1278" type="line"/>
    </contour>
    <contour>
      <point x="486" y="641" type="line"/>
      <point x="819" y="641" type="line"/>
      <point x="819" y="675" type="line"/>
      <point x="486" y="675" type="line"/>
    </contour>
    <contour>
      <point x="468" y="1243" type="line"/>
      <point x="823" y="1243" type="line"/>
      <point x="823" y="1278" type="line"/>
      <point x="468" y="1278" type="line"/>
    </contour>
  </outline>
</glyph>
<glyph name="Eth" format="2">
	<advance width="665"/>
	<unicode hex="00D0"/>
	<outline>
		<contour>
			<point x="22" y="647" type="line"/>
			<point x="354" y="647" type="line"/>
			<point x="354" y="681" type="line"/>
			<point x="22" y="681" type="line"/>
		</contour>
		<component base="D"/>
	</outline>
</glyph>
<glyph name="multiply" format="2">
	<advance width="593"/>
	<unicode hex="00D7"/>
	<outline>
		<contour>
			<point x="519" y="387" type="line"/>
			<point x="111" y="906" type="line"/>
			<point x="84" y="887" type="line"/>
			<point x="491" y="367" type="line"/>
		</contour>
		<contour>
			<point x="74" y="387" type="line"/>
			<point x="102" y="367" type="line"/>
			<point x="509" y="887" type="line"/>
			<point x="482" y="906" type="line"/>
		</contour>
	</outline>
</glyph>
<glyph name="Oslash" format="2">
  <advance width="664"/>
  <unicode hex="00D8"/>
  <anchor x="332" y="0" name="bottom"/>
  <anchor x="332" y="639" name="center"/>
  <anchor x="598" y="10" name="ogonek"/>
  <anchor x="332" y="1278" name="top"/>
  <anchor x="20" y="1278" name="topleft"/>
  <anchor x="644" y="1278" name="topright"/>
  <outline>
    <contour>
      <point x="332" y="-15" type="curve" smooth="yes"/>
      <point x="485" y="-15"/>
      <point x="564" y="89"/>
      <point x="564" y="291" type="curve"/>
      <point x="564" y="985" type="line"/>
      <point x="564" y="1186"/>
      <point x="484" y="1293"/>
      <point x="332" y="1293" type="curve" smooth="yes"/>
      <point x="178" y="1293"/>
      <point x="100" y="1187"/>
      <point x="100" y="985" type="curve"/>
      <point x="100" y="291" type="line"/>
      <point x="100" y="90"/>
      <point x="179" y="-15"/>
    </contour>
    <contour>
      <point x="150" y="-85" type="line"/>
      <point x="186" y="-85" type="line"/>
      <point x="212" y="28" type="line"/>
      <point x="216" y="44" type="line"/>
      <point x="478" y="1204" type="line"/>
      <point x="483" y="1226" type="line"/>
      <point x="514" y="1362" type="line"/>
      <point x="478" y="1362" type="line"/>
      <point x="451" y="1245" type="line"/>
      <point x="447" y="1229" type="line"/>
      <point x="187" y="79" type="line"/>
      <point x="181" y="52" type="line"/>
    </contour>
    <contour>
      <point x="332" y="21" type="curve" smooth="yes"/>
      <point x="202" y="21"/>
      <point x="139" y="117"/>
      <point x="139" y="290" type="curve" smooth="yes"/>
      <point x="139" y="987" type="line" smooth="yes"/>
      <point x="139" y="1162"/>
      <point x="201" y="1257"/>
      <point x="332" y="1257" type="curve" smooth="yes"/>
      <point x="462" y="1257"/>
      <point x="525" y="1161"/>
      <point x="525" y="987" type="curve" smooth="yes"/>
      <point x="525" y="290" type="line" smooth="yes"/>
      <point x="525" y="116"/>
      <point x="463" y="21"/>
    </contour>
  </outline>
</glyph>
<glyph name="germandbls" format="2">
	<advance width="683"/>
	<unicode hex="00DF"/>
	<anchor x="324" y="990" name="top"/>
	<anchor x="324" y="0" name="bottom"/>
	<outline>
		<contour>
			<point x="110" y="1096" type="curve" smooth="yes"/>
			<point x="110" y="0" type="line"/>
			<point x="147" y="0" type="line"/>
			<point x="147" y="1095" type="line" smooth="yes"/>
			<point x="147" y="1237"/>
			<point x="195" y="1316"/>
			<point x="340" y="1316" type="curve" smooth="yes"/>
			<point x="491" y="1316"/>
			<point x="527" y="1232"/>
			<point x="527" y="1145" type="curve" smooth="yes"/>
			<point x="527" y="977"/>
			<point x="306" y="903"/>
			<point x="306" y="702" type="curve" smooth="yes"/>
			<point x="306" y="694" type="line" smooth="yes"/>
			<point x="306" y="587"/>
			<point x="343" y="536"/>
			<point x="453" y="471" type="curve" smooth="yes"/>
			<point x="573" y="400"/>
			<point x="574" y="326"/>
			<point x="574" y="237" type="curve" smooth="yes"/>
			<point x="574" y="194" type="line" smooth="yes"/>
			<point x="574" y="84"/>
			<point x="526" y="22"/>
			<point x="434" y="22" type="curve" smooth="yes"/>
			<point x="384" y="22"/>
			<point x="342" y="41"/>
			<point x="299" y="72" type="curve"/>
			<point x="304" y="28" type="line"/>
			<point x="331" y="8"/>
			<point x="378" y="-13"/>
			<point x="433" y="-13" type="curve" smooth="yes"/>
			<point x="546" y="-13"/>
			<point x="611" y="62"/>
			<point x="611" y="194" type="curve" smooth="yes"/>
			<point x="611" y="239" type="line" smooth="yes"/>
			<point x="611" y="365"/>
			<point x="584" y="435"/>
			<point x="469" y="504" type="curve" smooth="yes"/>
			<point x="372" y="562"/>
			<point x="342" y="603"/>
			<point x="342" y="693" type="curve" smooth="yes"/>
			<point x="342" y="702" type="line" smooth="yes"/>
			<point x="342" y="886"/>
			<point x="564" y="966"/>
			<point x="564" y="1145" type="curve" smooth="yes"/>
			<point x="564" y="1256"/>
			<point x="508" y="1349"/>
			<point x="340" y="1349" type="curve" smooth="yes"/>
			<point x="179" y="1349"/>
			<point x="110" y="1261"/>
		</contour>
	</outline>
</glyph>
<glyph name="ae" format="2">
  <advance width="878"/>
  <unicode hex="00E6"/>
  <anchor x="439" y="0" name="bottom"/>
  <anchor x="439" y="990" name="top"/>
  <outline>
    <contour>
      <point x="628" y="-13" type="curve" smooth="yes"/>
      <point x="699" y="-13"/>
      <point x="756" y="16"/>
      <point x="794" y="49" type="curve"/>
      <point x="799" y="93" type="line"/>
      <point x="752" y="53"/>
      <point x="697" y="22"/>
      <point x="630" y="22" type="curve" smooth="yes"/>
      <point x="517" y="22"/>
      <point x="451" y="99"/>
      <point x="451" y="252" type="curve" smooth="yes"/>
      <point x="451" y="469" type="line"/>
      <point x="451" y="480" type="line"/>
      <point x="451" y="749" type="line" smooth="yes"/>
      <point x="451" y="892"/>
      <point x="503" y="970"/>
      <point x="611" y="970" type="curve" smooth="yes"/>
      <point x="720" y="970"/>
      <point x="771" y="892"/>
      <point x="771" y="749" type="curve" smooth="yes"/>
      <point x="771" y="650"/>
      <point x="771" y="565"/>
      <point x="771" y="460" type="curve"/>
      <point x="804" y="460" type="line"/>
      <point x="808" y="517"/>
      <point x="808" y="559"/>
      <point x="808" y="609" type="curve" smooth="yes"/>
      <point x="808" y="749" type="line" smooth="yes"/>
      <point x="808" y="914"/>
      <point x="742" y="1003"/>
      <point x="612" y="1003" type="curve" smooth="yes"/>
      <point x="513" y="1003"/>
      <point x="451" y="946"/>
      <point x="430" y="841" type="curve"/>
      <point x="436" y="841" type="line"/>
      <point x="417" y="948"/>
      <point x="361" y="1003"/>
      <point x="263" y="1003" type="curve" smooth="yes"/>
      <point x="189" y="1003"/>
      <point x="124" y="969"/>
      <point x="78" y="930" type="curve"/>
      <point x="73" y="887" type="line"/>
      <point x="130" y="935"/>
      <point x="196" y="968"/>
      <point x="263" y="968" type="curve" smooth="yes"/>
      <point x="367" y="968"/>
      <point x="414" y="897"/>
      <point x="414" y="754" type="curve" smooth="yes"/>
      <point x="414" y="595" type="line"/>
      <point x="414" y="488"/>
      <point x="414" y="381"/>
      <point x="414" y="274" type="curve"/>
      <point x="414" y="251" type="line"/>
      <point x="414" y="80"/>
      <point x="491" y="-13"/>
    </contour>
    <contour>
      <point x="243" y="-13" type="curve" smooth="yes"/>
      <point x="354" y="-13"/>
      <point x="406" y="70"/>
      <point x="426" y="179" type="curve"/>
      <point x="436" y="179" type="line"/>
      <point x="416" y="225" type="line"/>
      <point x="396" y="105"/>
      <point x="346" y="20"/>
      <point x="248" y="20" type="curve" smooth="yes"/>
      <point x="142" y="20"/>
      <point x="101" y="96"/>
      <point x="101" y="231" type="curve" smooth="yes"/>
      <point x="101" y="305" type="line" smooth="yes"/>
      <point x="101" y="418"/>
      <point x="138" y="475"/>
      <point x="255" y="515" type="curve" smooth="yes"/>
      <point x="433" y="576" type="line"/>
      <point x="430" y="611" type="line"/>
      <point x="246" y="546" type="line" smooth="yes"/>
      <point x="104" y="496"/>
      <point x="64" y="427"/>
      <point x="64" y="305" type="curve" smooth="yes"/>
      <point x="64" y="229" type="line" smooth="yes"/>
      <point x="64" y="72"/>
      <point x="119" y="-13"/>
    </contour>
    <contour>
      <point x="431" y="460" type="line"/>
      <point x="790" y="460" type="line"/>
      <point x="790" y="493" type="line"/>
      <point x="431" y="493" type="line"/>
    </contour>
  </outline>
</glyph>
<glyph name="eth" format="2">
	<advance width="585"/>
	<unicode hex="00F0"/>
	<outline>
		<contour>
			<point x="292" y="-13" type="curve" smooth="yes"/>
			<point x="428" y="-13"/>
			<point x="496" y="77"/>
			<point x="496" y="246" type="curve" smooth="yes"/>
			<point x="496" y="689" type="line" smooth="yes"/>
			<point x="496" y="924"/>
			<point x="421" y="1044"/>
			<point x="195" y="1334" type="curve"/>
			<point x="152" y="1334" type="line"/>
			<point x="152" y="1334" type="line"/>
			<point x="377" y="1051"/>
			<point x="439" y="941"/>
			<point x="457" y="767" type="curve"/>
			<point x="457" y="756"/>
			<point x="458" y="744"/>
			<point x="458" y="733" type="curve"/>
			<point x="458" y="570"/>
			<point x="458" y="406"/>
			<point x="458" y="243" type="curve" smooth="yes"/>
			<point x="458" y="99"/>
			<point x="403" y="20"/>
			<point x="292" y="20" type="curve" smooth="yes"/>
			<point x="180" y="20"/>
			<point x="126" y="99"/>
			<point x="126" y="243" type="curve"/>
			<point x="126" y="650" type="line"/>
			<point x="126" y="805"/>
			<point x="176" y="890"/>
			<point x="282" y="890" type="curve" smooth="yes"/>
			<point x="393" y="890"/>
			<point x="452" y="801"/>
			<point x="458" y="664" type="curve"/>
			<point x="480" y="686" type="line"/>
			<point x="467" y="702" type="line"/>
			<point x="463" y="825"/>
			<point x="404" y="923"/>
			<point x="282" y="923" type="curve" smooth="yes"/>
			<point x="150" y="923"/>
			<point x="89" y="827"/>
			<point x="89" y="650" type="curve"/>
			<point x="89" y="246" type="line"/>
			<point x="89" y="77"/>
			<point x="156" y="-13"/>
		</contour>
		<contour>
			<point x="140" y="1031" type="line"/>
			<point x="481" y="1213" type="line"/>
			<point x="481" y="1251" type="line"/>
			<point x="140" y="1068" type="line"/>
		</contour>
	</outline>
</glyph>
<glyph name="oslash" format="2">
  <advance width="598"/>
  <unicode hex="00F8"/>
  <anchor x="299" y="0" name="bottom"/>
  <anchor x="299" y="495" name="center"/>
  <anchor x="538" y="10" name="ogonek"/>
  <anchor x="299" y="990" name="top"/>
  <anchor x="578" y="990" name="topright"/>
  <outline>
    <contour>
      <point x="299" y="-13" type="curve" smooth="yes"/>
      <point x="439" y="-13"/>
      <point x="509" y="79"/>
      <point x="509" y="254" type="curve"/>
      <point x="509" y="736" type="line"/>
      <point x="509" y="911"/>
      <point x="439" y="1003"/>
      <point x="299" y="1003" type="curve" smooth="yes"/>
      <point x="159" y="1003"/>
      <point x="89" y="911"/>
      <point x="89" y="736" type="curve"/>
      <point x="89" y="254" type="line"/>
      <point x="89" y="79"/>
      <point x="159" y="-13"/>
    </contour>
    <contour>
      <point x="143" y="-85" type="line"/>
      <point x="178" y="-85" type="line"/>
      <point x="202" y="14" type="line"/>
      <point x="207" y="34" type="line"/>
      <point x="421" y="933" type="line"/>
      <point x="424" y="947" type="line"/>
      <point x="455" y="1075" type="line"/>
      <point x="420" y="1075" type="line"/>
      <point x="397" y="976" type="line"/>
      <point x="392" y="957" type="line"/>
      <point x="176" y="53" type="line"/>
      <point x="172" y="37" type="line"/>
    </contour>
    <contour>
      <point x="299" y="20" type="curve" smooth="yes"/>
      <point x="181" y="20"/>
      <point x="126" y="101"/>
      <point x="126" y="254" type="curve" smooth="yes"/>
      <point x="126" y="736" type="line" smooth="yes"/>
      <point x="126" y="889"/>
      <point x="181" y="970"/>
      <point x="299" y="970" type="curve" smooth="yes"/>
      <point x="417" y="970"/>
      <point x="472" y="889"/>
      <point x="472" y="736" type="curve" smooth="yes"/>
      <point x="472" y="254" type="line" smooth="yes"/>
      <point x="472" y="101"/>
      <point x="417" y="20"/>
    </contour>
  </outline>
</glyph>
<glyph name="thorn" format="2">
	<advance width="617"/>
	<unicode hex="00FE"/>
	<anchor x="309" y="990" name="top"/>
	<anchor x="309" y="0" name="bottom"/>
	<outline>
		<contour>
			<point x="326" y="-13" type="curve" smooth="yes"/>
			<point x="464" y="-13"/>
			<point x="528" y="83"/>
			<point x="528" y="259" type="curve" smooth="yes"/>
			<point x="528" y="738" type="line" smooth="yes"/>
			<point x="528" y="911"/>
			<point x="465" y="1003"/>
			<point x="333" y="1003" type="curve" smooth="yes"/>
			<point x="214" y="1003"/>
			<point x="156" y="918"/>
			<point x="136" y="808" type="curve"/>
			<point x="123" y="808" type="line"/>
			<point x="143" y="762" type="line"/>
			<point x="166" y="883"/>
			<point x="219" y="970"/>
			<point x="327" y="970" type="curve" smooth="yes"/>
			<point x="443" y="970"/>
			<point x="491" y="887"/>
			<point x="491" y="736" type="curve" smooth="yes"/>
			<point x="491" y="259" type="line" smooth="yes"/>
			<point x="491" y="105"/>
			<point x="438" y="20"/>
			<point x="326" y="20" type="curve" smooth="yes"/>
			<point x="212" y="20"/>
			<point x="151" y="109"/>
			<point x="145" y="247" type="curve"/>
			<point x="118" y="208" type="line"/>
			<point x="134" y="208" type="line"/>
			<point x="138" y="85"/>
			<point x="201" y="-13"/>
		</contour>
		<contour>
			<point x="110" y="-350" type="line"/>
			<point x="147" y="-350" type="line"/>
			<point x="147" y="-17" type="line"/>
			<point x="143" y="167" type="line"/>
			<point x="145" y="180" type="line"/>
			<point x="145" y="806" type="line"/>
			<point x="143" y="815" type="line"/>
			<point x="147" y="1025" type="line"/>
			<point x="147" y="1334" type="line"/>
			<point x="110" y="1334" type="line"/>
		</contour>
	</outline>
</glyph>
<glyph name="idotless" format="2">
	<advance width="269"/>
	<unicode hex="0131"/>
	<anchor x="200" y="0" name="ogonek"/>
	<anchor x="135" y="0" name="bottom"/>
	<anchor x="135" y="990" name="top"/>
	<outline>
		<contour>
			<point x="116" y="0" type="line"/>
			<point x="153" y="0" type="line"/>
			<point x="153" y="990" type="line"/>
			<point x="116" y="990" type="line"/>
		</contour>
	</outline>
</glyph>
<glyph name="gravecomb" format="2">
	<advance width="0"/>
	<unicode hex="0300"/>
	<anchor x="-182" y="1268" name="top"/>
	<anchor x="-116" y="990" name="_top"/>
	<outline>
		<contour>
			<point x="-222" y="1331" type="line"/>
			<point x="-264" y="1331" type="line"/>
			<point x="-264" y="1331" type="line"/>
			<point x="-133" y="1108" type="line"/>
			<point x="-100" y="1108" type="line"/>
			<point x="-100" y="1108" type="line"/>
		</contour>
	</outline>
</glyph>
<glyph name="acutecomb" format="2">
	<advance width="0"/>
	<unicode hex="0301"/>
	<anchor x="-238" y="1268" name="top"/>
	<anchor x="-248" y="990" name="_top"/>
	<outline>
		<contour>
			<point x="-142" y="1331" type="line"/>
			<point x="-264" y="1108" type="line"/>
			<point x="-264" y="1108" type="line"/>
			<point x="-231" y="1108" type="line"/>
			<point x="-100" y="1331" type="line"/>
			<point x="-100" y="1331" type="line"/>
		</contour>
	</outline>
</glyph>
<glyph name="tildecomb" format="2">
	<advance width="0"/>
	<unicode hex="0303"/>
	<anchor x="-270" y="1268" name="top"/>
	<anchor x="-271" y="990" name="_top"/>
	<outline>
		<contour>
			<point x="-177" y="1155" type="curve" smooth="yes"/>
			<point x="-122" y="1155"/>
			<point x="-101" y="1187"/>
			<point x="-101" y="1247" type="curve" smooth="yes"/>
			<point x="-101" y="1278" type="line"/>
			<point x="-133" y="1278" type="line"/>
			<point x="-133" y="1251" type="line"/>
			<point x="-133" y="1204"/>
			<point x="-143" y="1186"/>
			<point x="-177" y="1186" type="curve" smooth="yes"/>
			<point x="-229" y="1186"/>
			<point x="-280" y="1271"/>
			<point x="-346" y="1271" type="curve" smooth="yes"/>
			<point x="-401" y="1271"/>
			<point x="-422" y="1238"/>
			<point x="-422" y="1179" type="curve" smooth="yes"/>
			<point x="-422" y="1147" type="line"/>
			<point x="-391" y="1147" type="line"/>
			<point x="-391" y="1175" type="line"/>
			<point x="-391" y="1221"/>
			<point x="-380" y="1240"/>
			<point x="-346" y="1240" type="curve" smooth="yes"/>
			<point x="-294" y="1240"/>
			<point x="-245" y="1155"/>
		</contour>
	</outline>
</glyph>
<glyph name="macroncomb" format="2">
	<advance width="0"/>
	<unicode hex="0304"/>
	<anchor x="-266" y="1258" name="top"/>
	<anchor x="-267" y="990" name="_top"/>
	<outline>
		<contour>
			<point x="-425" y="1198" type="line"/>
			<point x="-108" y="1198" type="line"/>
			<point x="-108" y="1229" type="line"/>
			<point x="-425" y="1229" type="line"/>
		</contour>
	</outline>
</glyph>
<glyph name="dotaccentcomb" format="2">
  <unicode hex="0307"/>
  <anchor x="130" y="990" name="_top"/>
  <anchor x="130" y="1268" name="top"/>
  <outline>
    <contour>
      <point x="129" y="1171" type="curve" smooth="yes"/>
      <point x="151" y="1171"/>
      <point x="159" y="1190"/>
      <point x="159" y="1230" type="curve" smooth="yes"/>
      <point x="159" y="1238" type="line" smooth="yes"/>
      <point x="159" y="1278"/>
      <point x="151" y="1296"/>
      <point x="129" y="1296" type="curve" smooth="yes"/>
      <point x="107" y="1296"/>
      <point x="100" y="1278"/>
      <point x="100" y="1238" type="curve" smooth="yes"/>
      <point x="100" y="1230" type="line" smooth="yes"/>
      <point x="100" y="1190"/>
      <point x="107" y="1171"/>
    </contour>
  </outline>
</glyph>
<glyph name="ringcomb" format="2">
	<advance width="0"/>
	<unicode hex="030A"/>
	<anchor x="-225" y="1323" name="top"/>
	<anchor x="-228" y="990" name="_top"/>
	<outline>
		<contour>
			<point x="-356" y="1226" type="curve" smooth="yes"/>
			<point x="-356" y="1224" type="line"/>
			<point x="-356" y="1147"/>
			<point x="-305" y="1099"/>
			<point x="-228" y="1099" type="curve" smooth="yes"/>
			<point x="-151" y="1099"/>
			<point x="-100" y="1147"/>
			<point x="-100" y="1224" type="curve" smooth="yes"/>
			<point x="-100" y="1226" type="line" smooth="yes"/>
			<point x="-100" y="1305"/>
			<point x="-151" y="1353"/>
			<point x="-228" y="1353" type="curve" smooth="yes"/>
			<point x="-305" y="1353"/>
			<point x="-356" y="1305"/>
		</contour>
		<contour>
			<point x="-323" y="1224" type="curve" smooth="yes"/>
			<point x="-323" y="1226" type="line" smooth="yes"/>
			<point x="-323" y="1287"/>
			<point x="-288" y="1323"/>
			<point x="-228" y="1323" type="curve" smooth="yes"/>
			<point x="-168" y="1323"/>
			<point x="-133" y="1287"/>
			<point x="-133" y="1226" type="curve" smooth="yes"/>
			<point x="-133" y="1224" type="line" smooth="yes"/>
			<point x="-133" y="1165"/>
			<point x="-168" y="1129"/>
			<point x="-228" y="1129" type="curve" smooth="yes"/>
			<point x="-288" y="1129"/>
			<point x="-323" y="1165"/>
		</contour>
	</outline>
</glyph>
<glyph name="cedillacomb" format="2">
	<advance width="0"/>
	<unicode hex="0327"/>
	<anchor x="-207" y="0" name="_bottom"/>
	<anchor x="-179" y="-326" name="bottom"/>
	<outline>
		<contour>
			<point x="-192" y="4" type="line"/>
			<point x="-221" y="4" type="line"/>
			<point x="-230" y="-118" type="line"/>
			<point x="-230" y="-118"/>
			<point x="-230" y="-118"/>
			<point x="-230" y="-118" type="curve" smooth="yes"/>
			<point x="-136" y="-123"/>
			<point x="-105" y="-151"/>
			<point x="-105" y="-210" type="curve" smooth="yes"/>
			<point x="-105" y="-215" type="line" smooth="yes"/>
			<point x="-105" y="-265"/>
			<point x="-135" y="-294"/>
			<point x="-199" y="-294" type="curve" smooth="yes"/>
			<point x="-232" y="-294"/>
			<point x="-263" y="-285"/>
			<point x="-286" y="-276" type="curve"/>
			<point x="-280" y="-309" type="line"/>
			<point x="-258" y="-318"/>
			<point x="-228" y="-326"/>
			<point x="-201" y="-326" type="curve" smooth="yes"/>
			<point x="-122" y="-326"/>
			<point x="-72" y="-287"/>
			<point x="-72" y="-215" type="curve" smooth="yes"/>
			<point x="-72" y="-210" type="line" smooth="yes"/>
			<point x="-72" y="-136"/>
			<point x="-113" y="-99"/>
			<point x="-208" y="-92" type="curve" smooth="yes"/>
			<point x="-214" y="-92"/>
			<point x="-219" y="-92"/>
			<point x="-225" y="-92" type="curve"/>
			<point x="-201" y="-109" type="line"/>
		</contour>
	</outline>
</glyph>
<glyph name="Danda.bn" format="2">
	<advance width="508"/>
	<unicode hex="0964"/>
	<outline>
		<contour>
			<point x="237" y="1348" type="line"/>
			<point x="237" y="-60" type="line"/>
			<point x="271" y="-60" type="line"/>
			<point x="271" y="1348" type="line"/>
		</contour>
	</outline>
</glyph>
<glyph name="Doubledanda.bn" format="2">
	<advance width="950"/>
	<unicode hex="0965"/>
	<outline>
		<contour>
			<point x="237" y="1348" type="line"/>
			<point x="237" y="-60" type="line"/>
			<point x="271" y="-60" type="line"/>
			<point x="271" y="1348" type="line"/>
		</contour>
		<contour>
			<point x="679" y="1348" type="line"/>
			<point x="679" y="-60" type="line"/>
			<point x="713" y="-60" type="line"/>
			<point x="713" y="1348" type="line"/>
		</contour>
	</outline>
</glyph>
<glyph name="anji.bn" format="2">
	<advance width="672"/>
	<unicode hex="0980"/>
	<outline>
		<contour>
			<point x="332" y="1258" type="curve" smooth="yes"/>
			<point x="217" y="1258"/>
			<point x="151" y="1194"/>
			<point x="132" y="1040" type="curve" smooth="yes"/>
			<point x="123" y="972"/>
			<point x="96" y="718"/>
			<point x="96" y="635" type="curve" smooth="yes"/>
			<point x="96" y="502"/>
			<point x="168" y="406"/>
			<point x="294" y="406" type="curve" smooth="yes"/>
			<point x="350" y="406" type="line"/>
			<point x="354" y="438" type="line"/>
			<point x="294" y="438" type="line" smooth="yes"/>
			<point x="187" y="438"/>
			<point x="130" y="524"/>
			<point x="130" y="635" type="curve" smooth="yes"/>
			<point x="130" y="707"/>
			<point x="153" y="946"/>
			<point x="166" y="1043" type="curve" smooth="yes"/>
			<point x="181" y="1165"/>
			<point x="233" y="1227"/>
			<point x="332" y="1227" type="curve" smooth="yes"/>
			<point x="428" y="1227"/>
			<point x="481" y="1161"/>
			<point x="481" y="1020" type="curve" smooth="yes"/>
			<point x="481" y="218" type="line"/>
			<point x="515" y="218" type="line"/>
			<point x="515" y="1020" type="line" smooth="yes"/>
			<point x="515" y="1176"/>
			<point x="454" y="1258"/>
		</contour>
		<contour>
			<point x="515" y="118" type="curve" smooth="yes"/>
			<point x="515" y="347" type="line"/>
			<point x="481" y="347" type="line"/>
			<point x="481" y="118" type="line" smooth="yes"/>
			<point x="481" y="24"/>
			<point x="525" y="-32"/>
			<point x="602" y="-32" type="curve" smooth="yes"/>
			<point x="619" y="-32" type="line"/>
			<point x="615" y="-2" type="line"/>
			<point x="602" y="-2" type="line" smooth="yes"/>
			<point x="545" y="-2"/>
			<point x="515" y="41"/>
		</contour>
	</outline>
</glyph>
<glyph name="Candrabindu.bn" format="2">
	<advance width="0"/>
	<unicode hex="0981"/>
	<guideline x="331" y="684" angle="0"/>
	<anchor x="-89" y="1672" name="_top2"/>
	<outline>
		<contour>
			<point x="235" y="1655" type="curve"/>
			<point x="205" y="1655" type="line"/>
			<point x="205" y="1605" type="line" smooth="yes"/>
			<point x="205" y="1478"/>
			<point x="160" y="1425"/>
			<point x="69" y="1425" type="curve" smooth="yes"/>
			<point x="-22" y="1425"/>
			<point x="-67" y="1478"/>
			<point x="-67" y="1605" type="curve" smooth="yes"/>
			<point x="-67" y="1655" type="line"/>
			<point x="-97" y="1655" type="line"/>
			<point x="-97" y="1633"/>
			<point x="-97" y="1618"/>
			<point x="-97" y="1603" type="curve" smooth="yes"/>
			<point x="-97" y="1462"/>
			<point x="-42" y="1393"/>
			<point x="69" y="1393" type="curve" smooth="yes"/>
			<point x="180" y="1393"/>
			<point x="235" y="1462"/>
			<point x="235" y="1603" type="curve" smooth="yes"/>
			<point x="235" y="1618"/>
			<point x="235" y="1633"/>
		</contour>
		<contour>
			<point x="69" y="1593" type="curve" smooth="yes"/>
			<point x="88" y="1593"/>
			<point x="94" y="1610"/>
			<point x="94" y="1649" type="curve" smooth="yes"/>
			<point x="94" y="1662" type="line" smooth="yes"/>
			<point x="94" y="1702"/>
			<point x="88" y="1719"/>
			<point x="69" y="1719" type="curve" smooth="yes"/>
			<point x="50" y="1719"/>
			<point x="44" y="1702"/>
			<point x="44" y="1662" type="curve" smooth="yes"/>
			<point x="44" y="1649" type="line" smooth="yes"/>
			<point x="44" y="1610"/>
			<point x="50" y="1593"/>
		</contour>
	</outline>
</glyph>
<glyph name="Anuswara.bn" format="2">
	<advance width="567"/>
	<unicode hex="0982"/>
	<outline>
		<contour>
			<point x="491" y="-18" type="line"/>
			<point x="498" y="24" type="line"/>
			<point x="120" y="487" type="line"/>
			<point x="113" y="445" type="line"/>
		</contour>
		<contour>
			<point x="276" y="617" type="curve" smooth="yes"/>
			<point x="375" y="617"/>
			<point x="430" y="678"/>
			<point x="430" y="808" type="curve" smooth="yes"/>
			<point x="430" y="1065" type="line" smooth="yes"/>
			<point x="430" y="1196"/>
			<point x="374" y="1258"/>
			<point x="274" y="1258" type="curve" smooth="yes"/>
			<point x="177" y="1258"/>
			<point x="120" y="1196"/>
			<point x="120" y="1065" type="curve" smooth="yes"/>
			<point x="120" y="808" type="line" smooth="yes"/>
			<point x="120" y="678"/>
			<point x="174" y="617"/>
		</contour>
		<contour>
			<point x="275" y="648" type="curve" smooth="yes"/>
			<point x="200" y="648"/>
			<point x="153" y="698"/>
			<point x="153" y="807" type="curve" smooth="yes"/>
			<point x="153" y="1067" type="line" smooth="yes"/>
			<point x="153" y="1178"/>
			<point x="201" y="1228"/>
			<point x="275" y="1228" type="curve" smooth="yes"/>
			<point x="353" y="1228"/>
			<point x="398" y="1178"/>
			<point x="398" y="1067" type="curve" smooth="yes"/>
			<point x="398" y="807" type="line" smooth="yes"/>
			<point x="398" y="698"/>
			<point x="352" y="648"/>
		</contour>
	</outline>
</glyph>
<glyph name="Visarga.bn" format="2">
	<advance width="536"/>
	<unicode hex="0983"/>
	<outline>
		<contour>
			<point x="269" y="677" type="curve" smooth="yes"/>
			<point x="368" y="677"/>
			<point x="423" y="738"/>
			<point x="423" y="868" type="curve" smooth="yes"/>
			<point x="423" y="1065" type="line" smooth="yes"/>
			<point x="423" y="1196"/>
			<point x="367" y="1258"/>
			<point x="267" y="1258" type="curve" smooth="yes"/>
			<point x="170" y="1258"/>
			<point x="113" y="1196"/>
			<point x="113" y="1065" type="curve" smooth="yes"/>
			<point x="113" y="868" type="line" smooth="yes"/>
			<point x="113" y="738"/>
			<point x="167" y="677"/>
		</contour>
		<contour>
			<point x="268" y="708" type="curve" smooth="yes"/>
			<point x="193" y="708"/>
			<point x="146" y="758"/>
			<point x="146" y="867" type="curve" smooth="yes"/>
			<point x="146" y="1067" type="line" smooth="yes"/>
			<point x="146" y="1178"/>
			<point x="194" y="1228"/>
			<point x="268" y="1228" type="curve" smooth="yes"/>
			<point x="346" y="1228"/>
			<point x="391" y="1178"/>
			<point x="391" y="1067" type="curve" smooth="yes"/>
			<point x="391" y="867" type="line" smooth="yes"/>
			<point x="391" y="758"/>
			<point x="345" y="708"/>
		</contour>
		<contour>
			<point x="269" y="-17" type="curve" smooth="yes"/>
			<point x="368" y="-17"/>
			<point x="423" y="44"/>
			<point x="423" y="174" type="curve" smooth="yes"/>
			<point x="423" y="371" type="line" smooth="yes"/>
			<point x="423" y="502"/>
			<point x="367" y="564"/>
			<point x="267" y="564" type="curve" smooth="yes"/>
			<point x="170" y="564"/>
			<point x="113" y="502"/>
			<point x="113" y="371" type="curve" smooth="yes"/>
			<point x="113" y="174" type="line" smooth="yes"/>
			<point x="113" y="44"/>
			<point x="167" y="-17"/>
		</contour>
		<contour>
			<point x="268" y="14" type="curve" smooth="yes"/>
			<point x="193" y="14"/>
			<point x="146" y="64"/>
			<point x="146" y="173" type="curve" smooth="yes"/>
			<point x="146" y="373" type="line" smooth="yes"/>
			<point x="146" y="484"/>
			<point x="194" y="534"/>
			<point x="268" y="534" type="curve" smooth="yes"/>
			<point x="346" y="534"/>
			<point x="391" y="484"/>
			<point x="391" y="373" type="curve" smooth="yes"/>
			<point x="391" y="173" type="line" smooth="yes"/>
			<point x="391" y="64"/>
			<point x="345" y="14"/>
		</contour>
	</outline>
</glyph>
<glyph name="VowelA.bn" format="2">
	<advance width="1147"/>
	<unicode hex="0985"/>
	<anchor x="962" y="1433" name="top"/>
	<anchor x="821" y="1662" name="top2"/>
	<note>
		VowelA.bn
	</note>
	<outline>
		<contour>
			<point x="425" y="235" type="curve" smooth="yes"/>
			<point x="598" y="235"/>
			<point x="695" y="349"/>
			<point x="695" y="559" type="curve" smooth="yes"/>
			<point x="695" y="838" type="line" smooth="yes"/>
			<point x="695" y="976"/>
			<point x="644" y="1051"/>
			<point x="536" y="1051" type="curve" smooth="yes"/>
			<point x="435" y="1051"/>
			<point x="383" y="981"/>
			<point x="383" y="844" type="curve" smooth="yes"/>
			<point x="383" y="771"/>
			<point x="383" y="699"/>
			<point x="383" y="626" type="curve"/>
			<point x="417" y="626" type="line"/>
			<point x="417" y="699"/>
			<point x="417" y="771"/>
			<point x="417" y="844" type="curve" smooth="yes"/>
			<point x="417" y="957"/>
			<point x="453" y="1019"/>
			<point x="538" y="1019" type="curve" smooth="yes"/>
			<point x="628" y="1019"/>
			<point x="661" y="955"/>
			<point x="661" y="838" type="curve" smooth="yes"/>
			<point x="661" y="559" type="line" smooth="yes"/>
			<point x="661" y="367"/>
			<point x="576" y="268"/>
			<point x="425" y="268" type="curve" smooth="yes"/>
			<point x="294" y="268"/>
			<point x="192" y="356"/>
			<point x="181" y="559" type="curve" smooth="yes"/>
			<point x="157" y="991" type="line"/>
			<point x="123" y="991" type="line"/>
			<point x="148" y="559" type="line" smooth="yes"/>
			<point x="160" y="349"/>
			<point x="264" y="235"/>
		</contour>
		<contour>
			<point x="965" y="0" type="line"/>
			<point x="995" y="0" type="line"/>
			<point x="995" y="1228" type="line"/>
			<point x="961" y="1228" type="line"/>
			<point x="961" y="124" type="line"/>
			<point x="963" y="26" type="line"/>
			<point x="984" y="39" type="line"/>
			<point x="969" y="39" type="line"/>
			<point x="656" y="373" type="line"/>
			<point x="634" y="348" type="line"/>
		</contour>
		<contour>
			<point x="-8" y="1218" type="line"/>
			<point x="986" y="1218" type="line"/>
			<point x="986" y="1248" type="line"/>
			<point x="-12" y="1248" type="line"/>
		</contour>
		<contour>
			<point x="972" y="1241" type="line"/>
			<point x="972" y="1023" type="line"/>
			<point x="995" y="1023" type="line"/>
			<point x="995" y="1241" type="line"/>
		</contour>
		<contour>
			<point x="972" y="1218" type="line"/>
			<point x="1211" y="1218" type="line"/>
			<point x="1207" y="1248" type="line"/>
			<point x="972" y="1248" type="line"/>
		</contour>
	</outline>
</glyph>
<glyph name="VowelAa.bn" format="2">
  <advance width="1487"/>
  <unicode hex="0986"/>
  <note>
VowelAa.bn
</note>
  <anchor x="1302" y="1433" name="top"/>
  <anchor x="1161" y="1662" name="top2"/>
  <outline>
    <contour>
      <point x="425" y="235" type="curve" smooth="yes"/>
      <point x="598" y="235"/>
      <point x="695" y="349"/>
      <point x="695" y="559" type="curve" smooth="yes"/>
      <point x="695" y="838" type="line" smooth="yes"/>
      <point x="695" y="976"/>
      <point x="644" y="1051"/>
      <point x="536" y="1051" type="curve" smooth="yes"/>
      <point x="435" y="1051"/>
      <point x="383" y="981"/>
      <point x="383" y="844" type="curve" smooth="yes"/>
      <point x="383" y="771"/>
      <point x="383" y="699"/>
      <point x="383" y="626" type="curve"/>
      <point x="417" y="626" type="line"/>
      <point x="417" y="699"/>
      <point x="417" y="771"/>
      <point x="417" y="844" type="curve" smooth="yes"/>
      <point x="417" y="957"/>
      <point x="453" y="1019"/>
      <point x="538" y="1019" type="curve" smooth="yes"/>
      <point x="628" y="1019"/>
      <point x="661" y="955"/>
      <point x="661" y="838" type="curve" smooth="yes"/>
      <point x="661" y="559" type="line" smooth="yes"/>
      <point x="661" y="367"/>
      <point x="576" y="268"/>
      <point x="425" y="268" type="curve" smooth="yes"/>
      <point x="294" y="268"/>
      <point x="192" y="356"/>
      <point x="181" y="559" type="curve" smooth="yes"/>
      <point x="157" y="991" type="line"/>
      <point x="123" y="991" type="line"/>
      <point x="148" y="559" type="line" smooth="yes"/>
      <point x="160" y="349"/>
      <point x="264" y="235"/>
    </contour>
    <contour>
      <point x="965" y="0" type="line"/>
      <point x="995" y="0" type="line"/>
      <point x="995" y="1228" type="line"/>
      <point x="961" y="1228" type="line"/>
      <point x="961" y="124" type="line"/>
      <point x="963" y="26" type="line"/>
      <point x="984" y="39" type="line"/>
      <point x="969" y="39" type="line"/>
      <point x="656" y="373" type="line"/>
      <point x="634" y="348" type="line"/>
    </contour>
    <contour>
      <point x="-8" y="1218" type="line"/>
      <point x="986" y="1218" type="line"/>
      <point x="986" y="1248" type="line"/>
      <point x="-12" y="1248" type="line"/>
    </contour>
    <contour>
      <point x="972" y="1241" type="line"/>
      <point x="972" y="1023" type="line"/>
      <point x="995" y="1023" type="line"/>
      <point x="995" y="1241" type="line"/>
    </contour>
    <contour>
      <point x="972" y="1218" type="line"/>
      <point x="1211" y="1218" type="line"/>
      <point x="1207" y="1248" type="line"/>
      <point x="972" y="1248" type="line"/>
    </contour>
    <contour>
      <point x="1301" y="0" type="line"/>
      <point x="1335" y="0" type="line"/>
      <point x="1335" y="1228" type="line"/>
      <point x="1301" y="1228" type="line"/>
    </contour>
    <contour>
      <point x="1087" y="1218" type="line"/>
      <point x="1333" y="1218" type="line"/>
      <point x="1333" y="1248" type="line"/>
      <point x="1083" y="1248" type="line"/>
    </contour>
    <contour>
      <point x="1312" y="1241" type="line"/>
      <point x="1312" y="1023" type="line"/>
      <point x="1335" y="1023" type="line"/>
      <point x="1335" y="1241" type="line"/>
    </contour>
    <contour>
      <point x="1312" y="1218" type="line"/>
      <point x="1551" y="1218" type="line"/>
      <point x="1547" y="1248" type="line"/>
      <point x="1312" y="1248" type="line"/>
    </contour>
  </outline>
</glyph>
<glyph name="VowelI.bn" format="2">
  <advance width="662"/>
  <unicode hex="0987"/>
  <note>
VowelI.bn
</note>
  <anchor x="382" y="260" name="bottom1"/>
  <anchor x="402" y="1497" name="top"/>
  <anchor x="327" y="1743" name="top2"/>
  <outline>
    <contour>
      <point x="572" y="-92" type="line"/>
      <point x="577" y="-53" type="line"/>
      <point x="293" y="193" type="line"/>
      <point x="191" y="277" type="line"/>
      <point x="198" y="289" type="line"/>
      <point x="153" y="294" type="line"/>
      <point x="201" y="270"/>
      <point x="250" y="259"/>
      <point x="301" y="259" type="curve" smooth="yes"/>
      <point x="447" y="259"/>
      <point x="521" y="342"/>
      <point x="521" y="506" type="curve" smooth="yes"/>
      <point x="521" y="808" type="line" smooth="yes"/>
      <point x="521" y="964"/>
      <point x="449" y="1051"/>
      <point x="324" y="1051" type="curve" smooth="yes"/>
      <point x="201" y="1051"/>
      <point x="131" y="966"/>
      <point x="131" y="808" type="curve" smooth="yes"/>
      <point x="131" y="746"/>
      <point x="131" y="658"/>
      <point x="131" y="596" type="curve"/>
      <point x="165" y="596" type="line"/>
      <point x="165" y="658"/>
      <point x="165" y="746"/>
      <point x="165" y="808" type="curve" smooth="yes"/>
      <point x="165" y="948"/>
      <point x="220" y="1019"/>
      <point x="326" y="1019" type="curve" smooth="yes"/>
      <point x="430" y="1019"/>
      <point x="487" y="948"/>
      <point x="487" y="808" type="curve" smooth="yes"/>
      <point x="487" y="506" type="line" smooth="yes"/>
      <point x="487" y="359"/>
      <point x="425" y="291"/>
      <point x="291" y="291" type="curve" smooth="yes"/>
      <point x="238" y="291"/>
      <point x="189" y="303"/>
      <point x="142" y="328" type="curve" smooth="yes"/>
      <point x="102" y="349" type="line"/>
      <point x="97" y="321" type="line"/>
    </contour>
    <contour>
      <point x="-16" y="1218" type="line"/>
      <point x="666" y="1218" type="line"/>
      <point x="662" y="1248" type="line"/>
      <point x="-20" y="1248" type="line"/>
    </contour>
    <contour>
      <point x="527" y="1244" type="line"/>
      <point x="538" y="1283"/>
      <point x="542" y="1317"/>
      <point x="542" y="1349" type="curve" smooth="yes"/>
      <point x="542" y="1458"/>
      <point x="481" y="1513"/>
      <point x="361" y="1513" type="curve" smooth="yes"/>
      <point x="260" y="1513" type="line" smooth="yes"/>
      <point x="165" y="1513"/>
      <point x="119" y="1559"/>
      <point x="119" y="1653" type="curve" smooth="yes"/>
      <point x="119" y="1681" type="line"/>
      <point x="91" y="1681" type="line"/>
      <point x="91" y="1653" type="line" smooth="yes"/>
      <point x="91" y="1541"/>
      <point x="148" y="1483"/>
      <point x="260" y="1483" type="curve" smooth="yes"/>
      <point x="361" y="1483" type="line" smooth="yes"/>
      <point x="464" y="1483"/>
      <point x="512" y="1441"/>
      <point x="512" y="1348" type="curve" smooth="yes"/>
      <point x="512" y="1304"/>
      <point x="506" y="1267"/>
      <point x="495" y="1235" type="curve"/>
      <point x="518" y="1230" type="line"/>
    </contour>
  </outline>
</glyph>
<glyph name="VowelIi.bn" format="2">
	<advance width="917"/>
	<unicode hex="0988"/>
	<anchor x="640" y="1497" name="top"/>
	<anchor x="565" y="1743" name="top2"/>
	<outline>
		<contour>
			<point x="731" y="-30" type="line"/>
			<point x="765" y="-30" type="line"/>
			<point x="765" y="927" type="line"/>
			<point x="723" y="927" type="line"/>
			<point x="622" y="744"/>
			<point x="498" y="518"/>
			<point x="438" y="417" type="curve"/>
			<point x="440" y="384" type="line"/>
			<point x="449" y="425"/>
			<point x="455" y="470"/>
			<point x="455" y="525" type="curve" smooth="yes"/>
			<point x="455" y="838" type="line" smooth="yes"/>
			<point x="455" y="976"/>
			<point x="400" y="1051"/>
			<point x="285" y="1051" type="curve" smooth="yes"/>
			<point x="176" y="1051"/>
			<point x="120" y="981"/>
			<point x="120" y="842" type="curve" smooth="yes"/>
			<point x="120" y="766"/>
			<point x="120" y="677"/>
			<point x="120" y="596" type="curve"/>
			<point x="154" y="596" type="line"/>
			<point x="154" y="677"/>
			<point x="154" y="766"/>
			<point x="154" y="842" type="curve" smooth="yes"/>
			<point x="154" y="957"/>
			<point x="191" y="1019"/>
			<point x="287" y="1019" type="curve" smooth="yes"/>
			<point x="385" y="1019"/>
			<point x="421" y="955"/>
			<point x="421" y="838" type="curve" smooth="yes"/>
			<point x="421" y="485" type="line" smooth="yes"/>
			<point x="421" y="354"/>
			<point x="352" y="295"/>
			<point x="231" y="295" type="curve" smooth="yes"/>
			<point x="192" y="295"/>
			<point x="159" y="299"/>
			<point x="125" y="309" type="curve" smooth="yes"/>
			<point x="105" y="315" type="line"/>
			<point x="105" y="282" type="line"/>
			<point x="145" y="269"/>
			<point x="187" y="262"/>
			<point x="232" y="262" type="curve" smooth="yes"/>
			<point x="319" y="262"/>
			<point x="383" y="289"/>
			<point x="426" y="344" type="curve" smooth="yes"/>
			<point x="513" y="456"/>
			<point x="646" y="723"/>
			<point x="742" y="892" type="curve"/>
			<point x="734" y="910" type="line"/>
			<point x="731" y="717" type="line"/>
		</contour>
		<contour>
			<point x="-7" y="1218" type="line"/>
			<point x="930" y="1218" type="line"/>
			<point x="926" y="1248" type="line"/>
			<point x="-11" y="1248" type="line"/>
		</contour>
		<contour>
			<point x="765" y="1244" type="line"/>
			<point x="776" y="1283"/>
			<point x="780" y="1317"/>
			<point x="780" y="1349" type="curve" smooth="yes"/>
			<point x="780" y="1458"/>
			<point x="719" y="1513"/>
			<point x="599" y="1513" type="curve" smooth="yes"/>
			<point x="271" y="1513" type="line" smooth="yes"/>
			<point x="176" y="1513"/>
			<point x="130" y="1559"/>
			<point x="130" y="1653" type="curve" smooth="yes"/>
			<point x="130" y="1681" type="line"/>
			<point x="102" y="1681" type="line"/>
			<point x="102" y="1653" type="line" smooth="yes"/>
			<point x="102" y="1541"/>
			<point x="159" y="1483"/>
			<point x="271" y="1483" type="curve" smooth="yes"/>
			<point x="599" y="1483" type="line" smooth="yes"/>
			<point x="702" y="1483"/>
			<point x="750" y="1441"/>
			<point x="750" y="1348" type="curve" smooth="yes"/>
			<point x="750" y="1304"/>
			<point x="744" y="1267"/>
			<point x="733" y="1235" type="curve"/>
			<point x="756" y="1230" type="line"/>
		</contour>
	</outline>
</glyph>
<glyph name="VowelU.bn" format="2">
  <advance width="844"/>
  <unicode hex="0989"/>
  <note>
VowelU.bn
</note>
  <anchor x="514" y="188" name="bottom1"/>
  <anchor x="567" y="1497" name="top"/>
  <anchor x="492" y="1743" name="top2"/>
  <outline>
    <contour>
      <point x="157" y="991" type="line"/>
      <point x="123" y="991" type="line"/>
      <point x="157" y="358" type="line" smooth="yes"/>
      <point x="168" y="139"/>
      <point x="269" y="20"/>
      <point x="446" y="20" type="curve" smooth="yes"/>
      <point x="624" y="20"/>
      <point x="717" y="133"/>
      <point x="717" y="354" type="curve" smooth="yes"/>
      <point x="717" y="585"/>
      <point x="715" y="755"/>
      <point x="710" y="946" type="curve"/>
      <point x="683" y="950" type="line"/>
      <point x="670" y="813" type="line" smooth="yes"/>
      <point x="655" y="658"/>
      <point x="617" y="594"/>
      <point x="539" y="594" type="curve" smooth="yes"/>
      <point x="468" y="594"/>
      <point x="433" y="646"/>
      <point x="433" y="752" type="curve" smooth="yes"/>
      <point x="433" y="1236" type="line"/>
      <point x="399" y="1236" type="line"/>
      <point x="399" y="752" type="line" smooth="yes"/>
      <point x="399" y="625"/>
      <point x="446" y="562"/>
      <point x="543" y="562" type="curve" smooth="yes"/>
      <point x="638" y="562"/>
      <point x="688" y="647"/>
      <point x="698" y="803" type="curve" smooth="yes"/>
      <point x="705" y="914" type="line"/>
      <point x="681" y="916" type="line"/>
      <point x="682" y="751"/>
      <point x="683" y="547"/>
      <point x="683" y="354" type="curve" smooth="yes"/>
      <point x="683" y="154"/>
      <point x="599" y="53"/>
      <point x="446" y="53" type="curve" smooth="yes"/>
      <point x="288" y="53"/>
      <point x="201" y="162"/>
      <point x="191" y="362" type="curve" smooth="yes"/>
    </contour>
    <contour>
      <point x="-16" y="1218" type="line"/>
      <point x="879" y="1218" type="line"/>
      <point x="875" y="1248" type="line"/>
      <point x="-20" y="1248" type="line"/>
    </contour>
    <contour>
      <point x="692" y="1244" type="line"/>
      <point x="703" y="1283"/>
      <point x="707" y="1317"/>
      <point x="707" y="1349" type="curve" smooth="yes"/>
      <point x="707" y="1458"/>
      <point x="646" y="1513"/>
      <point x="526" y="1513" type="curve" smooth="yes"/>
      <point x="317" y="1513" type="line" smooth="yes"/>
      <point x="222" y="1513"/>
      <point x="176" y="1559"/>
      <point x="176" y="1653" type="curve" smooth="yes"/>
      <point x="176" y="1681" type="line"/>
      <point x="148" y="1681" type="line"/>
      <point x="148" y="1653" type="line" smooth="yes"/>
      <point x="148" y="1541"/>
      <point x="205" y="1483"/>
      <point x="317" y="1483" type="curve" smooth="yes"/>
      <point x="526" y="1483" type="line" smooth="yes"/>
      <point x="629" y="1483"/>
      <point x="677" y="1441"/>
      <point x="677" y="1348" type="curve" smooth="yes"/>
      <point x="677" y="1304"/>
      <point x="671" y="1267"/>
      <point x="660" y="1235" type="curve"/>
      <point x="683" y="1230" type="line"/>
    </contour>
  </outline>
</glyph>
<glyph name="VowelUu.bn" format="2">
	<advance width="918"/>
	<unicode hex="098A"/>
	<anchor x="641" y="1497" name="top"/>
	<anchor x="566" y="1743" name="top2"/>
	<outline>
		<contour>
			<point x="473" y="1235" type="line"/>
			<point x="473" y="752" type="line" smooth="yes"/>
			<point x="473" y="625"/>
			<point x="520" y="562"/>
			<point x="617" y="562" type="curve" smooth="yes"/>
			<point x="713" y="562"/>
			<point x="762" y="647"/>
			<point x="772" y="803" type="curve" smooth="yes"/>
			<point x="779" y="914" type="line"/>
			<point x="755" y="916" type="line"/>
			<point x="756" y="751"/>
			<point x="757" y="547"/>
			<point x="757" y="355" type="curve" smooth="yes"/>
			<point x="757" y="154"/>
			<point x="677" y="53"/>
			<point x="528" y="53" type="curve" smooth="yes"/>
			<point x="408" y="53"/>
			<point x="343" y="158"/>
			<point x="332" y="373" type="curve" smooth="yes"/>
			<point x="300" y="1019" type="line"/>
			<point x="266" y="1019" type="line"/>
			<point x="299" y="370" type="line" smooth="yes"/>
			<point x="308" y="200"/>
			<point x="347" y="97"/>
			<point x="449" y="46" type="curve"/>
			<point x="440" y="73" type="line"/>
			<point x="428" y="48" type="line"/>
			<point x="468" y="50" type="line"/>
			<point x="314" y="56"/>
			<point x="186" y="155"/>
			<point x="173" y="373" type="curve" smooth="yes"/>
			<point x="142" y="912" type="line"/>
			<point x="108" y="912" type="line"/>
			<point x="140" y="370" type="line" smooth="yes"/>
			<point x="153" y="146"/>
			<point x="284" y="20"/>
			<point x="521" y="20" type="curve" smooth="yes"/>
			<point x="695" y="20"/>
			<point x="791" y="133"/>
			<point x="791" y="355" type="curve" smooth="yes"/>
			<point x="791" y="585"/>
			<point x="789" y="756"/>
			<point x="784" y="946" type="curve"/>
			<point x="757" y="950" type="line"/>
			<point x="744" y="813" type="line" smooth="yes"/>
			<point x="729" y="659"/>
			<point x="691" y="594"/>
			<point x="613" y="594" type="curve" smooth="yes"/>
			<point x="542" y="594"/>
			<point x="507" y="646"/>
			<point x="507" y="752" type="curve" smooth="yes"/>
			<point x="507" y="1235" type="line"/>
		</contour>
		<contour>
			<point x="-35" y="1218" type="line"/>
			<point x="953" y="1218" type="line"/>
			<point x="949" y="1248" type="line"/>
			<point x="-39" y="1248" type="line"/>
		</contour>
		<contour>
			<point x="766" y="1244" type="line"/>
			<point x="777" y="1283"/>
			<point x="781" y="1317"/>
			<point x="781" y="1349" type="curve" smooth="yes"/>
			<point x="781" y="1458"/>
			<point x="720" y="1513"/>
			<point x="600" y="1513" type="curve" smooth="yes"/>
			<point x="344" y="1513" type="line" smooth="yes"/>
			<point x="249" y="1513"/>
			<point x="203" y="1559"/>
			<point x="203" y="1653" type="curve" smooth="yes"/>
			<point x="203" y="1681" type="line"/>
			<point x="175" y="1681" type="line"/>
			<point x="175" y="1653" type="line" smooth="yes"/>
			<point x="175" y="1541"/>
			<point x="232" y="1483"/>
			<point x="344" y="1483" type="curve" smooth="yes"/>
			<point x="600" y="1483" type="line" smooth="yes"/>
			<point x="703" y="1483"/>
			<point x="751" y="1441"/>
			<point x="751" y="1348" type="curve" smooth="yes"/>
			<point x="751" y="1304"/>
			<point x="745" y="1267"/>
			<point x="734" y="1235" type="curve"/>
			<point x="757" y="1230" type="line"/>
		</contour>
	</outline>
</glyph>
<glyph name="VowelLru.bn" format="2">
  <advance width="850"/>
  <unicode hex="098C"/>
  <anchor x="394" y="1447" name="top2"/>
  <outline>
    <contour>
      <point x="124" y="0" type="curve"/>
      <point x="158" y="0" type="line"/>
      <point x="158" y="101"/>
      <point x="158" y="203"/>
      <point x="158" y="305" type="curve" smooth="yes"/>
      <point x="158" y="470" type="line" smooth="yes"/>
      <point x="158" y="616"/>
      <point x="196" y="673"/>
      <point x="287" y="673" type="curve" smooth="yes"/>
      <point x="382" y="673"/>
      <point x="420" y="614"/>
      <point x="420" y="464" type="curve" smooth="yes"/>
      <point x="420" y="0" type="line"/>
      <point x="475" y="0" type="line" smooth="yes"/>
      <point x="625" y="0"/>
      <point x="723" y="81"/>
      <point x="723" y="235" type="curve" smooth="yes"/>
      <point x="723" y="571" type="line" smooth="yes"/>
      <point x="723" y="778"/>
      <point x="653" y="887"/>
      <point x="458" y="984" type="curve" smooth="yes"/>
      <point x="351" y="1037" type="line" smooth="yes"/>
      <point x="233" y="1096"/>
      <point x="188" y="1140"/>
      <point x="188" y="1257" type="curve" smooth="yes"/>
      <point x="188" y="1259" type="line"/>
      <point x="155" y="1259" type="line"/>
      <point x="155" y="1257" type="line" smooth="yes"/>
      <point x="155" y="1125"/>
      <point x="206" y="1072"/>
      <point x="339" y="1006" type="curve" smooth="yes"/>
      <point x="446" y="953" type="line" smooth="yes"/>
      <point x="625" y="864"/>
      <point x="689" y="764"/>
      <point x="689" y="571" type="curve" smooth="yes"/>
      <point x="689" y="235" type="line" smooth="yes"/>
      <point x="689" y="102"/>
      <point x="606" y="32"/>
      <point x="475" y="32" type="curve" smooth="yes"/>
      <point x="433" y="32" type="line"/>
      <point x="454" y="11" type="line"/>
      <point x="454" y="464" type="line" smooth="yes"/>
      <point x="454" y="634"/>
      <point x="396" y="705"/>
      <point x="285" y="705" type="curve" smooth="yes"/>
      <point x="179" y="705"/>
      <point x="124" y="638"/>
      <point x="124" y="470" type="curve" smooth="yes"/>
      <point x="124" y="308" type="line" smooth="yes"/>
      <point x="124" y="207"/>
      <point x="124" y="101"/>
    </contour>
  </outline>
</glyph>
<glyph name="VowelE.bn" format="2">
  <advance width="807"/>
  <unicode hex="098F"/>
  <anchor x="341" y="1662" name="top2"/>
  <outline>
    <contour>
      <point x="472" y="543" type="curve"/>
      <point x="476" y="575" type="line"/>
      <point x="459" y="575"/>
      <point x="440" y="575"/>
      <point x="425" y="575" type="curve" smooth="yes"/>
      <point x="350" y="575"/>
      <point x="306" y="607"/>
      <point x="306" y="714" type="curve" smooth="yes"/>
      <point x="306" y="812"/>
      <point x="316" y="917"/>
      <point x="323" y="989" type="curve" smooth="yes"/>
      <point x="340" y="1164"/>
      <point x="389" y="1226"/>
      <point x="485" y="1226" type="curve" smooth="yes"/>
      <point x="600" y="1226"/>
      <point x="626" y="1130"/>
      <point x="626" y="1017" type="curve" smooth="yes"/>
      <point x="626" y="157" type="line"/>
      <point x="630" y="27" type="line"/>
      <point x="632" y="1" type="line"/>
      <point x="660" y="1" type="line"/>
      <point x="660" y="1017" type="line" smooth="yes"/>
      <point x="660" y="1171"/>
      <point x="609" y="1258"/>
      <point x="485" y="1258" type="curve" smooth="yes"/>
      <point x="366" y="1258"/>
      <point x="306" y="1186"/>
      <point x="289" y="993" type="curve" smooth="yes"/>
      <point x="281" y="901"/>
      <point x="272" y="785"/>
      <point x="272" y="712" type="curve" smooth="yes"/>
      <point x="272" y="583"/>
      <point x="333" y="543"/>
      <point x="425" y="543" type="curve" smooth="yes"/>
      <point x="438" y="543"/>
      <point x="457" y="543"/>
    </contour>
    <contour>
      <point x="632" y="1" type="line"/>
      <point x="654" y="63" type="line"/>
      <point x="637" y="63" type="line"/>
      <point x="617" y="141"/>
      <point x="560" y="185"/>
      <point x="466" y="185" type="curve" smooth="yes"/>
      <point x="366" y="185" type="line" smooth="yes"/>
      <point x="221" y="185"/>
      <point x="145" y="269"/>
      <point x="145" y="431" type="curve" smooth="yes"/>
      <point x="145" y="579" type="line"/>
      <point x="111" y="579" type="line"/>
      <point x="111" y="539"/>
      <point x="111" y="471"/>
      <point x="111" y="431" type="curve" smooth="yes"/>
      <point x="111" y="247"/>
      <point x="202" y="152"/>
      <point x="366" y="152" type="curve" smooth="yes"/>
      <point x="466" y="152" type="line" smooth="yes"/>
      <point x="547" y="152"/>
      <point x="598" y="114"/>
      <point x="618" y="48" type="curve" smooth="yes"/>
    </contour>
  </outline>
</glyph>
<glyph name="VowelAi.bn" format="2">
	<advance width="1024"/>
	<unicode hex="0990"/>
	<anchor x="700" y="1682" name="top2"/>
	<outline>
		<contour>
			<point x="710" y="531" type="curve" smooth="yes"/>
			<point x="870" y="531"/>
			<point x="957" y="628"/>
			<point x="957" y="817" type="curve" smooth="yes"/>
			<point x="957" y="1136" type="line" smooth="yes"/>
			<point x="957" y="1305"/>
			<point x="865" y="1402"/>
			<point x="707" y="1473" type="curve" smooth="yes"/>
			<point x="560" y="1539" type="line" smooth="yes"/>
			<point x="439" y="1593"/>
			<point x="396" y="1642"/>
			<point x="396" y="1760" type="curve" smooth="yes"/>
			<point x="396" y="1762" type="line"/>
			<point x="365" y="1762" type="line"/>
			<point x="365" y="1760" type="line" smooth="yes"/>
			<point x="365" y="1629"/>
			<point x="413" y="1569"/>
			<point x="547" y="1509" type="curve" smooth="yes"/>
			<point x="703" y="1439" type="line" smooth="yes"/>
			<point x="834" y="1380"/>
			<point x="923" y="1288"/>
			<point x="923" y="1136" type="curve" smooth="yes"/>
			<point x="923" y="817" type="line" smooth="yes"/>
			<point x="923" y="645"/>
			<point x="843" y="562"/>
			<point x="697" y="562" type="curve" smooth="yes"/>
			<point x="665" y="562"/>
			<point x="633" y="562"/>
			<point x="643" y="563" type="curve"/>
			<point x="639" y="531" type="line"/>
			<point x="646" y="531" type="line"/>
			<point x="635" y="531"/>
			<point x="670" y="531"/>
		</contour>
		<contour>
			<point x="472" y="543" type="curve"/>
			<point x="476" y="575" type="line"/>
			<point x="459" y="575"/>
			<point x="440" y="575"/>
			<point x="425" y="575" type="curve" smooth="yes"/>
			<point x="350" y="575"/>
			<point x="306" y="607"/>
			<point x="306" y="714" type="curve" smooth="yes"/>
			<point x="306" y="812"/>
			<point x="316" y="917"/>
			<point x="323" y="989" type="curve" smooth="yes"/>
			<point x="340" y="1164"/>
			<point x="389" y="1226"/>
			<point x="485" y="1226" type="curve" smooth="yes"/>
			<point x="600" y="1226"/>
			<point x="626" y="1130"/>
			<point x="626" y="1017" type="curve" smooth="yes"/>
			<point x="626" y="157" type="line"/>
			<point x="630" y="27" type="line"/>
			<point x="632" y="1" type="line"/>
			<point x="660" y="1" type="line"/>
			<point x="660" y="1017" type="line" smooth="yes"/>
			<point x="660" y="1171"/>
			<point x="609" y="1258"/>
			<point x="485" y="1258" type="curve" smooth="yes"/>
			<point x="366" y="1258"/>
			<point x="306" y="1186"/>
			<point x="289" y="993" type="curve" smooth="yes"/>
			<point x="281" y="901"/>
			<point x="272" y="785"/>
			<point x="272" y="712" type="curve" smooth="yes"/>
			<point x="272" y="583"/>
			<point x="333" y="543"/>
			<point x="425" y="543" type="curve" smooth="yes"/>
			<point x="438" y="543"/>
			<point x="457" y="543"/>
		</contour>
		<contour>
			<point x="618" y="48" type="curve" smooth="yes"/>
			<point x="632" y="1" type="line"/>
			<point x="654" y="63" type="line"/>
			<point x="637" y="63" type="line"/>
			<point x="617" y="141"/>
			<point x="560" y="185"/>
			<point x="466" y="185" type="curve" smooth="yes"/>
			<point x="366" y="185" type="line" smooth="yes"/>
			<point x="221" y="185"/>
			<point x="145" y="269"/>
			<point x="145" y="431" type="curve" smooth="yes"/>
			<point x="145" y="579" type="line"/>
			<point x="111" y="579" type="line"/>
			<point x="111" y="539"/>
			<point x="111" y="471"/>
			<point x="111" y="431" type="curve" smooth="yes"/>
			<point x="111" y="247"/>
			<point x="202" y="152"/>
			<point x="366" y="152" type="curve" smooth="yes"/>
			<point x="466" y="152" type="line" smooth="yes"/>
			<point x="547" y="152"/>
			<point x="598" y="114"/>
		</contour>
	</outline>
</glyph>
<glyph name="VowelO.bn" format="2">
	<advance width="739"/>
	<unicode hex="0993"/>
	<anchor x="258" y="1662" name="top2"/>
	<outline>
		<contour>
			<point x="120" y="637" type="line"/>
			<point x="138" y="301" type="line" smooth="yes"/>
			<point x="150" y="121"/>
			<point x="229" y="20"/>
			<point x="385" y="20" type="curve" smooth="yes"/>
			<point x="531" y="20"/>
			<point x="611" y="113"/>
			<point x="611" y="275" type="curve" smooth="yes"/>
			<point x="611" y="349" type="line" smooth="yes"/>
			<point x="611" y="477"/>
			<point x="554" y="552"/>
			<point x="469" y="568" type="curve"/>
			<point x="469" y="570" type="line"/>
			<point x="553" y="587"/>
			<point x="604" y="664"/>
			<point x="604" y="797" type="curve" smooth="yes"/>
			<point x="604" y="1013" type="line" smooth="yes"/>
			<point x="604" y="1169"/>
			<point x="540" y="1258"/>
			<point x="418" y="1258" type="curve" smooth="yes"/>
			<point x="298" y="1258"/>
			<point x="235" y="1173"/>
			<point x="235" y="1013" type="curve" smooth="yes"/>
			<point x="235" y="937"/>
			<point x="235" y="860"/>
			<point x="235" y="784" type="curve"/>
			<point x="269" y="784" type="line"/>
			<point x="269" y="860"/>
			<point x="269" y="937"/>
			<point x="269" y="1013" type="curve" smooth="yes"/>
			<point x="269" y="1150"/>
			<point x="322" y="1226"/>
			<point x="420" y="1226" type="curve" smooth="yes"/>
			<point x="519" y="1226"/>
			<point x="570" y="1149"/>
			<point x="570" y="1013" type="curve" smooth="yes"/>
			<point x="570" y="795" type="line" smooth="yes"/>
			<point x="570" y="657"/>
			<point x="516" y="588"/>
			<point x="403" y="585" type="curve" smooth="yes"/>
			<point x="360" y="584" type="line"/>
			<point x="360" y="554" type="line"/>
			<point x="403" y="553" type="line" smooth="yes"/>
			<point x="516" y="550"/>
			<point x="576" y="485"/>
			<point x="576" y="349" type="curve" smooth="yes"/>
			<point x="576" y="275" type="line" smooth="yes"/>
			<point x="576" y="133"/>
			<point x="509" y="53"/>
			<point x="385" y="53" type="curve" smooth="yes"/>
			<point x="247" y="53"/>
			<point x="183" y="147"/>
			<point x="172" y="307" type="curve" smooth="yes"/>
			<point x="154" y="637" type="line"/>
		</contour>
	</outline>
</glyph>
<glyph name="VowelAu.bn" format="2">
  <advance width="962"/>
  <unicode hex="0994"/>
  <anchor x="635" y="1682" name="top2"/>
  <outline>
    <contour>
      <point x="602" y="557" type="curve" smooth="yes"/>
      <point x="800" y="557"/>
      <point x="895" y="649"/>
      <point x="895" y="840" type="curve" smooth="yes"/>
      <point x="895" y="1136" type="line" smooth="yes"/>
      <point x="895" y="1305"/>
      <point x="803" y="1402"/>
      <point x="645" y="1473" type="curve" smooth="yes"/>
      <point x="498" y="1539" type="line" smooth="yes"/>
      <point x="377" y="1593"/>
      <point x="334" y="1642"/>
      <point x="334" y="1760" type="curve" smooth="yes"/>
      <point x="334" y="1762" type="line"/>
      <point x="303" y="1762" type="line"/>
      <point x="303" y="1760" type="line" smooth="yes"/>
      <point x="303" y="1629"/>
      <point x="351" y="1569"/>
      <point x="485" y="1509" type="curve" smooth="yes"/>
      <point x="641" y="1439" type="line" smooth="yes"/>
      <point x="771" y="1381"/>
      <point x="861" y="1288"/>
      <point x="861" y="1136" type="curve" smooth="yes"/>
      <point x="861" y="840" type="line" smooth="yes"/>
      <point x="861" y="668"/>
      <point x="776" y="586"/>
      <point x="600" y="586" type="curve" smooth="yes"/>
      <point x="555" y="586"/>
      <point x="521" y="586"/>
      <point x="478" y="586" type="curve"/>
      <point x="431" y="573" type="line"/>
      <point x="461" y="565" type="line"/>
      <point x="501" y="560"/>
      <point x="548" y="557"/>
    </contour>
    <contour>
      <point x="120" y="637" type="line"/>
      <point x="138" y="301" type="line" smooth="yes"/>
      <point x="150" y="121"/>
      <point x="229" y="20"/>
      <point x="385" y="20" type="curve" smooth="yes"/>
      <point x="531" y="20"/>
      <point x="611" y="113"/>
      <point x="611" y="275" type="curve" smooth="yes"/>
      <point x="611" y="349" type="line" smooth="yes"/>
      <point x="611" y="477"/>
      <point x="554" y="552"/>
      <point x="469" y="568" type="curve"/>
      <point x="469" y="570" type="line"/>
      <point x="553" y="587"/>
      <point x="604" y="664"/>
      <point x="604" y="797" type="curve" smooth="yes"/>
      <point x="604" y="1013" type="line" smooth="yes"/>
      <point x="604" y="1169"/>
      <point x="540" y="1258"/>
      <point x="418" y="1258" type="curve" smooth="yes"/>
      <point x="298" y="1258"/>
      <point x="235" y="1173"/>
      <point x="235" y="1013" type="curve" smooth="yes"/>
      <point x="235" y="937"/>
      <point x="235" y="860"/>
      <point x="235" y="784" type="curve"/>
      <point x="269" y="784" type="line"/>
      <point x="269" y="860"/>
      <point x="269" y="937"/>
      <point x="269" y="1013" type="curve" smooth="yes"/>
      <point x="269" y="1150"/>
      <point x="322" y="1226"/>
      <point x="420" y="1226" type="curve" smooth="yes"/>
      <point x="519" y="1226"/>
      <point x="570" y="1149"/>
      <point x="570" y="1013" type="curve" smooth="yes"/>
      <point x="570" y="795" type="line" smooth="yes"/>
      <point x="570" y="656"/>
      <point x="516" y="587"/>
      <point x="403" y="584" type="curve" smooth="yes"/>
      <point x="360" y="583" type="line"/>
      <point x="360" y="555" type="line"/>
      <point x="403" y="554" type="line" smooth="yes"/>
      <point x="516" y="551"/>
      <point x="576" y="486"/>
      <point x="576" y="349" type="curve" smooth="yes"/>
      <point x="576" y="275" type="line" smooth="yes"/>
      <point x="576" y="133"/>
      <point x="509" y="53"/>
      <point x="385" y="53" type="curve" smooth="yes"/>
      <point x="247" y="53"/>
      <point x="183" y="147"/>
      <point x="172" y="307" type="curve" smooth="yes"/>
      <point x="154" y="637" type="line"/>
    </contour>
  </outline>
</glyph>
<glyph name="Ka.bn" format="2">
  <advance width="923"/>
  <unicode hex="0995"/>
  <anchor x="507" y="0" name="bottom1"/>
  <anchor x="474" y="1433" name="top"/>
  <anchor x="333" y="1662" name="top2"/>
  <outline>
    <contour>
      <point x="477" y="0" type="line"/>
      <point x="507" y="0" type="line"/>
      <point x="507" y="1058" type="line"/>
      <point x="507" y="1066" type="line"/>
      <point x="507" y="1228" type="line"/>
      <point x="473" y="1228" type="line"/>
      <point x="473" y="1064" type="line"/>
      <point x="473" y="1053" type="line"/>
      <point x="473" y="124" type="line"/>
      <point x="475" y="26" type="line"/>
      <point x="479" y="45" type="line"/>
      <point x="125" y="446" type="line"/>
      <point x="133" y="415" type="line"/>
      <point x="133" y="773" type="line"/>
      <point x="122" y="743" type="line"/>
      <point x="203" y="843"/>
      <point x="359" y="973"/>
      <point x="503" y="1054" type="curve"/>
      <point x="486" y="1083" type="line"/>
      <point x="336" y="996"/>
      <point x="180" y="866"/>
      <point x="99" y="765" type="curve"/>
      <point x="99" y="427" type="line"/>
    </contour>
    <contour>
      <point x="656" y="326" type="line"/>
      <point x="659" y="326"/>
      <point x="662" y="326"/>
      <point x="665" y="326" type="curve" smooth="yes"/>
      <point x="772" y="326"/>
      <point x="819" y="391"/>
      <point x="819" y="540" type="curve" smooth="yes"/>
      <point x="819" y="707" type="line" smooth="yes"/>
      <point x="819" y="873"/>
      <point x="765" y="957"/>
      <point x="617" y="1026" type="curve" smooth="yes"/>
      <point x="498" y="1081" type="line"/>
      <point x="498" y="1046" type="line"/>
      <point x="610" y="994" type="line" smooth="yes"/>
      <point x="738" y="934"/>
      <point x="785" y="858"/>
      <point x="785" y="707" type="curve" smooth="yes"/>
      <point x="785" y="539" type="line" smooth="yes"/>
      <point x="785" y="413"/>
      <point x="748" y="358"/>
      <point x="661" y="358" type="curve" smooth="yes"/>
      <point x="658" y="358"/>
      <point x="656" y="358"/>
      <point x="652" y="358" type="curve"/>
    </contour>
    <contour>
      <point x="-47" y="1218" type="line"/>
      <point x="957" y="1218" type="line"/>
      <point x="953" y="1248" type="line"/>
      <point x="-51" y="1248" type="line"/>
    </contour>
    <contour>
      <point x="484" y="1241" type="line"/>
      <point x="484" y="1023" type="line"/>
      <point x="507" y="1023" type="line"/>
      <point x="507" y="1241" type="line"/>
    </contour>
    <contour>
      <point x="484" y="1218" type="line"/>
      <point x="723" y="1218" type="line"/>
      <point x="719" y="1248" type="line"/>
      <point x="484" y="1248" type="line"/>
    </contour>
  </outline>
</glyph>
<glyph name="Kha.bn" format="2">
	<advance width="785"/>
	<unicode hex="0996"/>
	<anchor x="633" y="0" name="bottom1"/>
	<anchor x="600" y="1433" name="top"/>
	<anchor x="459" y="1662" name="top2"/>
	<outline>
		<contour>
			<point x="599" y="0" type="line"/>
			<point x="633" y="0" type="line"/>
			<point x="633" y="1248" type="line"/>
			<point x="599" y="1248" type="line"/>
			<point x="599" y="124" type="line"/>
			<point x="601" y="26" type="line"/>
			<point x="607" y="35" type="line"/>
			<point x="165" y="428" type="line"/>
			<point x="176" y="403" type="line"/>
			<point x="176" y="638" type="line"/>
			<point x="158" y="610" type="line"/>
			<point x="225" y="624" type="line" smooth="yes"/>
			<point x="347" y="649"/>
			<point x="408" y="707"/>
			<point x="408" y="886" type="curve" smooth="yes"/>
			<point x="408" y="1006"/>
			<point x="408" y="1125"/>
			<point x="408" y="1248" type="curve"/>
			<point x="380" y="1248" type="line"/>
			<point x="362" y="1005"/>
			<point x="329" y="947"/>
			<point x="228" y="947" type="curve" smooth="yes"/>
			<point x="157" y="947"/>
			<point x="113" y="1002"/>
			<point x="113" y="1105" type="curve" smooth="yes"/>
			<point x="113" y="1248" type="line"/>
			<point x="80" y="1248" type="line"/>
			<point x="80" y="1105" type="line" smooth="yes"/>
			<point x="80" y="979"/>
			<point x="140" y="915"/>
			<point x="228" y="915" type="curve" smooth="yes"/>
			<point x="350" y="915"/>
			<point x="394" y="992"/>
			<point x="403" y="1215" type="curve"/>
			<point x="376" y="1181" type="line"/>
			<point x="376" y="1094"/>
			<point x="374" y="1013"/>
			<point x="374" y="886" type="curve" smooth="yes"/>
			<point x="374" y="734"/>
			<point x="332" y="679"/>
			<point x="214" y="656" type="curve" smooth="yes"/>
			<point x="142" y="642" type="line"/>
			<point x="142" y="405" type="line"/>
		</contour>
		<contour>
			<point x="610" y="1241" type="line"/>
			<point x="610" y="1023" type="line"/>
			<point x="633" y="1023" type="line"/>
			<point x="633" y="1241" type="line"/>
		</contour>
		<contour>
			<point x="610" y="1218" type="line"/>
			<point x="849" y="1218" type="line"/>
			<point x="845" y="1248" type="line"/>
			<point x="610" y="1248" type="line"/>
		</contour>
	</outline>
</glyph>
<glyph name="Ga.bn" format="2">
  <advance width="748"/>
  <unicode hex="0997"/>
  <anchor x="596" y="200" name="bottom1"/>
  <anchor x="563" y="1433" name="top"/>
  <anchor x="422" y="1662" name="top2"/>
  <outline>
    <contour>
      <point x="127" y="290" type="line"/>
      <point x="161" y="290" type="line" smooth="yes"/>
      <point x="292" y="290"/>
      <point x="348" y="350"/>
      <point x="348" y="487" type="curve" smooth="yes"/>
      <point x="348" y="612" type="line" smooth="yes"/>
      <point x="348" y="741"/>
      <point x="299" y="804"/>
      <point x="177" y="804" type="curve" smooth="yes"/>
      <point x="157" y="804"/>
      <point x="137" y="804"/>
      <point x="117" y="804" type="curve"/>
      <point x="131" y="789" type="line"/>
      <point x="131" y="843"/>
      <point x="131" y="899"/>
      <point x="131" y="953" type="curve" smooth="yes"/>
      <point x="131" y="1138"/>
      <point x="202" y="1228"/>
      <point x="346" y="1228" type="curve" smooth="yes"/>
      <point x="462" y="1228"/>
      <point x="533" y="1157"/>
      <point x="562" y="1011" type="curve"/>
      <point x="562" y="902" type="line"/>
      <point x="586" y="961" type="line"/>
      <point x="584" y="1036" type="line"/>
      <point x="573" y="1036" type="line"/>
      <point x="555" y="1186"/>
      <point x="471" y="1260"/>
      <point x="346" y="1260" type="curve" smooth="yes"/>
      <point x="179" y="1260"/>
      <point x="97" y="1159"/>
      <point x="97" y="953" type="curve" smooth="yes"/>
      <point x="97" y="893"/>
      <point x="97" y="833"/>
      <point x="97" y="773" type="curve"/>
      <point x="124" y="773"/>
      <point x="152" y="773"/>
      <point x="179" y="773" type="curve" smooth="yes"/>
      <point x="278" y="773"/>
      <point x="314" y="725"/>
      <point x="314" y="614" type="curve" smooth="yes"/>
      <point x="314" y="489" type="line" smooth="yes"/>
      <point x="314" y="370"/>
      <point x="270" y="322"/>
      <point x="159" y="322" type="curve" smooth="yes"/>
      <point x="122" y="322" type="line"/>
    </contour>
    <contour>
      <point x="562" y="0" type="line"/>
      <point x="596" y="0" type="line"/>
      <point x="596" y="1248" type="line"/>
      <point x="564" y="1248" type="line"/>
      <point x="564" y="1053" type="line"/>
      <point x="562" y="1058" type="line"/>
    </contour>
    <contour>
      <point x="573" y="1241" type="line"/>
      <point x="573" y="1023" type="line"/>
      <point x="596" y="1023" type="line"/>
      <point x="596" y="1241" type="line"/>
    </contour>
    <contour>
      <point x="573" y="1218" type="line"/>
      <point x="812" y="1218" type="line"/>
      <point x="808" y="1248" type="line"/>
      <point x="573" y="1248" type="line"/>
    </contour>
  </outline>
</glyph>
<glyph name="Nga.bn" format="2">
  <advance width="817"/>
  <unicode hex="0999"/>
  <anchor x="510" y="188" name="bottom1"/>
  <anchor x="433" y="1433" name="top"/>
  <anchor x="269" y="1662" name="top2"/>
  <outline>
    <contour>
      <point x="434" y="20" type="curve" smooth="yes"/>
      <point x="602" y="20"/>
      <point x="688" y="128"/>
      <point x="688" y="332" type="curve" smooth="yes"/>
      <point x="688" y="460"/>
      <point x="688" y="500"/>
      <point x="688" y="540" type="curve"/>
      <point x="632" y="524" type="line" smooth="yes"/>
      <point x="587" y="513"/>
      <point x="546" y="508"/>
      <point x="508" y="508" type="curve" smooth="yes"/>
      <point x="427" y="508"/>
      <point x="387" y="550"/>
      <point x="387" y="637" type="curve" smooth="yes"/>
      <point x="387" y="746" type="line"/>
      <point x="387" y="756" type="line"/>
      <point x="387" y="1043" type="line" smooth="yes"/>
      <point x="387" y="1165"/>
      <point x="426" y="1224"/>
      <point x="507" y="1224" type="curve" smooth="yes"/>
      <point x="583" y="1224"/>
      <point x="620" y="1167"/>
      <point x="620" y="1051" type="curve" smooth="yes"/>
      <point x="620" y="1002" type="line" smooth="yes"/>
      <point x="620" y="847"/>
      <point x="544" y="771"/>
      <point x="388" y="771" type="curve" smooth="yes"/>
      <point x="378" y="771"/>
      <point x="355" y="771"/>
      <point x="372" y="771" type="curve"/>
      <point x="372" y="741" type="line"/>
      <point x="377" y="741"/>
      <point x="383" y="741"/>
      <point x="388" y="741" type="curve" smooth="yes"/>
      <point x="567" y="741"/>
      <point x="654" y="827"/>
      <point x="654" y="1002" type="curve" smooth="yes"/>
      <point x="654" y="1051" type="line" smooth="yes"/>
      <point x="654" y="1189"/>
      <point x="604" y="1256"/>
      <point x="503" y="1256" type="curve" smooth="yes"/>
      <point x="402" y="1256"/>
      <point x="353" y="1186"/>
      <point x="353" y="1043" type="curve" smooth="yes"/>
      <point x="353" y="637" type="line" smooth="yes"/>
      <point x="353" y="529"/>
      <point x="404" y="476"/>
      <point x="508" y="476" type="curve" smooth="yes"/>
      <point x="544" y="476"/>
      <point x="584" y="481"/>
      <point x="632" y="492" type="curve" smooth="yes"/>
      <point x="673" y="504" type="line"/>
      <point x="654" y="521" type="line"/>
      <point x="654" y="457"/>
      <point x="654" y="393"/>
      <point x="654" y="329" type="curve" smooth="yes"/>
      <point x="654" y="148"/>
      <point x="579" y="52"/>
      <point x="434" y="52" type="curve" smooth="yes"/>
      <point x="272" y="52"/>
      <point x="187" y="157"/>
      <point x="175" y="357" type="curve" smooth="yes"/>
      <point x="160" y="617" type="line"/>
      <point x="126" y="617" type="line"/>
      <point x="141" y="353" type="line" smooth="yes"/>
      <point x="153" y="134"/>
      <point x="252" y="20"/>
    </contour>
    <contour>
      <point x="129" y="1223" type="line"/>
      <point x="129" y="1041" type="line" smooth="yes"/>
      <point x="129" y="840"/>
      <point x="209" y="741"/>
      <point x="374" y="741" type="curve" smooth="yes"/>
      <point x="381" y="741" type="line"/>
      <point x="381" y="771" type="line"/>
      <point x="374" y="771" type="line" smooth="yes"/>
      <point x="231" y="771"/>
      <point x="161" y="860"/>
      <point x="161" y="1041" type="curve" smooth="yes"/>
      <point x="161" y="1223" type="line"/>
    </contour>
  </outline>
</glyph>
<glyph name="Ja.bn" format="2">
  <advance width="1102"/>
  <unicode hex="099C"/>
  <note>
Ja.bn
</note>
  <anchor x="950" y="298" name="bottom1"/>
  <anchor x="577" y="1433" name="top"/>
  <anchor x="438" y="1662" name="top2"/>
  <outline>
    <contour>
      <point x="434" y="20" type="curve" smooth="yes"/>
      <point x="597" y="20"/>
      <point x="686" y="122"/>
      <point x="686" y="316" type="curve" smooth="yes"/>
      <point x="686" y="540"/>
      <point x="686" y="614"/>
      <point x="686" y="689" type="curve"/>
      <point x="655" y="698" type="line"/>
      <point x="623" y="662" type="line" smooth="yes"/>
      <point x="582" y="616"/>
      <point x="554" y="596"/>
      <point x="508" y="596" type="curve" smooth="yes"/>
      <point x="450" y="596"/>
      <point x="415" y="639"/>
      <point x="415" y="718" type="curve" smooth="yes"/>
      <point x="415" y="888" type="line" smooth="yes"/>
      <point x="415" y="1072"/>
      <point x="488" y="1175"/>
      <point x="634" y="1218" type="curve"/>
      <point x="604" y="1224" type="line"/>
      <point x="597" y="1230" type="line"/>
      <point x="456" y="1196"/>
      <point x="380" y="1078"/>
      <point x="380" y="895" type="curve" smooth="yes"/>
      <point x="380" y="718" type="line" smooth="yes"/>
      <point x="380" y="617"/>
      <point x="426" y="564"/>
      <point x="509" y="564" type="curve" smooth="yes"/>
      <point x="567" y="564"/>
      <point x="605" y="590"/>
      <point x="650" y="643" type="curve" smooth="yes"/>
      <point x="671" y="668" type="line"/>
      <point x="653" y="668" type="line"/>
      <point x="653" y="607"/>
      <point x="653" y="549"/>
      <point x="653" y="312" type="curve" smooth="yes"/>
      <point x="653" y="143"/>
      <point x="574" y="53"/>
      <point x="434" y="53" type="curve" smooth="yes"/>
      <point x="292" y="53"/>
      <point x="203" y="144"/>
      <point x="192" y="340" type="curve" smooth="yes"/>
      <point x="157" y="991" type="line"/>
      <point x="123" y="991" type="line"/>
      <point x="158" y="336" type="line" smooth="yes"/>
      <point x="169" y="127"/>
      <point x="270" y="20"/>
    </contour>
    <contour>
      <point x="916" y="-10" type="curve"/>
      <point x="950" y="-10" type="line"/>
      <point x="950" y="93"/>
      <point x="950" y="176"/>
      <point x="950" y="298" type="curve" smooth="yes"/>
      <point x="950" y="534"/>
      <point x="950" y="790"/>
      <point x="950" y="899" type="curve"/>
      <point x="811" y="899"/>
      <point x="654" y="1027"/>
      <point x="652" y="1236" type="curve"/>
      <point x="621" y="1236" type="line"/>
      <point x="621" y="1004"/>
      <point x="793" y="869"/>
      <point x="945" y="869" type="curve"/>
      <point x="918" y="889" type="line"/>
      <point x="916" y="784"/>
      <point x="916" y="528"/>
      <point x="916" y="298" type="curve" smooth="yes"/>
      <point x="916" y="180"/>
      <point x="916" y="88"/>
    </contour>
    <contour>
      <point x="-16" y="1218" type="line"/>
      <point x="1147" y="1218" type="line"/>
      <point x="1143" y="1248" type="line"/>
      <point x="-20" y="1248" type="line"/>
    </contour>
  </outline>
</glyph>
<glyph name="Tta.bn" format="2">
	<advance width="708"/>
	<unicode hex="099F"/>
	<anchor x="415" y="188" name="bottom1"/>
	<anchor x="462" y="1497" name="top"/>
	<anchor x="387" y="1743" name="top2"/>
	<outline>
		<contour>
			<point x="349" y="20" type="curve" smooth="yes"/>
			<point x="467" y="20"/>
			<point x="545" y="90"/>
			<point x="561" y="261" type="curve" smooth="yes"/>
			<point x="569" y="344"/>
			<point x="589" y="584"/>
			<point x="589" y="653" type="curve" smooth="yes"/>
			<point x="589" y="787"/>
			<point x="523" y="854"/>
			<point x="412" y="854" type="curve" smooth="yes"/>
			<point x="392" y="854"/>
			<point x="369" y="854"/>
			<point x="335" y="854" type="curve"/>
			<point x="331" y="822" type="line"/>
			<point x="367" y="822"/>
			<point x="392" y="822"/>
			<point x="412" y="822" type="curve" smooth="yes"/>
			<point x="504" y="822"/>
			<point x="555" y="765"/>
			<point x="555" y="653" type="curve" smooth="yes"/>
			<point x="555" y="588"/>
			<point x="535" y="344"/>
			<point x="527" y="264" type="curve" smooth="yes"/>
			<point x="512" y="115"/>
			<point x="447" y="52"/>
			<point x="349" y="52" type="curve" smooth="yes"/>
			<point x="238" y="52"/>
			<point x="179" y="119"/>
			<point x="179" y="266" type="curve" smooth="yes"/>
			<point x="179" y="1239" type="line"/>
			<point x="145" y="1239" type="line"/>
			<point x="145" y="266" type="line" smooth="yes"/>
			<point x="145" y="106"/>
			<point x="209" y="20"/>
		</contour>
		<contour>
			<point x="-56" y="1218" type="line"/>
			<point x="739" y="1218" type="line"/>
			<point x="735" y="1248" type="line"/>
			<point x="-60" y="1248" type="line"/>
		</contour>
		<contour>
			<point x="587" y="1244" type="line"/>
			<point x="598" y="1283"/>
			<point x="602" y="1317"/>
			<point x="602" y="1349" type="curve" smooth="yes"/>
			<point x="602" y="1458"/>
			<point x="541" y="1513"/>
			<point x="421" y="1513" type="curve" smooth="yes"/>
			<point x="284" y="1513" type="line" smooth="yes"/>
			<point x="189" y="1513"/>
			<point x="143" y="1559"/>
			<point x="143" y="1653" type="curve" smooth="yes"/>
			<point x="143" y="1681" type="line"/>
			<point x="115" y="1681" type="line"/>
			<point x="115" y="1653" type="line" smooth="yes"/>
			<point x="115" y="1541"/>
			<point x="172" y="1483"/>
			<point x="284" y="1483" type="curve" smooth="yes"/>
			<point x="421" y="1483" type="line" smooth="yes"/>
			<point x="524" y="1483"/>
			<point x="572" y="1441"/>
			<point x="572" y="1348" type="curve" smooth="yes"/>
			<point x="572" y="1304"/>
			<point x="566" y="1267"/>
			<point x="555" y="1235" type="curve"/>
			<point x="578" y="1230" type="line"/>
		</contour>
	</outline>
</glyph>
<glyph name="Ttha.bn" format="2">
  <advance width="692"/>
  <unicode hex="09A0"/>
  <anchor x="410" y="188" name="bottom1"/>
  <anchor x="375" y="1433" name="top"/>
  <anchor x="391" y="1659" name="top2"/>
  <outline>
    <contour>
      <point x="338" y="20" type="curve" smooth="yes"/>
      <point x="499" y="20"/>
      <point x="579" y="118"/>
      <point x="579" y="302" type="curve" smooth="yes"/>
      <point x="579" y="458" type="line" smooth="yes"/>
      <point x="579" y="767"/>
      <point x="489" y="924"/>
      <point x="400" y="1123" type="curve" smooth="yes"/>
      <point x="347" y="1241" type="line"/>
      <point x="315" y="1233" type="line"/>
      <point x="370" y="1110" type="line" smooth="yes"/>
      <point x="474" y="878"/>
      <point x="545" y="740"/>
      <point x="545" y="466" type="curve" smooth="yes"/>
      <point x="545" y="302" type="line" smooth="yes"/>
      <point x="545" y="139"/>
      <point x="475" y="53"/>
      <point x="340" y="53" type="curve" smooth="yes"/>
      <point x="204" y="53"/>
      <point x="138" y="139"/>
      <point x="138" y="302" type="curve" smooth="yes"/>
      <point x="138" y="332"/>
      <point x="138" y="424"/>
      <point x="138" y="502" type="curve"/>
      <point x="127" y="473" type="line"/>
      <point x="259" y="557"/>
      <point x="342" y="690"/>
      <point x="342" y="1011" type="curve" smooth="yes"/>
      <point x="342" y="1231" type="line"/>
      <point x="310" y="1222" type="line"/>
      <point x="310" y="1011" type="line" smooth="yes"/>
      <point x="310" y="701"/>
      <point x="229" y="575"/>
      <point x="104" y="500" type="curve"/>
      <point x="104" y="332"/>
      <point x="104" y="425"/>
      <point x="104" y="302" type="curve" smooth="yes"/>
      <point x="104" y="118"/>
      <point x="182" y="20"/>
    </contour>
    <contour>
      <point x="-62" y="1218" type="line"/>
      <point x="728" y="1218" type="line"/>
      <point x="724" y="1248" type="line"/>
      <point x="-66" y="1248" type="line"/>
    </contour>
    <contour>
      <point x="317" y="1230" type="line"/>
      <point x="343" y="1245" type="line"/>
      <point x="330" y="1275" type="line" smooth="yes"/>
      <point x="243" y="1475"/>
      <point x="227" y="1526"/>
      <point x="227" y="1626" type="curve" smooth="yes"/>
      <point x="227" y="1674"/>
      <point x="234" y="1723"/>
      <point x="249" y="1777" type="curve"/>
      <point x="217" y="1777" type="line"/>
      <point x="202" y="1734"/>
      <point x="195" y="1685"/>
      <point x="195" y="1628" type="curve" smooth="yes"/>
      <point x="195" y="1524"/>
      <point x="209" y="1476"/>
      <point x="302" y="1264" type="curve" smooth="yes"/>
    </contour>
  </outline>
</glyph>
<glyph name="Dda.bn" format="2">
  <advance width="844"/>
  <unicode hex="09A1"/>
  <note>
Dda.bn
</note>
  <anchor x="514" y="188" name="bottom1"/>
  <anchor x="408" y="1433" name="top"/>
  <anchor x="268" y="1662" name="top2"/>
  <outline>
    <contour>
      <point x="157" y="991" type="line"/>
      <point x="123" y="991" type="line"/>
      <point x="157" y="358" type="line" smooth="yes"/>
      <point x="168" y="139"/>
      <point x="269" y="20"/>
      <point x="446" y="20" type="curve" smooth="yes"/>
      <point x="624" y="20"/>
      <point x="717" y="133"/>
      <point x="717" y="354" type="curve" smooth="yes"/>
      <point x="717" y="585"/>
      <point x="715" y="755"/>
      <point x="710" y="946" type="curve"/>
      <point x="683" y="950" type="line"/>
      <point x="670" y="813" type="line" smooth="yes"/>
      <point x="655" y="658"/>
      <point x="617" y="594"/>
      <point x="539" y="594" type="curve" smooth="yes"/>
      <point x="468" y="594"/>
      <point x="433" y="646"/>
      <point x="433" y="752" type="curve" smooth="yes"/>
      <point x="433" y="1236" type="line"/>
      <point x="399" y="1236" type="line"/>
      <point x="399" y="752" type="line" smooth="yes"/>
      <point x="399" y="625"/>
      <point x="446" y="562"/>
      <point x="543" y="562" type="curve" smooth="yes"/>
      <point x="638" y="562"/>
      <point x="688" y="647"/>
      <point x="698" y="803" type="curve" smooth="yes"/>
      <point x="705" y="914" type="line"/>
      <point x="681" y="916" type="line"/>
      <point x="682" y="751"/>
      <point x="683" y="547"/>
      <point x="683" y="354" type="curve" smooth="yes"/>
      <point x="683" y="154"/>
      <point x="599" y="53"/>
      <point x="446" y="53" type="curve" smooth="yes"/>
      <point x="288" y="53"/>
      <point x="201" y="162"/>
      <point x="191" y="362" type="curve" smooth="yes"/>
    </contour>
    <contour>
      <point x="-16" y="1218" type="line"/>
      <point x="879" y="1218" type="line"/>
      <point x="875" y="1248" type="line"/>
      <point x="-20" y="1248" type="line"/>
    </contour>
  </outline>
</glyph>
<glyph name="Da.bn" format="2">
  <advance width="752"/>
  <unicode hex="09A6"/>
  <note>
Da.bn
</note>
  <anchor x="600" y="0" name="bottom1"/>
  <anchor x="149" y="1433" name="top"/>
  <anchor x="236" y="1662" name="top2"/>
  <outline>
    <contour>
      <point x="-85" y="1218" type="line"/>
      <point x="765" y="1218" type="line"/>
      <point x="761" y="1248" type="line"/>
      <point x="-89" y="1248" type="line"/>
    </contour>
    <contour>
      <point x="566" y="-39" type="line"/>
      <point x="600" y="-39" type="line"/>
      <point x="600" y="927" type="line"/>
      <point x="561" y="927" type="line"/>
      <point x="391" y="736"/>
      <point x="256" y="540"/>
      <point x="165" y="340" type="curve"/>
      <point x="180" y="333" type="line"/>
      <point x="182" y="551" type="line"/>
      <point x="182" y="1237" type="line"/>
      <point x="148" y="1237" type="line"/>
      <point x="148" y="293" type="line"/>
      <point x="179" y="293" type="line"/>
      <point x="271" y="495"/>
      <point x="401" y="695"/>
      <point x="578" y="899" type="curve"/>
      <point x="569" y="909" type="line"/>
      <point x="566" y="714" type="line"/>
    </contour>
  </outline>
</glyph>
<glyph name="Dha.bn" format="2">
	<advance width="738"/>
	<unicode hex="09A7"/>
	<anchor x="586" y="0" name="bottom1"/>
	<anchor x="553" y="1433" name="top"/>
	<anchor x="412" y="1662" name="top2"/>
	<outline>
		<contour>
			<point x="556" y="0" type="line"/>
			<point x="586" y="0" type="line"/>
			<point x="586" y="1248" type="line"/>
			<point x="552" y="1248" type="line"/>
			<point x="552" y="124" type="line"/>
			<point x="554" y="26" type="line"/>
			<point x="562" y="38" type="line"/>
			<point x="160" y="395" type="line"/>
			<point x="170" y="363" type="line"/>
			<point x="170" y="611" type="line"/>
			<point x="157" y="594" type="line"/>
			<point x="254" y="688"/>
			<point x="433" y="820"/>
			<point x="582" y="919" type="curve"/>
			<point x="567" y="949" type="line"/>
			<point x="414" y="848"/>
			<point x="241" y="719"/>
			<point x="136" y="624" type="curve"/>
			<point x="136" y="373" type="line"/>
		</contour>
		<contour>
			<point x="295" y="740" type="curve"/>
			<point x="295" y="729" type="line"/>
			<point x="349" y="772" type="line"/>
			<point x="329" y="767"/>
			<point x="308" y="767"/>
			<point x="297" y="767" type="curve" smooth="yes"/>
			<point x="203" y="767"/>
			<point x="144" y="834"/>
			<point x="144" y="928" type="curve" smooth="yes"/>
			<point x="144" y="1047" type="line" smooth="yes"/>
			<point x="144" y="1160"/>
			<point x="184" y="1226"/>
			<point x="293" y="1226" type="curve" smooth="yes"/>
			<point x="330" y="1226"/>
			<point x="360" y="1218"/>
			<point x="386" y="1205" type="curve"/>
			<point x="386" y="1239" type="line"/>
			<point x="358" y="1252"/>
			<point x="328" y="1258"/>
			<point x="291" y="1258" type="curve" smooth="yes"/>
			<point x="161" y="1258"/>
			<point x="110" y="1181"/>
			<point x="110" y="1049" type="curve" smooth="yes"/>
			<point x="110" y="928" type="line" smooth="yes"/>
			<point x="110" y="831"/>
			<point x="165" y="740"/>
		</contour>
		<contour>
			<point x="563" y="1241" type="line"/>
			<point x="563" y="1023" type="line"/>
			<point x="586" y="1023" type="line"/>
			<point x="586" y="1241" type="line"/>
		</contour>
		<contour>
			<point x="563" y="1218" type="line"/>
			<point x="802" y="1218" type="line"/>
			<point x="798" y="1248" type="line"/>
			<point x="563" y="1248" type="line"/>
		</contour>
	</outline>
</glyph>
<glyph name="Pa.bn" format="2">
	<advance width="715"/>
	<unicode hex="09AA"/>
	<anchor x="563" y="200" name="bottom1"/>
	<anchor x="530" y="1433" name="top"/>
	<anchor x="389" y="1662" name="top2"/>
	<outline>
		<contour>
			<point x="113" y="983" type="curve" smooth="yes"/>
			<point x="113" y="725" type="line"/>
			<point x="315" y="519" type="line"/>
			<point x="343" y="535" type="line"/>
			<point x="135" y="751" type="line"/>
			<point x="147" y="722" type="line"/>
			<point x="147" y="983" type="line" smooth="yes"/>
			<point x="147" y="1143"/>
			<point x="209" y="1222"/>
			<point x="335" y="1222" type="curve" smooth="yes"/>
			<point x="440" y="1222"/>
			<point x="500" y="1149"/>
			<point x="529" y="987" type="curve"/>
			<point x="529" y="840" type="line"/>
			<point x="546" y="786" type="line"/>
			<point x="548" y="1023" type="line"/>
			<point x="539" y="1023" type="line"/>
			<point x="522" y="1175"/>
			<point x="450" y="1254"/>
			<point x="330" y="1254" type="curve" smooth="yes"/>
			<point x="184" y="1254"/>
			<point x="113" y="1165"/>
		</contour>
		<contour>
			<point x="159" y="310" type="line"/>
			<point x="552" y="763" type="line"/>
			<point x="532" y="789" type="line"/>
			<point x="130" y="328" type="line"/>
		</contour>
		<contour>
			<point x="529" y="0" type="line"/>
			<point x="563" y="0" type="line"/>
			<point x="563" y="1248" type="line"/>
			<point x="531" y="1248" type="line"/>
			<point x="531" y="1023" type="line"/>
			<point x="529" y="1023" type="line"/>
		</contour>
		<contour>
			<point x="540" y="1241" type="line"/>
			<point x="540" y="1023" type="line"/>
			<point x="563" y="1023" type="line"/>
			<point x="563" y="1241" type="line"/>
		</contour>
		<contour>
			<point x="540" y="1218" type="line"/>
			<point x="779" y="1218" type="line"/>
			<point x="775" y="1248" type="line"/>
			<point x="540" y="1248" type="line"/>
		</contour>
	</outline>
</glyph>
<glyph name="Pha.bn" format="2">
  <advance width="990"/>
  <unicode hex="09AB"/>
  <anchor x="573" y="0" name="bottom1"/>
  <anchor x="540" y="1433" name="top"/>
  <anchor x="388" y="1662" name="top2"/>
  <outline>
    <contour>
      <point x="-78" y="1218" type="line"/>
      <point x="1024" y="1218" type="line"/>
      <point x="1020" y="1248" type="line"/>
      <point x="-82" y="1248" type="line"/>
    </contour>
    <contour>
      <point x="544" y="0" type="line"/>
      <point x="573" y="0" type="line"/>
      <point x="573" y="1012" type="line"/>
      <point x="540" y="1012" type="line"/>
      <point x="540" y="124" type="line"/>
      <point x="542" y="26" type="line"/>
      <point x="548" y="40" type="line"/>
      <point x="149" y="435" type="line"/>
      <point x="159" y="404" type="line"/>
      <point x="159" y="667" type="line"/>
      <point x="146" y="643" type="line"/>
      <point x="356" y="852" type="line"/>
      <point x="356" y="880" type="line"/>
      <point x="262" y="1002"/>
      <point x="178" y="1109"/>
      <point x="84" y="1226" type="curve"/>
      <point x="68" y="1226" type="line"/>
      <point x="68" y="1191" type="line"/>
      <point x="326" y="870" type="line"/>
      <point x="326" y="869" type="line"/>
      <point x="125" y="669" type="line"/>
      <point x="125" y="414" type="line"/>
    </contour>
    <contour>
      <point x="719" y="370" type="curve"/>
      <point x="723" y="338" type="line"/>
      <point x="727" y="338"/>
      <point x="728" y="338"/>
      <point x="732" y="338" type="curve" smooth="yes"/>
      <point x="839" y="338"/>
      <point x="886" y="402"/>
      <point x="886" y="552" type="curve" smooth="yes"/>
      <point x="886" y="772" type="line" smooth="yes"/>
      <point x="886" y="929"/>
      <point x="808" y="1012"/>
      <point x="660" y="1012" type="curve" smooth="yes"/>
      <point x="557" y="1012" type="line"/>
      <point x="557" y="982" type="line"/>
      <point x="662" y="982" type="line" smooth="yes"/>
      <point x="791" y="982"/>
      <point x="852" y="913"/>
      <point x="852" y="770" type="curve" smooth="yes"/>
      <point x="852" y="554" type="line" smooth="yes"/>
      <point x="852" y="424"/>
      <point x="815" y="370"/>
      <point x="728" y="370" type="curve" smooth="yes"/>
      <point x="725" y="370"/>
      <point x="722" y="370"/>
    </contour>
  </outline>
</glyph>
<glyph name="Ba.bn" format="2">
	<advance width="685"/>
	<unicode hex="09AC"/>
	<anchor x="533" y="0" name="bottom1"/>
	<anchor x="500" y="1433" name="top"/>
	<anchor x="359" y="1662" name="top2"/>
	<note>
		Ba.bn
	</note>
	<outline>
		<contour>
			<point x="-38" y="1218" type="line"/>
			<point x="533" y="1218" type="line"/>
			<point x="533" y="1248" type="line"/>
			<point x="-42" y="1248" type="line"/>
		</contour>
		<contour>
			<point x="503" y="0" type="line"/>
			<point x="533" y="0" type="line"/>
			<point x="533" y="1228" type="line"/>
			<point x="499" y="1228" type="line"/>
			<point x="499" y="1062" type="line"/>
			<point x="499" y="1055" type="line"/>
			<point x="499" y="124" type="line"/>
			<point x="501" y="26" type="line"/>
			<point x="507" y="42" type="line"/>
			<point x="133" y="446" type="line"/>
			<point x="142" y="414" type="line"/>
			<point x="142" y="753" type="line"/>
			<point x="129" y="724" type="line"/>
			<point x="219" y="838"/>
			<point x="379" y="968"/>
			<point x="528" y="1053" type="curve"/>
			<point x="512" y="1081" type="line"/>
			<point x="356" y="993"/>
			<point x="196" y="860"/>
			<point x="108" y="750" type="curve"/>
			<point x="108" y="426" type="line"/>
		</contour>
		<contour>
			<point x="510" y="1241" type="line"/>
			<point x="510" y="1023" type="line"/>
			<point x="533" y="1023" type="line"/>
			<point x="533" y="1241" type="line"/>
		</contour>
		<contour>
			<point x="510" y="1218" type="line"/>
			<point x="749" y="1218" type="line"/>
			<point x="745" y="1248" type="line"/>
			<point x="510" y="1248" type="line"/>
		</contour>
	</outline>
</glyph>
<glyph name="Bha.bn" format="2">
	<advance width="844"/>
	<unicode hex="09AD"/>
	<anchor x="514" y="188" name="bottom1"/>
	<anchor x="406" y="1433" name="top"/>
	<anchor x="310" y="1662" name="top2"/>
	<outline>
		<contour>
			<point x="446" y="20" type="curve" smooth="yes"/>
			<point x="623" y="20"/>
			<point x="717" y="133"/>
			<point x="717" y="354" type="curve" smooth="yes"/>
			<point x="717" y="585"/>
			<point x="715" y="755"/>
			<point x="710" y="946" type="curve"/>
			<point x="683" y="950" type="line"/>
			<point x="658" y="738"/>
			<point x="644" y="576"/>
			<point x="521" y="576" type="curve" smooth="yes"/>
			<point x="441" y="576"/>
			<point x="404" y="638"/>
			<point x="404" y="725" type="curve" smooth="yes"/>
			<point x="404" y="878" type="line" smooth="yes"/>
			<point x="404" y="985"/>
			<point x="439" y="1048"/>
			<point x="520" y="1048" type="curve" smooth="yes"/>
			<point x="527" y="1048"/>
			<point x="533" y="1048"/>
			<point x="540" y="1048" type="curve"/>
			<point x="537" y="1078" type="line"/>
			<point x="531" y="1078"/>
			<point x="526" y="1078"/>
			<point x="520" y="1078" type="curve" smooth="yes"/>
			<point x="409" y="1078"/>
			<point x="372" y="992"/>
			<point x="372" y="877" type="curve" smooth="yes"/>
			<point x="372" y="725" type="line" smooth="yes"/>
			<point x="372" y="616"/>
			<point x="420" y="544"/>
			<point x="521" y="544" type="curve" smooth="yes"/>
			<point x="672" y="544"/>
			<point x="685" y="717"/>
			<point x="704" y="914" type="curve"/>
			<point x="681" y="916" type="line"/>
			<point x="682" y="752"/>
			<point x="683" y="547"/>
			<point x="683" y="354" type="curve" smooth="yes"/>
			<point x="683" y="154"/>
			<point x="600" y="53"/>
			<point x="444" y="53" type="curve" smooth="yes"/>
			<point x="291" y="53"/>
			<point x="202" y="158"/>
			<point x="191" y="362" type="curve" smooth="yes"/>
			<point x="157" y="991" type="line"/>
			<point x="123" y="991" type="line"/>
			<point x="157" y="358" type="line" smooth="yes"/>
			<point x="168" y="146"/>
			<point x="264" y="20"/>
		</contour>
		<contour>
			<point x="-16" y="1218" type="line"/>
			<point x="879" y="1218" type="line"/>
			<point x="875" y="1248" type="line"/>
			<point x="-20" y="1248" type="line"/>
		</contour>
	</outline>
</glyph>
<glyph name="Ya.bn" format="2">
  <advance width="726"/>
  <unicode hex="09AF"/>
  <note>
Ya.bn
</note>
  <anchor x="574" y="0" name="bottom1"/>
  <anchor x="541" y="1433" name="top"/>
  <anchor x="400" y="1662" name="top2"/>
  <outline>
    <contour>
      <point x="544" y="0" type="line"/>
      <point x="574" y="0" type="line"/>
      <point x="574" y="1228" type="line"/>
      <point x="540" y="1228" type="line"/>
      <point x="540" y="124" type="line"/>
      <point x="542" y="26" type="line"/>
      <point x="548" y="40" type="line"/>
      <point x="149" y="435" type="line"/>
      <point x="159" y="404" type="line"/>
      <point x="159" y="667" type="line"/>
      <point x="146" y="643" type="line"/>
      <point x="356" y="852" type="line"/>
      <point x="356" y="880" type="line"/>
      <point x="262" y="1002"/>
      <point x="178" y="1109"/>
      <point x="84" y="1226" type="curve"/>
      <point x="68" y="1226" type="line"/>
      <point x="68" y="1191" type="line"/>
      <point x="326" y="870" type="line"/>
      <point x="326" y="869" type="line"/>
      <point x="125" y="669" type="line"/>
      <point x="125" y="414" type="line"/>
    </contour>
    <contour>
      <point x="-78" y="1218" type="line"/>
      <point x="572" y="1218" type="line"/>
      <point x="572" y="1248" type="line"/>
      <point x="-82" y="1248" type="line"/>
    </contour>
    <contour>
      <point x="551" y="1241" type="line"/>
      <point x="551" y="1023" type="line"/>
      <point x="574" y="1023" type="line"/>
      <point x="574" y="1241" type="line"/>
    </contour>
    <contour>
      <point x="551" y="1218" type="line"/>
      <point x="790" y="1218" type="line"/>
      <point x="786" y="1248" type="line"/>
      <point x="551" y="1248" type="line"/>
    </contour>
  </outline>
</glyph>
<glyph name="Ra.bn" format="2">
	<advance width="691"/>
	<unicode hex="09B0"/>
	<anchor x="539" y="0" name="bottom1"/>
	<anchor x="506" y="1433" name="top"/>
	<anchor x="365" y="1662" name="top2"/>
	<outline>
		<contour>
			<point x="-32" y="1218" type="line"/>
			<point x="539" y="1218" type="line"/>
			<point x="539" y="1248" type="line"/>
			<point x="-36" y="1248" type="line"/>
		</contour>
		<contour>
			<point x="509" y="0" type="line"/>
			<point x="539" y="0" type="line"/>
			<point x="539" y="1228" type="line"/>
			<point x="505" y="1228" type="line"/>
			<point x="505" y="1062" type="line"/>
			<point x="505" y="1055" type="line"/>
			<point x="505" y="124" type="line"/>
			<point x="507" y="26" type="line"/>
			<point x="513" y="42" type="line"/>
			<point x="139" y="446" type="line"/>
			<point x="148" y="414" type="line"/>
			<point x="148" y="753" type="line"/>
			<point x="135" y="724" type="line"/>
			<point x="225" y="838"/>
			<point x="385" y="968"/>
			<point x="534" y="1053" type="curve"/>
			<point x="518" y="1081" type="line"/>
			<point x="362" y="993"/>
			<point x="202" y="860"/>
			<point x="114" y="750" type="curve"/>
			<point x="114" y="426" type="line"/>
		</contour>
		<contour>
			<point x="516" y="1241" type="line"/>
			<point x="516" y="1023" type="line"/>
			<point x="539" y="1023" type="line"/>
			<point x="539" y="1241" type="line"/>
		</contour>
		<contour>
			<point x="516" y="1218" type="line"/>
			<point x="755" y="1218" type="line"/>
			<point x="751" y="1248" type="line"/>
			<point x="516" y="1248" type="line"/>
		</contour>
		<contour>
			<point x="230" y="-54" type="curve" smooth="yes"/>
			<point x="252" y="-54"/>
			<point x="259" y="-34"/>
			<point x="259" y="12" type="curve" smooth="yes"/>
			<point x="259" y="27" type="line" smooth="yes"/>
			<point x="259" y="73"/>
			<point x="252" y="93"/>
			<point x="230" y="93" type="curve" smooth="yes"/>
			<point x="208" y="93"/>
			<point x="201" y="73"/>
			<point x="201" y="27" type="curve" smooth="yes"/>
			<point x="201" y="12" type="line" smooth="yes"/>
			<point x="201" y="-34"/>
			<point x="208" y="-54"/>
		</contour>
	</outline>
</glyph>
<glyph name="Ssa.bn" format="2">
	<advance width="726"/>
	<unicode hex="09B7"/>
	<anchor x="574" y="0" name="bottom1"/>
	<anchor x="541" y="1433" name="top"/>
	<anchor x="400" y="1662" name="top2"/>
	<outline>
		<contour>
			<point x="551" y="1241" type="line"/>
			<point x="551" y="1023" type="line"/>
			<point x="574" y="1023" type="line"/>
			<point x="574" y="1241" type="line"/>
		</contour>
		<contour>
			<point x="551" y="1218" type="line"/>
			<point x="790" y="1218" type="line"/>
			<point x="786" y="1248" type="line"/>
			<point x="551" y="1248" type="line"/>
		</contour>
		<contour>
			<point x="544" y="0" type="line"/>
			<point x="574" y="0" type="line"/>
			<point x="574" y="1220" type="line"/>
			<point x="540" y="1220" type="line"/>
			<point x="540" y="124" type="line"/>
			<point x="542" y="26" type="line"/>
			<point x="548" y="40" type="line"/>
			<point x="149" y="435" type="line"/>
			<point x="159" y="404" type="line"/>
			<point x="159" y="667" type="line"/>
			<point x="145" y="642" type="line"/>
			<point x="356" y="852" type="line"/>
			<point x="354" y="870" type="line"/>
			<point x="346" y="852" type="line"/>
			<point x="546" y="602" type="line"/>
			<point x="561" y="632" type="line"/>
			<point x="363" y="878" type="line"/>
			<point x="261" y="1004"/>
			<point x="156" y="1134"/>
			<point x="83" y="1226" type="curve"/>
			<point x="68" y="1226" type="line"/>
			<point x="68" y="1191" type="line"/>
			<point x="329" y="873" type="line"/>
			<point x="329" y="872" type="line"/>
			<point x="125" y="669" type="line"/>
			<point x="125" y="414" type="line"/>
		</contour>
		<contour>
			<point x="-78" y="1218" type="line"/>
			<point x="574" y="1218" type="line"/>
			<point x="574" y="1248" type="line"/>
			<point x="-82" y="1248" type="line"/>
		</contour>
	</outline>
</glyph>
<glyph name="Sa.bn" format="2">
	<advance width="749"/>
	<unicode hex="09B8"/>
	<anchor x="597" y="200" name="bottom1"/>
	<anchor x="564" y="1433" name="top"/>
	<anchor x="423" y="1662" name="top2"/>
	<outline>
		<contour>
			<point x="563" y="0" type="line"/>
			<point x="597" y="0" type="line"/>
			<point x="597" y="1237" type="line"/>
			<point x="563" y="1237" type="line"/>
			<point x="563" y="837" type="line"/>
			<point x="564" y="714" type="line"/>
			<point x="563" y="704" type="line"/>
		</contour>
		<contour>
			<point x="-67" y="1218" type="line"/>
			<point x="595" y="1218" type="line"/>
			<point x="595" y="1248" type="line"/>
			<point x="-71" y="1248" type="line"/>
		</contour>
		<contour>
			<point x="589" y="678" type="curve"/>
			<point x="589" y="713" type="line"/>
			<point x="569" y="729"/>
			<point x="544" y="736"/>
			<point x="508" y="736" type="curve" smooth="yes"/>
			<point x="429" y="736"/>
			<point x="359" y="676"/>
			<point x="296" y="590" type="curve" smooth="yes"/>
			<point x="275" y="560"/>
			<point x="232" y="494"/>
			<point x="197" y="468" type="curve"/>
			<point x="206" y="468" type="line"/>
			<point x="250" y="524"/>
			<point x="285" y="603"/>
			<point x="285" y="765" type="curve" smooth="yes"/>
			<point x="285" y="793" type="line" smooth="yes"/>
			<point x="285" y="1038"/>
			<point x="205" y="1162"/>
			<point x="123" y="1228" type="curve"/>
			<point x="102" y="1228" type="line"/>
			<point x="102" y="1203" type="line"/>
			<point x="189" y="1129"/>
			<point x="251" y="1006"/>
			<point x="251" y="793" type="curve" smooth="yes"/>
			<point x="251" y="765" type="line" smooth="yes"/>
			<point x="251" y="527"/>
			<point x="172" y="419"/>
			<point x="56" y="419" type="curve" smooth="yes"/>
			<point x="25" y="419" type="line"/>
			<point x="25" y="383" type="line"/>
			<point x="62" y="383" type="line" smooth="yes"/>
			<point x="184" y="383"/>
			<point x="250" y="477"/>
			<point x="316" y="563" type="curve" smooth="yes"/>
			<point x="378" y="649"/>
			<point x="439" y="703"/>
			<point x="514" y="703" type="curve" smooth="yes"/>
			<point x="545" y="703"/>
			<point x="572" y="694"/>
		</contour>
		<contour>
			<point x="574" y="1241" type="line"/>
			<point x="574" y="1023" type="line"/>
			<point x="597" y="1023" type="line"/>
			<point x="597" y="1241" type="line"/>
		</contour>
		<contour>
			<point x="574" y="1218" type="line"/>
			<point x="813" y="1218" type="line"/>
			<point x="809" y="1248" type="line"/>
			<point x="574" y="1248" type="line"/>
		</contour>
	</outline>
</glyph>
<glyph name="Ha.bn" format="2">
  <advance width="662"/>
  <unicode hex="09B9"/>
  <note>
Ha.bn
</note>
  <anchor x="382" y="260" name="bottom1"/>
  <anchor x="314" y="1433" name="top"/>
  <anchor x="172" y="1662" name="top2"/>
  <outline>
    <contour>
      <point x="572" y="-92" type="line"/>
      <point x="577" y="-53" type="line"/>
      <point x="293" y="193" type="line"/>
      <point x="191" y="277" type="line"/>
      <point x="198" y="289" type="line"/>
      <point x="153" y="294" type="line"/>
      <point x="201" y="270"/>
      <point x="250" y="259"/>
      <point x="301" y="259" type="curve" smooth="yes"/>
      <point x="447" y="259"/>
      <point x="521" y="342"/>
      <point x="521" y="506" type="curve" smooth="yes"/>
      <point x="521" y="808" type="line" smooth="yes"/>
      <point x="521" y="964"/>
      <point x="449" y="1051"/>
      <point x="324" y="1051" type="curve" smooth="yes"/>
      <point x="201" y="1051"/>
      <point x="131" y="966"/>
      <point x="131" y="808" type="curve" smooth="yes"/>
      <point x="131" y="746"/>
      <point x="131" y="658"/>
      <point x="131" y="596" type="curve"/>
      <point x="165" y="596" type="line"/>
      <point x="165" y="658"/>
      <point x="165" y="746"/>
      <point x="165" y="808" type="curve" smooth="yes"/>
      <point x="165" y="948"/>
      <point x="220" y="1019"/>
      <point x="326" y="1019" type="curve" smooth="yes"/>
      <point x="430" y="1019"/>
      <point x="487" y="948"/>
      <point x="487" y="808" type="curve" smooth="yes"/>
      <point x="487" y="506" type="line" smooth="yes"/>
      <point x="487" y="359"/>
      <point x="425" y="291"/>
      <point x="291" y="291" type="curve" smooth="yes"/>
      <point x="238" y="291"/>
      <point x="189" y="303"/>
      <point x="142" y="328" type="curve" smooth="yes"/>
      <point x="102" y="349" type="line"/>
      <point x="97" y="321" type="line"/>
    </contour>
    <contour>
      <point x="-16" y="1218" type="line"/>
      <point x="666" y="1218" type="line"/>
      <point x="662" y="1248" type="line"/>
      <point x="-20" y="1248" type="line"/>
    </contour>
  </outline>
</glyph>
<glyph name="Nukta.bn" format="2">
	<advance width="0"/>
	<unicode hex="09BC"/>
	<outline>
		<contour>
			<point x="-368" y="-182" type="curve" smooth="yes"/>
			<point x="-346" y="-182"/>
			<point x="-339" y="-162"/>
			<point x="-339" y="-116" type="curve" smooth="yes"/>
			<point x="-339" y="-101" type="line" smooth="yes"/>
			<point x="-339" y="-55"/>
			<point x="-346" y="-35"/>
			<point x="-368" y="-35" type="curve" smooth="yes"/>
			<point x="-390" y="-35"/>
			<point x="-397" y="-55"/>
			<point x="-397" y="-101" type="curve" smooth="yes"/>
			<point x="-397" y="-116" type="line" smooth="yes"/>
			<point x="-397" y="-162"/>
			<point x="-390" y="-182"/>
		</contour>
	</outline>
</glyph>
<glyph name="Avagraha.bn" format="2">
	<advance width="630"/>
	<unicode hex="09BD"/>
	<outline>
		<contour>
			<point x="195" y="1069" type="curve" smooth="yes"/>
			<point x="195" y="1007" type="line"/>
			<point x="228" y="1007" type="line"/>
			<point x="228" y="1069" type="line" smooth="yes"/>
			<point x="228" y="1182"/>
			<point x="163" y="1248"/>
			<point x="52" y="1248" type="curve" smooth="yes"/>
			<point x="-20" y="1248" type="line"/>
			<point x="-16" y="1218" type="line"/>
			<point x="52" y="1218" type="line" smooth="yes"/>
			<point x="146" y="1218"/>
			<point x="195" y="1165"/>
		</contour>
		<contour>
			<point x="562" y="-62" type="line"/>
			<point x="567" y="-23" type="line"/>
			<point x="283" y="223" type="line"/>
			<point x="181" y="307" type="line"/>
			<point x="188" y="319" type="line"/>
			<point x="143" y="324" type="line"/>
			<point x="191" y="300"/>
			<point x="240" y="289"/>
			<point x="291" y="289" type="curve" smooth="yes"/>
			<point x="437" y="289"/>
			<point x="511" y="372"/>
			<point x="511" y="536" type="curve" smooth="yes"/>
			<point x="511" y="808" type="line" smooth="yes"/>
			<point x="511" y="964"/>
			<point x="439" y="1051"/>
			<point x="314" y="1051" type="curve" smooth="yes"/>
			<point x="191" y="1051"/>
			<point x="121" y="966"/>
			<point x="121" y="808" type="curve" smooth="yes"/>
			<point x="121" y="746"/>
			<point x="121" y="688"/>
			<point x="121" y="626" type="curve"/>
			<point x="155" y="626" type="line"/>
			<point x="155" y="688"/>
			<point x="155" y="746"/>
			<point x="155" y="808" type="curve" smooth="yes"/>
			<point x="155" y="948"/>
			<point x="210" y="1019"/>
			<point x="316" y="1019" type="curve" smooth="yes"/>
			<point x="420" y="1019"/>
			<point x="477" y="948"/>
			<point x="477" y="808" type="curve" smooth="yes"/>
			<point x="477" y="536" type="line" smooth="yes"/>
			<point x="477" y="389"/>
			<point x="415" y="321"/>
			<point x="281" y="321" type="curve" smooth="yes"/>
			<point x="228" y="321"/>
			<point x="179" y="333"/>
			<point x="132" y="358" type="curve" smooth="yes"/>
			<point x="92" y="379" type="line"/>
			<point x="87" y="351" type="line"/>
		</contour>
	</outline>
</glyph>
<glyph name="SignAa.bn" format="2">
  <advance width="340"/>
  <unicode hex="09BE"/>
  <anchor x="155" y="1433" name="top"/>
  <anchor x="14" y="1662" name="top2"/>
  <outline>
    <contour>
      <point x="154" y="0" type="line"/>
      <point x="188" y="0" type="line"/>
      <point x="188" y="1228" type="line"/>
      <point x="154" y="1228" type="line"/>
    </contour>
    <contour>
      <point x="-60" y="1218" type="line"/>
      <point x="186" y="1218" type="line"/>
      <point x="186" y="1248" type="line"/>
      <point x="-64" y="1248" type="line"/>
    </contour>
    <contour>
      <point x="165" y="1241" type="line"/>
      <point x="165" y="1023" type="line"/>
      <point x="188" y="1023" type="line"/>
      <point x="188" y="1241" type="line"/>
    </contour>
    <contour>
      <point x="165" y="1218" type="line"/>
      <point x="404" y="1218" type="line"/>
      <point x="400" y="1248" type="line"/>
      <point x="165" y="1248" type="line"/>
    </contour>
  </outline>
</glyph>
<glyph name="SignI.bn" format="2">
	<advance width="372"/>
	<unicode hex="09BF"/>
	<anchor x="155" y="1433" name="top"/>
	<anchor x="14" y="1662" name="top2"/>
	<outline>
		<contour>
			<point x="507" y="1622" type="curve" smooth="yes"/>
			<point x="290" y="1622"/>
			<point x="154" y="1541"/>
			<point x="154" y="1281" type="curve" smooth="yes"/>
			<point x="154" y="1201" type="line"/>
			<point x="188" y="1201" type="line"/>
			<point x="188" y="1277" type="line" smooth="yes"/>
			<point x="188" y="1524"/>
			<point x="312" y="1590"/>
			<point x="508" y="1590" type="curve" smooth="yes"/>
			<point x="663" y="1590"/>
			<point x="781" y="1546"/>
			<point x="871" y="1488" type="curve"/>
			<point x="876" y="1488" type="line"/>
			<point x="873" y="1517" type="line"/>
			<point x="796" y="1571"/>
			<point x="663" y="1622"/>
		</contour>
		<contour>
			<point x="154" y="0" type="line"/>
			<point x="188" y="0" type="line"/>
			<point x="188" y="1228" type="line"/>
			<point x="154" y="1228" type="line"/>
		</contour>
		<contour>
			<point x="-60" y="1218" type="line"/>
			<point x="186" y="1218" type="line"/>
			<point x="186" y="1248" type="line"/>
			<point x="-64" y="1248" type="line"/>
		</contour>
		<contour>
			<point x="165" y="1241" type="line"/>
			<point x="165" y="1023" type="line"/>
			<point x="188" y="1023" type="line"/>
			<point x="188" y="1241" type="line"/>
		</contour>
		<contour>
			<point x="165" y="1218" type="line"/>
			<point x="404" y="1218" type="line"/>
			<point x="400" y="1248" type="line"/>
			<point x="165" y="1248" type="line"/>
		</contour>
	</outline>
</glyph>
<glyph name="SignIi.bn" format="2">
  <advance width="340"/>
  <unicode hex="09C0"/>
  <anchor x="155" y="1433" name="top"/>
  <anchor x="84" y="1695" name="top2"/>
  <outline>
    <contour>
      <point x="-105" y="1393" type="line"/>
      <point x="-109" y="1423" type="line"/>
      <point x="-336" y="1423" type="line" smooth="yes"/>
      <point x="-435" y="1423"/>
      <point x="-482" y="1453"/>
      <point x="-482" y="1517" type="curve" smooth="yes"/>
      <point x="-482" y="1606"/>
      <point x="-408" y="1649"/>
      <point x="-253" y="1649" type="curve" smooth="yes"/>
      <point x="-30" y="1649"/>
      <point x="156" y="1530"/>
      <point x="156" y="1242" type="curve" smooth="yes"/>
      <point x="156" y="1222" type="line"/>
      <point x="188" y="1222" type="line"/>
      <point x="188" y="1242" type="line" smooth="yes"/>
      <point x="188" y="1550"/>
      <point x="-15" y="1679"/>
      <point x="-257" y="1679" type="curve" smooth="yes"/>
      <point x="-431" y="1679"/>
      <point x="-515" y="1624"/>
      <point x="-515" y="1518" type="curve" smooth="yes"/>
      <point x="-515" y="1434"/>
      <point x="-456" y="1393"/>
      <point x="-336" y="1393" type="curve" smooth="yes"/>
    </contour>
    <contour>
      <point x="154" y="0" type="line"/>
      <point x="188" y="0" type="line"/>
      <point x="188" y="1228" type="line"/>
      <point x="154" y="1228" type="line"/>
    </contour>
    <contour>
      <point x="-60" y="1218" type="line"/>
      <point x="186" y="1218" type="line"/>
      <point x="186" y="1248" type="line"/>
      <point x="-64" y="1248" type="line"/>
    </contour>
    <contour>
      <point x="165" y="1241" type="line"/>
      <point x="165" y="1023" type="line"/>
      <point x="188" y="1023" type="line"/>
      <point x="188" y="1241" type="line"/>
    </contour>
    <contour>
      <point x="165" y="1218" type="line"/>
      <point x="404" y="1218" type="line"/>
      <point x="400" y="1248" type="line"/>
      <point x="165" y="1248" type="line"/>
    </contour>
  </outline>
</glyph>
<glyph name="SignU.bn" format="2">
	<advance width="0"/>
	<unicode hex="09C1"/>
	<anchor x="-174" y="0" name="_bottom1"/>
	<outline>
		<contour>
			<point x="-206" y="-165" type="line"/>
			<point x="-174" y="-189" type="line"/>
			<point x="-174" y="27" type="line"/>
			<point x="-206" y="34" type="line"/>
		</contour>
		<contour>
			<point x="60" y="-455" type="curve"/>
			<point x="66" y="-412" type="line"/>
			<point x="-101" y="-200"/>
			<point x="-200" y="-125"/>
			<point x="-310" y="-125" type="curve" smooth="yes"/>
			<point x="-424" y="-125"/>
			<point x="-483" y="-195"/>
			<point x="-483" y="-298" type="curve" smooth="yes"/>
			<point x="-483" y="-394"/>
			<point x="-428" y="-462"/>
			<point x="-323" y="-462" type="curve" smooth="yes"/>
			<point x="-225" y="-462"/>
			<point x="-174" y="-398"/>
			<point x="-174" y="-275" type="curve" smooth="yes"/>
			<point x="-174" y="-194" type="line"/>
			<point x="-206" y="-174" type="line"/>
			<point x="-206" y="-271" type="line" smooth="yes"/>
			<point x="-206" y="-378"/>
			<point x="-246" y="-433"/>
			<point x="-323" y="-433" type="curve" smooth="yes"/>
			<point x="-408" y="-433"/>
			<point x="-452" y="-377"/>
			<point x="-452" y="-298" type="curve" smooth="yes"/>
			<point x="-452" y="-213"/>
			<point x="-403" y="-153"/>
			<point x="-308" y="-153" type="curve" smooth="yes"/>
			<point x="-206" y="-153"/>
			<point x="-109" y="-232"/>
		</contour>
	</outline>
</glyph>
<glyph name="SignUu.bn" format="2">
	<advance width="0"/>
	<unicode hex="09C2"/>
	<anchor x="176" y="0" name="_bottom1"/>
	<outline>
		<contour>
			<point x="176" y="-158" type="line"/>
			<point x="176" y="27" type="line"/>
			<point x="144" y="34" type="line"/>
			<point x="144" y="-142" type="line"/>
		</contour>
		<contour>
			<point x="390" y="-529" type="line"/>
			<point x="394" y="-496" type="line"/>
			<point x="207" y="-355" type="line"/>
			<point x="169" y="-404"/>
			<point x="122" y="-426"/>
			<point x="66" y="-426" type="curve" smooth="yes"/>
			<point x="-15" y="-426"/>
			<point x="-63" y="-376"/>
			<point x="-63" y="-294" type="curve" smooth="yes"/>
			<point x="-63" y="-186"/>
			<point x="14" y="-153"/>
			<point x="91" y="-153" type="curve" smooth="yes"/>
			<point x="119" y="-153"/>
			<point x="141" y="-154"/>
			<point x="176" y="-158" type="curve"/>
			<point x="157" y="-130" type="line"/>
			<point x="142" y="-128"/>
			<point x="119" y="-125"/>
			<point x="89" y="-125" type="curve" smooth="yes"/>
			<point x="-10" y="-125"/>
			<point x="-95" y="-175"/>
			<point x="-95" y="-294" type="curve" smooth="yes"/>
			<point x="-95" y="-394"/>
			<point x="-33" y="-454"/>
			<point x="68" y="-454" type="curve" smooth="yes"/>
			<point x="131" y="-454"/>
			<point x="181" y="-430"/>
			<point x="221" y="-380" type="curve"/>
			<point x="193" y="-378" type="line"/>
		</contour>
	</outline>
</glyph>
<glyph name="SignRu.bn" format="2">
	<advance width="0"/>
	<unicode hex="09C3"/>
	<anchor x="-74" y="0" name="_bottom1"/>
	<outline>
		<contour>
			<point x="-74" y="-129" type="line"/>
			<point x="-74" y="27" type="line"/>
			<point x="-106" y="34" type="line"/>
			<point x="-106" y="-119" type="line"/>
		</contour>
		<contour>
			<point x="-4" y="-507" type="line"/>
			<point x="0" y="-471" type="line"/>
			<point x="-305" y="-283" type="line"/>
			<point x="-305" y="-281" type="line"/>
			<point x="-262" y="-248"/>
			<point x="-148" y="-172"/>
			<point x="-74" y="-128" type="curve"/>
			<point x="-94" y="-103" type="line"/>
			<point x="-181" y="-157"/>
			<point x="-283" y="-221"/>
			<point x="-346" y="-270" type="curve"/>
			<point x="-346" y="-297" type="line"/>
		</contour>
	</outline>
</glyph>
<glyph name="SignRuu.bn" format="2">
	<advance width="0"/>
	<unicode hex="09C4"/>
	<guideline x="-69" y="-98" angle="90"/>
	<anchor x="-74" y="188" name="_bottom1"/>
	<outline>
		<contour>
			<point x="-109" y="-417" type="curve"/>
			<point x="-142" y="-401" type="line"/>
			<point x="-216" y="-447"/>
			<point x="-294" y="-498"/>
			<point x="-346" y="-538" type="curve"/>
			<point x="-346" y="-565" type="line"/>
			<point x="-4" y="-775" type="line"/>
			<point x="0" y="-739" type="line"/>
			<point x="-305" y="-551" type="line"/>
			<point x="-305" y="-549" type="line"/>
			<point x="-268" y="-521"/>
			<point x="-180" y="-461"/>
		</contour>
		<contour>
			<point x="-74" y="-129" type="line"/>
			<point x="-74" y="27" type="line"/>
			<point x="-106" y="34" type="line"/>
			<point x="-106" y="-119" type="line"/>
		</contour>
		<contour>
			<point x="-4" y="-507" type="line"/>
			<point x="0" y="-471" type="line"/>
			<point x="-305" y="-283" type="line"/>
			<point x="-305" y="-281" type="line"/>
			<point x="-262" y="-248"/>
			<point x="-148" y="-172"/>
			<point x="-74" y="-128" type="curve"/>
			<point x="-94" y="-103" type="line"/>
			<point x="-181" y="-157"/>
			<point x="-283" y="-221"/>
			<point x="-346" y="-270" type="curve"/>
			<point x="-346" y="-297" type="line"/>
		</contour>
	</outline>
</glyph>
<glyph name="SignE.bn" format="2">
	<advance width="415"/>
	<unicode hex="09C7"/>
	<outline>
		<contour>
			<point x="386" y="1223" type="curve"/>
			<point x="361" y="1241" type="line"/>
			<point x="219" y="1143"/>
			<point x="146" y="1024"/>
			<point x="146" y="685" type="curve" smooth="yes"/>
			<point x="146" y="419" type="line" smooth="yes"/>
			<point x="146" y="141"/>
			<point x="232" y="18"/>
			<point x="370" y="-23" type="curve" smooth="yes"/>
			<point x="380" y="-26" type="line"/>
			<point x="384" y="5" type="line"/>
			<point x="375" y="8" type="line" smooth="yes"/>
			<point x="259" y="47"/>
			<point x="180" y="157"/>
			<point x="180" y="419" type="curve" smooth="yes"/>
			<point x="180" y="685" type="line" smooth="yes"/>
			<point x="180" y="1011"/>
			<point x="250" y="1127"/>
		</contour>
		<contour>
			<point x="-64" y="1218" type="line"/>
			<point x="505" y="1218" type="line"/>
			<point x="501" y="1248" type="line"/>
			<point x="-68" y="1248" type="line"/>
		</contour>
	</outline>
</glyph>
<glyph name="SignAi.bn" format="2">
  <advance width="415"/>
  <unicode hex="09C8"/>
  <anchor x="267" y="1497" name="top"/>
  <anchor x="192" y="1743" name="top2"/>
  <outline>
    <contour>
      <point x="386" y="1223" type="curve"/>
      <point x="361" y="1241" type="line"/>
      <point x="219" y="1143"/>
      <point x="146" y="1024"/>
      <point x="146" y="685" type="curve" smooth="yes"/>
      <point x="146" y="419" type="line" smooth="yes"/>
      <point x="146" y="141"/>
      <point x="232" y="18"/>
      <point x="370" y="-23" type="curve" smooth="yes"/>
      <point x="380" y="-26" type="line"/>
      <point x="384" y="5" type="line"/>
      <point x="375" y="8" type="line" smooth="yes"/>
      <point x="259" y="47"/>
      <point x="180" y="157"/>
      <point x="180" y="419" type="curve" smooth="yes"/>
      <point x="180" y="685" type="line" smooth="yes"/>
      <point x="180" y="1011"/>
      <point x="250" y="1127"/>
    </contour>
    <contour>
      <point x="-64" y="1218" type="line"/>
      <point x="505" y="1218" type="line"/>
      <point x="501" y="1248" type="line"/>
      <point x="-68" y="1248" type="line"/>
    </contour>
    <contour>
      <point x="392" y="1244" type="line"/>
      <point x="403" y="1283"/>
      <point x="407" y="1317"/>
      <point x="407" y="1349" type="curve" smooth="yes"/>
      <point x="407" y="1458"/>
      <point x="346" y="1513"/>
      <point x="226" y="1513" type="curve" smooth="yes"/>
      <point x="184" y="1513" type="line" smooth="yes"/>
      <point x="89" y="1513"/>
      <point x="43" y="1559"/>
      <point x="43" y="1653" type="curve" smooth="yes"/>
      <point x="43" y="1681" type="line"/>
      <point x="15" y="1681" type="line"/>
      <point x="15" y="1653" type="line" smooth="yes"/>
      <point x="15" y="1541"/>
      <point x="72" y="1483"/>
      <point x="184" y="1483" type="curve" smooth="yes"/>
      <point x="226" y="1483" type="line" smooth="yes"/>
      <point x="329" y="1483"/>
      <point x="377" y="1441"/>
      <point x="377" y="1348" type="curve" smooth="yes"/>
      <point x="377" y="1304"/>
      <point x="371" y="1267"/>
      <point x="360" y="1235" type="curve"/>
      <point x="383" y="1230" type="line"/>
    </contour>
  </outline>
</glyph>
<glyph name="SignO.bn" format="2">
	<advance width="974"/>
	<unicode hex="09CB"/>
	<anchor x="789" y="1433" name="top"/>
	<anchor x="648" y="1662" name="top2"/>
	<outline>
		<contour>
			<point x="385" y="1248" type="line"/>
			<point x="385" y="1218" type="line"/>
			<point x="704" y="1218" type="line"/>
			<point x="704" y="1248" type="line"/>
		</contour>
		<contour>
			<point x="386" y="1223" type="curve"/>
			<point x="361" y="1241" type="line"/>
			<point x="219" y="1143"/>
			<point x="146" y="1024"/>
			<point x="146" y="685" type="curve" smooth="yes"/>
			<point x="146" y="419" type="line" smooth="yes"/>
			<point x="146" y="141"/>
			<point x="232" y="18"/>
			<point x="370" y="-23" type="curve" smooth="yes"/>
			<point x="380" y="-26" type="line"/>
			<point x="384" y="5" type="line"/>
			<point x="375" y="8" type="line" smooth="yes"/>
			<point x="259" y="47"/>
			<point x="180" y="157"/>
			<point x="180" y="419" type="curve" smooth="yes"/>
			<point x="180" y="685" type="line" smooth="yes"/>
			<point x="180" y="1011"/>
			<point x="250" y="1127"/>
		</contour>
		<contour>
			<point x="-64" y="1218" type="line"/>
			<point x="505" y="1218" type="line"/>
			<point x="501" y="1248" type="line"/>
			<point x="-68" y="1248" type="line"/>
		</contour>
		<contour>
			<point x="788" y="0" type="line"/>
			<point x="822" y="0" type="line"/>
			<point x="822" y="1228" type="line"/>
			<point x="788" y="1228" type="line"/>
		</contour>
		<contour>
			<point x="574" y="1218" type="line"/>
			<point x="820" y="1218" type="line"/>
			<point x="820" y="1248" type="line"/>
			<point x="570" y="1248" type="line"/>
		</contour>
		<contour>
			<point x="799" y="1241" type="line"/>
			<point x="799" y="1023" type="line"/>
			<point x="822" y="1023" type="line"/>
			<point x="822" y="1241" type="line"/>
		</contour>
		<contour>
			<point x="799" y="1218" type="line"/>
			<point x="1038" y="1218" type="line"/>
			<point x="1034" y="1248" type="line"/>
			<point x="799" y="1248" type="line"/>
		</contour>
	</outline>
</glyph>
<glyph name="SignAu.bn" format="2">
	<advance width="974"/>
	<unicode hex="09CC"/>
	<anchor x="297" y="1497" name="top"/>
	<anchor x="222" y="1743" name="top2"/>
	<outline>
		<contour>
			<point x="385" y="1248" type="line"/>
			<point x="385" y="1218" type="line"/>
			<point x="704" y="1218" type="line"/>
			<point x="704" y="1248" type="line"/>
		</contour>
		<contour>
			<point x="386" y="1223" type="curve"/>
			<point x="361" y="1241" type="line"/>
			<point x="219" y="1143"/>
			<point x="146" y="1024"/>
			<point x="146" y="685" type="curve" smooth="yes"/>
			<point x="146" y="419" type="line" smooth="yes"/>
			<point x="146" y="141"/>
			<point x="232" y="18"/>
			<point x="370" y="-23" type="curve" smooth="yes"/>
			<point x="380" y="-26" type="line"/>
			<point x="384" y="5" type="line"/>
			<point x="375" y="8" type="line" smooth="yes"/>
			<point x="259" y="47"/>
			<point x="180" y="157"/>
			<point x="180" y="419" type="curve" smooth="yes"/>
			<point x="180" y="685" type="line" smooth="yes"/>
			<point x="180" y="1011"/>
			<point x="250" y="1127"/>
		</contour>
		<contour>
			<point x="-64" y="1218" type="line"/>
			<point x="505" y="1218" type="line"/>
			<point x="501" y="1248" type="line"/>
			<point x="-68" y="1248" type="line"/>
		</contour>
		<contour>
			<point x="788" y="0" type="line"/>
			<point x="822" y="0" type="line"/>
			<point x="822" y="1228" type="line"/>
			<point x="788" y="1228" type="line"/>
		</contour>
		<contour>
			<point x="574" y="1218" type="line"/>
			<point x="820" y="1218" type="line"/>
			<point x="820" y="1248" type="line"/>
			<point x="570" y="1248" type="line"/>
		</contour>
		<contour>
			<point x="799" y="1241" type="line"/>
			<point x="799" y="1023" type="line"/>
			<point x="822" y="1023" type="line"/>
			<point x="822" y="1241" type="line"/>
		</contour>
		<contour>
			<point x="799" y="1218" type="line"/>
			<point x="1038" y="1218" type="line"/>
			<point x="1034" y="1248" type="line"/>
			<point x="799" y="1248" type="line"/>
		</contour>
		<contour>
			<point x="422" y="1244" type="line"/>
			<point x="433" y="1283"/>
			<point x="437" y="1317"/>
			<point x="437" y="1349" type="curve" smooth="yes"/>
			<point x="437" y="1458"/>
			<point x="376" y="1513"/>
			<point x="256" y="1513" type="curve" smooth="yes"/>
			<point x="214" y="1513" type="line" smooth="yes"/>
			<point x="119" y="1513"/>
			<point x="73" y="1559"/>
			<point x="73" y="1653" type="curve" smooth="yes"/>
			<point x="73" y="1681" type="line"/>
			<point x="45" y="1681" type="line"/>
			<point x="45" y="1653" type="line" smooth="yes"/>
			<point x="45" y="1541"/>
			<point x="102" y="1483"/>
			<point x="214" y="1483" type="curve" smooth="yes"/>
			<point x="256" y="1483" type="line" smooth="yes"/>
			<point x="359" y="1483"/>
			<point x="407" y="1441"/>
			<point x="407" y="1348" type="curve" smooth="yes"/>
			<point x="407" y="1304"/>
			<point x="401" y="1267"/>
			<point x="390" y="1235" type="curve"/>
			<point x="413" y="1230" type="line"/>
		</contour>
	</outline>
</glyph>
<glyph name="Hasant.bn" format="2">
	<advance width="0"/>
	<unicode hex="09CD"/>
	<anchor x="-67" y="21" name="_bottom1"/>
	<outline>
		<contour>
			<point x="293" y="-358" type="line"/>
			<point x="5" y="-45" type="line"/>
			<point x="0" y="-83" type="line"/>
			<point x="288" y="-396" type="line"/>
		</contour>
	</outline>
</glyph>
<glyph name="KhandaTa.bn" format="2">
  <advance width="663"/>
  <unicode hex="09CE"/>
  <outline>
    <contour>
      <point x="522" y="-2" type="curve"/>
      <point x="557" y="-2" type="line"/>
      <point x="557" y="27"/>
      <point x="557" y="56"/>
      <point x="557" y="85" type="curve" smooth="yes"/>
      <point x="557" y="188"/>
      <point x="516" y="274"/>
      <point x="425" y="338" type="curve" smooth="yes"/>
      <point x="286" y="436" type="line" smooth="yes"/>
      <point x="200" y="497"/>
      <point x="165" y="573"/>
      <point x="165" y="681" type="curve" smooth="yes"/>
      <point x="165" y="1022" type="line" smooth="yes"/>
      <point x="165" y="1153"/>
      <point x="218" y="1226"/>
      <point x="316" y="1226" type="curve" smooth="yes"/>
      <point x="413" y="1226"/>
      <point x="466" y="1152"/>
      <point x="466" y="1022" type="curve" smooth="yes"/>
      <point x="466" y="762" type="line" smooth="yes"/>
      <point x="466" y="641"/>
      <point x="437" y="583"/>
      <point x="359" y="583" type="curve" smooth="yes"/>
      <point x="334" y="583" type="line"/>
      <point x="339" y="552" type="line"/>
      <point x="367" y="552" type="line" smooth="yes"/>
      <point x="462" y="552"/>
      <point x="500" y="620"/>
      <point x="500" y="762" type="curve" smooth="yes"/>
      <point x="500" y="1022" type="line" smooth="yes"/>
      <point x="500" y="1172"/>
      <point x="436" y="1258"/>
      <point x="314" y="1258" type="curve" smooth="yes"/>
      <point x="194" y="1258"/>
      <point x="131" y="1177"/>
      <point x="131" y="1022" type="curve" smooth="yes"/>
      <point x="131" y="681" type="line" smooth="yes"/>
      <point x="131" y="563"/>
      <point x="171" y="478"/>
      <point x="269" y="408" type="curve" smooth="yes"/>
      <point x="408" y="309" type="line" smooth="yes"/>
      <point x="484" y="255"/>
      <point x="522" y="180"/>
      <point x="522" y="85" type="curve" smooth="yes"/>
      <point x="522" y="56"/>
      <point x="522" y="27"/>
    </contour>
  </outline>
</glyph>
<glyph name="Rra.bn" format="2">
	<advance width="844"/>
	<unicode hex="09DC"/>
	<anchor x="514" y="188" name="bottom1"/>
	<anchor x="408" y="1433" name="top"/>
	<anchor x="268" y="1662" name="top2"/>
	<outline>
		<contour>
			<point x="191" y="362" type="curve" smooth="yes"/>
			<point x="157" y="991" type="line"/>
			<point x="123" y="991" type="line"/>
			<point x="157" y="358" type="line" smooth="yes"/>
			<point x="168" y="139"/>
			<point x="269" y="20"/>
			<point x="446" y="20" type="curve" smooth="yes"/>
			<point x="624" y="20"/>
			<point x="717" y="133"/>
			<point x="717" y="354" type="curve" smooth="yes"/>
			<point x="717" y="585"/>
			<point x="715" y="755"/>
			<point x="710" y="946" type="curve"/>
			<point x="683" y="950" type="line"/>
			<point x="670" y="813" type="line" smooth="yes"/>
			<point x="655" y="658"/>
			<point x="617" y="594"/>
			<point x="539" y="594" type="curve" smooth="yes"/>
			<point x="468" y="594"/>
			<point x="433" y="646"/>
			<point x="433" y="752" type="curve" smooth="yes"/>
			<point x="433" y="1236" type="line"/>
			<point x="399" y="1236" type="line"/>
			<point x="399" y="752" type="line" smooth="yes"/>
			<point x="399" y="625"/>
			<point x="446" y="562"/>
			<point x="543" y="562" type="curve" smooth="yes"/>
			<point x="638" y="562"/>
			<point x="688" y="647"/>
			<point x="698" y="803" type="curve" smooth="yes"/>
			<point x="705" y="914" type="line"/>
			<point x="681" y="916" type="line"/>
			<point x="682" y="751"/>
			<point x="683" y="547"/>
			<point x="683" y="354" type="curve" smooth="yes"/>
			<point x="683" y="154"/>
			<point x="599" y="53"/>
			<point x="446" y="53" type="curve" smooth="yes"/>
			<point x="288" y="53"/>
			<point x="201" y="162"/>
		</contour>
		<contour>
			<point x="-16" y="1218" type="line"/>
			<point x="879" y="1218" type="line"/>
			<point x="875" y="1248" type="line"/>
			<point x="-20" y="1248" type="line"/>
		</contour>
		<contour>
			<point x="448" y="-280" type="curve" smooth="yes"/>
			<point x="470" y="-280"/>
			<point x="477" y="-260"/>
			<point x="477" y="-214" type="curve" smooth="yes"/>
			<point x="477" y="-199" type="line" smooth="yes"/>
			<point x="477" y="-153"/>
			<point x="470" y="-133"/>
			<point x="448" y="-133" type="curve" smooth="yes"/>
			<point x="426" y="-133"/>
			<point x="419" y="-153"/>
			<point x="419" y="-199" type="curve" smooth="yes"/>
			<point x="419" y="-214" type="line" smooth="yes"/>
			<point x="419" y="-260"/>
			<point x="426" y="-280"/>
		</contour>
	</outline>
</glyph>
<glyph name="Rha.bn" format="2">
  <advance width="708"/>
  <unicode hex="09DD"/>
  <anchor x="415" y="188" name="bottom1"/>
  <anchor x="145" y="1433" name="top"/>
  <anchor x="223" y="1662" name="top2"/>
  <outline>
    <contour>
      <point x="337" y="-281" type="curve" smooth="yes"/>
      <point x="359" y="-281"/>
      <point x="366" y="-261"/>
      <point x="366" y="-215" type="curve" smooth="yes"/>
      <point x="366" y="-200" type="line" smooth="yes"/>
      <point x="366" y="-154"/>
      <point x="359" y="-134"/>
      <point x="337" y="-134" type="curve" smooth="yes"/>
      <point x="315" y="-134"/>
      <point x="308" y="-154"/>
      <point x="308" y="-200" type="curve" smooth="yes"/>
      <point x="308" y="-215" type="line" smooth="yes"/>
      <point x="308" y="-261"/>
      <point x="315" y="-281"/>
    </contour>
    <contour>
      <point x="349" y="20" type="curve" smooth="yes"/>
      <point x="467" y="20"/>
      <point x="545" y="90"/>
      <point x="561" y="261" type="curve" smooth="yes"/>
      <point x="569" y="344"/>
      <point x="589" y="584"/>
      <point x="589" y="653" type="curve" smooth="yes"/>
      <point x="589" y="787"/>
      <point x="523" y="854"/>
      <point x="412" y="854" type="curve" smooth="yes"/>
      <point x="392" y="854"/>
      <point x="369" y="854"/>
      <point x="335" y="854" type="curve"/>
      <point x="331" y="822" type="line"/>
      <point x="367" y="822"/>
      <point x="392" y="822"/>
      <point x="412" y="822" type="curve" smooth="yes"/>
      <point x="504" y="822"/>
      <point x="555" y="765"/>
      <point x="555" y="653" type="curve" smooth="yes"/>
      <point x="555" y="588"/>
      <point x="535" y="344"/>
      <point x="527" y="264" type="curve" smooth="yes"/>
      <point x="512" y="115"/>
      <point x="447" y="52"/>
      <point x="349" y="52" type="curve" smooth="yes"/>
      <point x="238" y="52"/>
      <point x="179" y="119"/>
      <point x="179" y="266" type="curve" smooth="yes"/>
      <point x="179" y="1239" type="line"/>
      <point x="145" y="1239" type="line"/>
      <point x="145" y="266" type="line" smooth="yes"/>
      <point x="145" y="106"/>
      <point x="209" y="20"/>
    </contour>
    <contour>
      <point x="-56" y="1218" type="line"/>
      <point x="739" y="1218" type="line"/>
      <point x="735" y="1248" type="line"/>
      <point x="-60" y="1248" type="line"/>
    </contour>
  </outline>
</glyph>
<glyph name="VowelRuu.bn" format="2">
	<advance width="1033"/>
	<unicode hex="09E0"/>
	<anchor x="409" y="1662" name="top2"/>
	<outline>
		<contour>
			<point x="455" y="-251" type="line"/>
			<point x="459" y="-215" type="line"/>
			<point x="151" y="6" type="line"/>
			<point x="151" y="8" type="line"/>
			<point x="192" y="47"/>
			<point x="294" y="134"/>
			<point x="368" y="191" type="curve"/>
			<point x="347" y="215" type="line"/>
			<point x="265" y="150"/>
			<point x="172" y="77"/>
			<point x="113" y="19" type="curve"/>
			<point x="113" y="-8" type="line"/>
		</contour>
		<contour>
			<point x="541" y="0" type="line"/>
			<point x="571" y="0" type="line"/>
			<point x="571" y="1248" type="line"/>
			<point x="539" y="1248" type="line"/>
			<point x="539" y="995" type="line"/>
			<point x="539" y="935" type="line"/>
			<point x="537" y="918" type="line"/>
			<point x="537" y="124" type="line"/>
			<point x="539" y="26" type="line"/>
			<point x="547" y="38" type="line"/>
			<point x="175" y="398" type="line"/>
			<point x="185" y="366" type="line"/>
			<point x="185" y="657" type="line"/>
			<point x="174" y="627" type="line"/>
			<point x="272" y="720"/>
			<point x="428" y="837"/>
			<point x="565" y="917" type="curve"/>
			<point x="550" y="946" type="line"/>
			<point x="529" y="934"/>
			<point x="509" y="921"/>
			<point x="488" y="909" type="curve"/>
			<point x="481" y="904" type="line"/>
			<point x="354" y="823"/>
			<point x="233" y="728"/>
			<point x="151" y="651" type="curve"/>
			<point x="151" y="376" type="line"/>
		</contour>
		<contour>
			<point x="454" y="873" type="curve"/>
			<point x="482" y="892" type="line"/>
			<point x="445" y="1011"/>
			<point x="407" y="1129"/>
			<point x="370" y="1248" type="curve"/>
			<point x="342" y="1248" type="line"/>
			<point x="323" y="1100" type="line" smooth="yes"/>
			<point x="311" y="1025"/>
			<point x="284" y="957"/>
			<point x="197" y="957" type="curve" smooth="yes"/>
			<point x="124" y="957"/>
			<point x="79" y="1008"/>
			<point x="79" y="1105" type="curve" smooth="yes"/>
			<point x="79" y="1248" type="line"/>
			<point x="46" y="1248" type="line"/>
			<point x="46" y="1105" type="line" smooth="yes"/>
			<point x="46" y="986"/>
			<point x="105" y="925"/>
			<point x="199" y="925" type="curve" smooth="yes"/>
			<point x="290" y="925"/>
			<point x="339" y="983"/>
			<point x="354" y="1089" type="curve" smooth="yes"/>
			<point x="369" y="1218" type="line"/>
			<point x="351" y="1201" type="line"/>
			<point x="386" y="1091"/>
			<point x="420" y="983"/>
		</contour>
		<contour>
			<point x="841" y="109" type="line"/>
			<point x="871" y="109" type="line"/>
			<point x="871" y="1248" type="line"/>
			<point x="837" y="1248" type="line"/>
			<point x="837" y="233" type="line"/>
			<point x="839" y="135" type="line"/>
			<point x="845" y="151" type="line"/>
			<point x="556" y="494" type="line"/>
			<point x="555" y="448" type="line"/>
		</contour>
	</outline>
</glyph>
<glyph name="VowelLruu.bn" format="2">
  <advance width="874"/>
  <unicode hex="09E1"/>
  <anchor x="394" y="1447" name="top2"/>
  <outline>
    <contour>
      <point x="588" y="47" type="curve"/>
      <point x="564" y="25" type="line"/>
      <point x="667" y="-33"/>
      <point x="714" y="-108"/>
      <point x="714" y="-252" type="curve" smooth="yes"/>
      <point x="714" y="-444" type="line" smooth="yes"/>
      <point x="714" y="-559"/>
      <point x="645" y="-619"/>
      <point x="537" y="-619" type="curve" smooth="yes"/>
      <point x="502" y="-619" type="line"/>
      <point x="520" y="-636" type="line"/>
      <point x="520" y="-335" type="line" smooth="yes"/>
      <point x="520" y="-209"/>
      <point x="468" y="-150"/>
      <point x="379" y="-150" type="curve" smooth="yes"/>
      <point x="292" y="-150"/>
      <point x="242" y="-205"/>
      <point x="242" y="-335" type="curve" smooth="yes"/>
      <point x="242" y="-424" type="line" smooth="yes"/>
      <point x="242" y="-498"/>
      <point x="242" y="-573"/>
      <point x="242" y="-647" type="curve"/>
      <point x="274" y="-647" type="line"/>
      <point x="274" y="-573"/>
      <point x="274" y="-500"/>
      <point x="274" y="-426" type="curve" smooth="yes"/>
      <point x="274" y="-335" type="line" smooth="yes"/>
      <point x="274" y="-224"/>
      <point x="309" y="-180"/>
      <point x="379" y="-180" type="curve" smooth="yes"/>
      <point x="455" y="-180"/>
      <point x="488" y="-226"/>
      <point x="488" y="-339" type="curve" smooth="yes"/>
      <point x="488" y="-648" type="line"/>
      <point x="537" y="-648" type="line" smooth="yes"/>
      <point x="663" y="-648"/>
      <point x="747" y="-576"/>
      <point x="747" y="-445" type="curve" smooth="yes"/>
      <point x="747" y="-251" type="line" smooth="yes"/>
      <point x="747" y="-86"/>
      <point x="680" y="-7"/>
    </contour>
    <contour>
      <point x="124" y="0" type="curve"/>
      <point x="158" y="0" type="line"/>
      <point x="158" y="101"/>
      <point x="158" y="203"/>
      <point x="158" y="305" type="curve" smooth="yes"/>
      <point x="158" y="470" type="line" smooth="yes"/>
      <point x="158" y="616"/>
      <point x="196" y="673"/>
      <point x="287" y="673" type="curve" smooth="yes"/>
      <point x="382" y="673"/>
      <point x="420" y="614"/>
      <point x="420" y="464" type="curve" smooth="yes"/>
      <point x="420" y="0" type="line"/>
      <point x="475" y="0" type="line" smooth="yes"/>
      <point x="625" y="0"/>
      <point x="723" y="81"/>
      <point x="723" y="235" type="curve" smooth="yes"/>
      <point x="723" y="571" type="line" smooth="yes"/>
      <point x="723" y="778"/>
      <point x="653" y="887"/>
      <point x="458" y="984" type="curve" smooth="yes"/>
      <point x="351" y="1037" type="line" smooth="yes"/>
      <point x="233" y="1096"/>
      <point x="188" y="1140"/>
      <point x="188" y="1257" type="curve" smooth="yes"/>
      <point x="188" y="1259" type="line"/>
      <point x="155" y="1259" type="line"/>
      <point x="155" y="1257" type="line" smooth="yes"/>
      <point x="155" y="1125"/>
      <point x="206" y="1072"/>
      <point x="339" y="1006" type="curve" smooth="yes"/>
      <point x="446" y="953" type="line" smooth="yes"/>
      <point x="625" y="864"/>
      <point x="689" y="764"/>
      <point x="689" y="571" type="curve" smooth="yes"/>
      <point x="689" y="235" type="line" smooth="yes"/>
      <point x="689" y="102"/>
      <point x="606" y="32"/>
      <point x="475" y="32" type="curve" smooth="yes"/>
      <point x="433" y="32" type="line"/>
      <point x="454" y="11" type="line"/>
      <point x="454" y="464" type="line" smooth="yes"/>
      <point x="454" y="634"/>
      <point x="396" y="705"/>
      <point x="285" y="705" type="curve" smooth="yes"/>
      <point x="179" y="705"/>
      <point x="124" y="638"/>
      <point x="124" y="470" type="curve" smooth="yes"/>
      <point x="124" y="308" type="line" smooth="yes"/>
      <point x="124" y="207"/>
      <point x="124" y="101"/>
    </contour>
  </outline>
</glyph>
<glyph name="SignLru.bn" format="2">
	<advance width="681"/>
	<unicode hex="09E2"/>
	<outline>
		<contour>
			<point x="224" y="-675" type="curve"/>
			<point x="254" y="-675" type="line"/>
			<point x="254" y="-615"/>
			<point x="254" y="-555"/>
			<point x="254" y="-494" type="curve" smooth="yes"/>
			<point x="254" y="-392" type="line" smooth="yes"/>
			<point x="254" y="-308"/>
			<point x="275" y="-276"/>
			<point x="324" y="-276" type="curve" smooth="yes"/>
			<point x="377" y="-276"/>
			<point x="397" y="-310"/>
			<point x="397" y="-395" type="curve" smooth="yes"/>
			<point x="397" y="-676" type="line"/>
			<point x="436" y="-676" type="line" smooth="yes"/>
			<point x="527" y="-676"/>
			<point x="586" y="-626"/>
			<point x="586" y="-533" type="curve" smooth="yes"/>
			<point x="586" y="-334" type="line" smooth="yes"/>
			<point x="586" y="-209"/>
			<point x="546" y="-143"/>
			<point x="428" y="-81" type="curve" smooth="yes"/>
			<point x="369" y="-50" type="line" smooth="yes"/>
			<point x="297" y="-13"/>
			<point x="271" y="13"/>
			<point x="271" y="82" type="curve" smooth="yes"/>
			<point x="271" y="83" type="line"/>
			<point x="242" y="83" type="line"/>
			<point x="242" y="82" type="line" smooth="yes"/>
			<point x="243" y="1"/>
			<point x="272" y="-33"/>
			<point x="356" y="-76" type="curve" smooth="yes"/>
			<point x="415" y="-106" type="line" smooth="yes"/>
			<point x="521" y="-160"/>
			<point x="557" y="-220"/>
			<point x="557" y="-334" type="curve" smooth="yes"/>
			<point x="557" y="-532" type="line" smooth="yes"/>
			<point x="557" y="-609"/>
			<point x="510" y="-649"/>
			<point x="436" y="-649" type="curve" smooth="yes"/>
			<point x="412" y="-649" type="line"/>
			<point x="427" y="-665" type="line"/>
			<point x="427" y="-395" type="line" smooth="yes"/>
			<point x="427" y="-293"/>
			<point x="391" y="-249"/>
			<point x="323" y="-249" type="curve" smooth="yes"/>
			<point x="258" y="-249"/>
			<point x="224" y="-290"/>
			<point x="224" y="-392" type="curve" smooth="yes"/>
			<point x="224" y="-492" type="line" smooth="yes"/>
			<point x="224" y="-553"/>
			<point x="224" y="-615"/>
		</contour>
	</outline>
</glyph>
<glyph name="SignLruu.bn" format="2">
  <advance width="696"/>
  <unicode hex="09E3"/>
  <outline>
    <contour>
      <point x="504" y="-642" type="curve"/>
      <point x="485" y="-661" type="line"/>
      <point x="546" y="-694"/>
      <point x="573" y="-736"/>
      <point x="573" y="-815" type="curve" smooth="yes"/>
      <point x="573" y="-957" type="line" smooth="yes"/>
      <point x="573" y="-1012"/>
      <point x="534" y="-1040"/>
      <point x="474" y="-1040" type="curve" smooth="yes"/>
      <point x="454" y="-1040" type="line"/>
      <point x="467" y="-1053" type="line"/>
      <point x="467" y="-872" type="line" smooth="yes"/>
      <point x="467" y="-797"/>
      <point x="435" y="-762"/>
      <point x="379" y="-762" type="curve" smooth="yes"/>
      <point x="327" y="-762"/>
      <point x="296" y="-795"/>
      <point x="296" y="-870" type="curve" smooth="yes"/>
      <point x="296" y="-930" type="line" smooth="yes"/>
      <point x="296" y="-975"/>
      <point x="296" y="-1020"/>
      <point x="296" y="-1063" type="curve"/>
      <point x="323" y="-1063" type="line"/>
      <point x="323" y="-1020"/>
      <point x="323" y="-976"/>
      <point x="323" y="-931" type="curve" smooth="yes"/>
      <point x="323" y="-870" type="line" smooth="yes"/>
      <point x="323" y="-811"/>
      <point x="342" y="-788"/>
      <point x="380" y="-788" type="curve" smooth="yes"/>
      <point x="422" y="-788"/>
      <point x="440" y="-812"/>
      <point x="440" y="-872" type="curve" smooth="yes"/>
      <point x="440" y="-1064" type="line"/>
      <point x="473" y="-1064" type="line" smooth="yes"/>
      <point x="550" y="-1064"/>
      <point x="601" y="-1026"/>
      <point x="601" y="-958" type="curve" smooth="yes"/>
      <point x="601" y="-813" type="line" smooth="yes"/>
      <point x="601" y="-721"/>
      <point x="562" y="-674"/>
    </contour>
    <contour>
      <point x="224" y="-675" type="curve"/>
      <point x="254" y="-675" type="line"/>
      <point x="254" y="-615"/>
      <point x="254" y="-555"/>
      <point x="254" y="-494" type="curve" smooth="yes"/>
      <point x="254" y="-392" type="line" smooth="yes"/>
      <point x="254" y="-308"/>
      <point x="275" y="-276"/>
      <point x="324" y="-276" type="curve" smooth="yes"/>
      <point x="377" y="-276"/>
      <point x="397" y="-310"/>
      <point x="397" y="-395" type="curve" smooth="yes"/>
      <point x="397" y="-676" type="line"/>
      <point x="436" y="-676" type="line" smooth="yes"/>
      <point x="527" y="-676"/>
      <point x="586" y="-626"/>
      <point x="586" y="-533" type="curve" smooth="yes"/>
      <point x="586" y="-334" type="line" smooth="yes"/>
      <point x="586" y="-209"/>
      <point x="546" y="-143"/>
      <point x="428" y="-81" type="curve" smooth="yes"/>
      <point x="369" y="-50" type="line" smooth="yes"/>
      <point x="297" y="-13"/>
      <point x="271" y="13"/>
      <point x="271" y="82" type="curve" smooth="yes"/>
      <point x="271" y="83" type="line"/>
      <point x="242" y="83" type="line"/>
      <point x="242" y="82" type="line" smooth="yes"/>
      <point x="243" y="1"/>
      <point x="272" y="-33"/>
      <point x="356" y="-76" type="curve" smooth="yes"/>
      <point x="415" y="-106" type="line" smooth="yes"/>
      <point x="521" y="-160"/>
      <point x="557" y="-220"/>
      <point x="557" y="-334" type="curve" smooth="yes"/>
      <point x="557" y="-532" type="line" smooth="yes"/>
      <point x="557" y="-609"/>
      <point x="510" y="-649"/>
      <point x="436" y="-649" type="curve" smooth="yes"/>
      <point x="412" y="-649" type="line"/>
      <point x="427" y="-665" type="line"/>
      <point x="427" y="-395" type="line" smooth="yes"/>
      <point x="427" y="-293"/>
      <point x="391" y="-249"/>
      <point x="323" y="-249" type="curve" smooth="yes"/>
      <point x="258" y="-249"/>
      <point x="224" y="-290"/>
      <point x="224" y="-392" type="curve" smooth="yes"/>
      <point x="224" y="-492" type="line" smooth="yes"/>
      <point x="224" y="-553"/>
      <point x="224" y="-615"/>
    </contour>
  </outline>
</glyph>
<glyph name="Zero.bn" format="2">
  <advance width="696"/>
  <unicode hex="09E6"/>
  <outline>
    <contour>
      <point x="350" y="19" type="curve" smooth="yes"/>
      <point x="488" y="19"/>
      <point x="565" y="111"/>
      <point x="565" y="278" type="curve" smooth="yes"/>
      <point x="565" y="1002" type="line" smooth="yes"/>
      <point x="565" y="1168"/>
      <point x="486" y="1260"/>
      <point x="346" y="1260" type="curve" smooth="yes"/>
      <point x="210" y="1260"/>
      <point x="131" y="1168"/>
      <point x="131" y="1002" type="curve" smooth="yes"/>
      <point x="131" y="278" type="line" smooth="yes"/>
      <point x="131" y="111"/>
      <point x="208" y="19"/>
    </contour>
    <contour>
      <point x="348" y="51" type="curve" smooth="yes"/>
      <point x="237" y="51"/>
      <point x="165" y="131"/>
      <point x="165" y="274" type="curve" smooth="yes"/>
      <point x="165" y="1004" type="line" smooth="yes"/>
      <point x="165" y="1147"/>
      <point x="237" y="1228"/>
      <point x="348" y="1228" type="curve" smooth="yes"/>
      <point x="464" y="1228"/>
      <point x="532" y="1147"/>
      <point x="532" y="1004" type="curve" smooth="yes"/>
      <point x="532" y="274" type="line" smooth="yes"/>
      <point x="532" y="131"/>
      <point x="464" y="51"/>
    </contour>
  </outline>
</glyph>
<glyph name="One.bn" format="2">
  <advance width="666"/>
  <unicode hex="09E7"/>
  <outline>
    <contour>
      <point x="543" y="410" type="line" smooth="yes"/>
      <point x="545" y="643"/>
      <point x="543" y="708"/>
      <point x="382" y="889" type="curve" smooth="yes"/>
      <point x="228" y="1062" type="line" smooth="yes"/>
      <point x="158" y="1141"/>
      <point x="158" y="1188"/>
      <point x="158" y="1239" type="curve" smooth="yes"/>
      <point x="158" y="1259" type="line"/>
      <point x="125" y="1259" type="line"/>
      <point x="125" y="1241" type="line" smooth="yes"/>
      <point x="125" y="1173"/>
      <point x="128" y="1126"/>
      <point x="209" y="1035" type="curve" smooth="yes"/>
      <point x="363" y="862" type="line" smooth="yes"/>
      <point x="512" y="694"/>
      <point x="510" y="632"/>
      <point x="509" y="410" type="curve" smooth="yes"/>
      <point x="508" y="255" type="line" smooth="yes"/>
      <point x="507" y="116"/>
      <point x="448" y="43"/>
      <point x="330" y="43" type="curve" smooth="yes"/>
      <point x="208" y="43"/>
      <point x="147" y="116"/>
      <point x="147" y="255" type="curve" smooth="yes"/>
      <point x="147" y="387"/>
      <point x="147" y="390"/>
      <point x="147" y="526" type="curve"/>
      <point x="114" y="526" type="line"/>
      <point x="114" y="390"/>
      <point x="114" y="387"/>
      <point x="114" y="255" type="curve" smooth="yes"/>
      <point x="114" y="90"/>
      <point x="187" y="9"/>
      <point x="330" y="9" type="curve" smooth="yes"/>
      <point x="470" y="9"/>
      <point x="541" y="90"/>
      <point x="542" y="255" type="curve" smooth="yes"/>
    </contour>
  </outline>
</glyph>
<glyph name="Two.bn" format="2">
	<advance width="643"/>
	<unicode hex="09E8"/>
	<outline>
		<contour>
			<point x="575" y="-4" type="line"/>
			<point x="581" y="32" type="line"/>
			<point x="273" y="299" type="line"/>
			<point x="191" y="365" type="line"/>
			<point x="220" y="340" type="line"/>
			<point x="234" y="358" type="line"/>
			<point x="198" y="355" type="line"/>
			<point x="248" y="321"/>
			<point x="284" y="315"/>
			<point x="323" y="315" type="curve" smooth="yes"/>
			<point x="438" y="315"/>
			<point x="507" y="389"/>
			<point x="507" y="523" type="curve" smooth="yes"/>
			<point x="507" y="584" type="line" smooth="yes"/>
			<point x="507" y="767"/>
			<point x="442" y="816"/>
			<point x="345" y="916" type="curve" smooth="yes"/>
			<point x="205" y="1061" type="line" smooth="yes"/>
			<point x="132" y="1137"/>
			<point x="137" y="1192"/>
			<point x="137" y="1251" type="curve" smooth="yes"/>
			<point x="137" y="1259" type="line"/>
			<point x="104" y="1259" type="line"/>
			<point x="104" y="1251" type="line" smooth="yes"/>
			<point x="104" y="1175"/>
			<point x="104" y="1121"/>
			<point x="186" y="1035" type="curve" smooth="yes"/>
			<point x="327" y="886" type="line" smooth="yes"/>
			<point x="410" y="798"/>
			<point x="473" y="757"/>
			<point x="473" y="582" type="curve" smooth="yes"/>
			<point x="473" y="523" type="line" smooth="yes"/>
			<point x="473" y="409"/>
			<point x="414" y="345"/>
			<point x="314" y="345" type="curve" smooth="yes"/>
			<point x="254" y="345"/>
			<point x="200" y="370"/>
			<point x="163" y="400" type="curve" smooth="yes"/>
			<point x="83" y="465" type="line"/>
			<point x="78" y="425" type="line"/>
		</contour>
	</outline>
</glyph>
<glyph name="Three.bn" format="2">
  <advance width="839"/>
  <unicode hex="09E9"/>
  <outline>
    <contour>
      <point x="429" y="20" type="curve" smooth="yes"/>
      <point x="606" y="20"/>
      <point x="704" y="135"/>
      <point x="704" y="345" type="curve" smooth="yes"/>
      <point x="704" y="1039" type="line" smooth="yes"/>
      <point x="704" y="1178"/>
      <point x="649" y="1252"/>
      <point x="536" y="1252" type="curve" smooth="yes"/>
      <point x="429" y="1252"/>
      <point x="373" y="1182"/>
      <point x="373" y="1045" type="curve" smooth="yes"/>
      <point x="373" y="929"/>
      <point x="373" y="769"/>
      <point x="373" y="655" type="curve"/>
      <point x="407" y="655" type="line"/>
      <point x="407" y="771"/>
      <point x="407" y="898"/>
      <point x="407" y="1045" type="curve" smooth="yes"/>
      <point x="407" y="1158"/>
      <point x="450" y="1220"/>
      <point x="538" y="1220" type="curve" smooth="yes"/>
      <point x="634" y="1220"/>
      <point x="670" y="1156"/>
      <point x="670" y="1039" type="curve" smooth="yes"/>
      <point x="670" y="345" type="line" smooth="yes"/>
      <point x="670" y="153"/>
      <point x="583" y="52"/>
      <point x="429" y="52" type="curve" smooth="yes"/>
      <point x="275" y="52"/>
      <point x="186" y="157"/>
      <point x="177" y="357" type="curve" smooth="yes"/>
      <point x="146" y="1065" type="line"/>
      <point x="112" y="1065" type="line"/>
      <point x="143" y="353" type="line" smooth="yes"/>
      <point x="152" y="148"/>
      <point x="247" y="20"/>
    </contour>
  </outline>
</glyph>
